SplineFontDB: 3.0
FontName: Fiavex
FullName: Fiavex
FamilyName: Fiavex
Weight: Medium
Copyright: Created by Rebecca Bettencourt with FontForge 2.0 (http://fontforge.sf.net)
UComments: "2015-1-24: Created." 
Version: 001.000
ItalicAngle: 0
UnderlinePosition: -200
UnderlineWidth: 100
Ascent: 1300
Descent: 300
LayerCount: 2
Layer: 0 0 "Back"  1
Layer: 1 0 "Fore"  0
NeedsXUIDChange: 1
XUID: [1021 734 2001724053 3777434]
FSType: 8
OS2Version: 0
OS2_WeightWidthSlopeOnly: 0
OS2_UseTypoMetrics: 1
CreationTime: 1422132499
ModificationTime: 1422160078
PfmFamily: 17
TTFWeight: 500
TTFWidth: 5
LineGap: 0
VLineGap: 0
OS2TypoAscent: 0
OS2TypoAOffset: 1
OS2TypoDescent: 0
OS2TypoDOffset: 1
OS2TypoLinegap: 0
OS2WinAscent: 0
OS2WinAOffset: 1
OS2WinDescent: 0
OS2WinDOffset: 1
HheadAscent: 0
HheadAOffset: 1
HheadDescent: 0
HheadDOffset: 1
OS2Vendor: 'KrKo'
DEI: 91125
Encoding: UnicodeBmp
UnicodeInterp: none
NameList: Adobe Glyph List
DisplaySize: -36
AntiAlias: 1
FitToEm: 1
WinInfo: 16 16 13
BeginChars: 65536 651

StartChar: uniE040
Encoding: 57408 57408 0
Width: 1900
VWidth: 0
Flags: HW
LayerCount: 2
Fore
SplineSet
1600 800 m 25
 500 800 l 25
 500 100 l 25
 1600 100 l 25
 1600 800 l 25
1400 1000 m 25
 300 1000 l 25
 300 300 l 25
 400 300 l 25
 400 900 l 25
 1400 900 l 25
 1400 1000 l 25
200 1100 m 25
 1500 1100 l 25
 1500 900 l 25
 1700 900 l 25
 1700 0 l 25
 500 0 l 25
 500 -200 l 25
 400 -200 l 25
 400 200 l 25
 300 200 l 25
 300 0 l 25
 200 0 l 25
 200 1100 l 25
EndSplineSet
EndChar

StartChar: uniE044
Encoding: 57412 57412 1
Width: 1900
VWidth: 0
Flags: HW
LayerCount: 2
Fore
SplineSet
1500 800 m 25
 400 800 l 25
 400 100 l 25
 1500 100 l 25
 1500 800 l 25
300 900 m 25
 1600 900 l 25
 1600 0 l 25
 400 0 l 25
 400 -200 l 25
 300 -200 l 25
 300 900 l 25
EndSplineSet
EndChar

StartChar: uniE045
Encoding: 57413 57413 2
Width: 1900
VWidth: 0
Flags: HW
LayerCount: 2
Fore
SplineSet
300 900 m 25
 1600 900 l 25
 1600 800 l 25
 400 800 l 25
 400 100 l 25
 1600 100 l 25
 1600 0 l 25
 400 0 l 25
 400 -200 l 25
 300 -200 l 25
 300 900 l 25
EndSplineSet
EndChar

StartChar: uniE041
Encoding: 57409 57409 3
Width: 1900
VWidth: 0
Flags: HW
LayerCount: 2
Fore
SplineSet
1180 1022 m 1
 1270 978 l 1
 1231 900 l 1
 1600 900 l 1
 1600 0 l 1
 781 0 l 1
 720 -122 l 1
 630 -78 l 1
 669 0 l 1
 400 0 l 1
 400 -200 l 1
 300 -200 l 1
 300 900 l 1
 1119 900 l 1
 1180 1022 l 1
719 100 m 1
 1069 800 l 1
 400 800 l 1
 400 100 l 1
 719 100 l 1
831 100 m 1
 1500 100 l 1
 1500 800 l 1
 1181 800 l 1
 831 100 l 1
EndSplineSet
EndChar

StartChar: uniE042
Encoding: 57410 57410 4
Width: 1900
VWidth: 0
Flags: HW
LayerCount: 2
Fore
SplineSet
1219 800 m 1
 1600 800 l 1
 1600 -100 l 1
 769 -100 l 1
 1219 800 l 1
300 900 m 1
 1131 900 l 1
 681 0 l 1
 400 0 l 1
 400 -200 l 1
 300 -200 l 1
 300 900 l 1
619 100 m 1
 969 800 l 1
 400 800 l 1
 400 100 l 1
 619 100 l 1
1281 700 m 1
 931 0 l 1
 1500 0 l 1
 1500 700 l 1
 1281 700 l 1
EndSplineSet
EndChar

StartChar: uniE043
Encoding: 57411 57411 5
Width: 1900
VWidth: 0
Flags: HW
LayerCount: 2
Fore
SplineSet
1465 1035 m 1
 1535 965 l 1
 1470 900 l 1
 1600 900 l 1
 1600 0 l 1
 1470 0 l 1
 1535 -65 l 1
 1465 -135 l 1
 1330 0 l 1
 570 0 l 1
 435 -135 l 1
 400 -100 l 1
 400 -200 l 1
 300 -200 l 1
 300 900 l 1
 430 900 l 1
 365 965 l 1
 435 1035 l 1
 570 900 l 1
 1330 900 l 1
 1465 1035 l 1
1230 800 m 1
 670 800 l 1
 950 520 l 1
 1230 800 l 1
400 -30 m 1
 430 0 l 1
 400 0 l 1
 400 -30 l 1
530 100 m 1
 880 450 l 1
 530 800 l 1
 400 800 l 1
 400 100 l 1
 530 100 l 1
670 100 m 1
 1230 100 l 1
 950 380 l 1
 670 100 l 1
1370 800 m 1
 1020 450 l 1
 1370 100 l 1
 1500 100 l 1
 1500 800 l 1
 1370 800 l 1
EndSplineSet
EndChar

StartChar: uniE046
Encoding: 57414 57414 6
Width: 1900
VWidth: 0
Flags: HW
LayerCount: 2
Fore
SplineSet
924.294 269.893 m 1
 991.163 269.893 l 1
 991.163 200 l 1
 924.294 200 l 1
 924.294 269.893 l 1
852.05 655.813 m 128
 879.38 685.271 916.902 700 964.617 700 c 0
 1008.75 700 1044.09 687.399 1070.63 662.197 c 128
 1097.18 636.996 1110.45 604.794 1110.45 565.592 c 0
 1110.45 541.846 1105.58 522.581 1095.83 507.796 c 128
 1086.09 493.011 1066.43 471.281 1036.86 442.607 c 0
 1015.36 421.774 1001.41 404.133 995.027 389.685 c 128
 988.643 375.235 985.45 353.897 985.45 325.672 c 1
 925.639 325.672 l 1
 925.639 357.706 929.446 383.523 937.063 403.125 c 128
 944.68 422.727 961.369 445.184 987.13 470.497 c 2
 1014.01 497.043 l 1
 1022.08 504.659 1028.57 512.612 1033.5 520.9 c 0
 1042.46 535.462 1046.94 550.582 1046.94 566.264 c 0
 1046.94 588.217 1040.39 607.258 1027.29 623.387 c 128
 1014.18 639.517 992.507 647.581 962.265 647.581 c 0
 924.854 647.581 898.98 633.691 884.644 605.914 c 0
 876.579 590.457 871.987 568.168 870.867 539.046 c 1
 811.055 539.046 l 1
 811.055 587.433 824.72 626.355 852.05 655.813 c 128
1500 800 m 25
 400 800 l 25
 400 100 l 25
 1500 100 l 25
 1500 800 l 25
300 900 m 25
 1600 900 l 25
 1600 0 l 25
 400 0 l 25
 400 -200 l 25
 300 -200 l 25
 300 900 l 25
EndSplineSet
EndChar

StartChar: uniE047
Encoding: 57415 57415 7
Width: 1900
VWidth: 0
Flags: HW
LayerCount: 2
Fore
SplineSet
100 900 m 1
 1400 900 l 1
 1400 500 l 5
 1630 500 l 5
 1465 665 l 5
 1535 735 l 5
 1820 450 l 5
 1535 165 l 5
 1465 235 l 5
 1630 400 l 5
 1400 400 l 5
 1400 0 l 1
 200 0 l 1
 200 -200 l 1
 100 -200 l 1
 100 900 l 1
1300 800 m 1
 200 800 l 1
 200 100 l 1
 1300 100 l 1
 1300 400 l 1
 700 400 l 1
 700 500 l 1
 1300 500 l 1
 1300 800 l 1
EndSplineSet
EndChar

StartChar: uniE048
Encoding: 57416 57416 8
Width: 1900
VWidth: 0
Flags: HW
LayerCount: 2
Fore
SplineSet
1500 800 m 25
 400 800 l 25
 400 100 l 25
 1500 100 l 25
 1500 800 l 25
300 900 m 25
 1600 900 l 25
 1600 -200 l 25
 1500 -200 l 25
 1500 0 l 25
 300 0 l 25
 300 900 l 25
EndSplineSet
EndChar

StartChar: uniE049
Encoding: 57417 57417 9
Width: 1900
VWidth: 0
Flags: HW
LayerCount: 2
Fore
SplineSet
300 100 m 1
 300 200 l 1
 819 200 l 1
 969 500 l 1
 470 500 l 1
 635 335 l 1
 565 265 l 1
 280 550 l 1
 565 835 l 1
 635 765 l 1
 470 600 l 1
 1019 600 l 1
 1180 922 l 1
 1270 878 l 1
 1131 600 l 1
 1600 600 l 1
 1600 500 l 1
 1081 500 l 1
 931 200 l 1
 1430 200 l 1
 1265 365 l 1
 1335 435 l 1
 1620 150 l 1
 1335 -135 l 1
 1265 -65 l 1
 1430 100 l 1
 881 100 l 1
 720 -222 l 1
 630 -178 l 1
 769 100 l 1
 300 100 l 1
EndSplineSet
EndChar

StartChar: uni21C6
Encoding: 8646 8646 10
Width: 1900
VWidth: 0
Flags: HW
LayerCount: 2
Fore
SplineSet
1600 600 m 9
 1600 500 l 17
 470 500 l 1
 635 335 l 1
 565 265 l 1
 280 550 l 1
 565 835 l 1
 635 765 l 1
 470 600 l 1
 1600 600 l 9
300 100 m 9
 300 200 l 17
 1430 200 l 1
 1265 365 l 1
 1335 435 l 1
 1620 150 l 1
 1335 -135 l 1
 1265 -65 l 1
 1430 100 l 1
 300 100 l 9
EndSplineSet
EndChar

StartChar: uni21C4
Encoding: 8644 8644 11
Width: 1900
VWidth: 0
Flags: HW
LayerCount: 2
Fore
SplineSet
300 600 m 17
 1430 600 l 1
 1265 765 l 1
 1335 835 l 1
 1620 550 l 1
 1335 265 l 1
 1265 335 l 1
 1430 500 l 1
 300 500 l 9
 300 600 l 17
1600 100 m 17
 470 100 l 1
 635 -65 l 1
 565 -135 l 1
 280 150 l 1
 565 435 l 1
 635 365 l 1
 470 200 l 1
 1600 200 l 9
 1600 100 l 17
EndSplineSet
EndChar

StartChar: uniE04A
Encoding: 57418 57418 12
Width: 1900
VWidth: 0
Flags: HW
LayerCount: 2
Fore
SplineSet
1675.19 800.04 m 1
 1734.06 800.04 l 5
 1792.77 708.047 1831.39 638.973 1849.92 592.818 c 0
 1879.12 520.291 1893.72 437.56 1893.72 344.624 c 0
 1893.72 319.82 1891.99 293.761 1888.54 266.445 c 0
 1881.63 213.698 1869.38 164.091 1851.8 117.622 c 0
 1838.93 83.7139 1827 56.8691 1816.01 37.0889 c 128
 1805.02 17.3086 1776.61 -28.374 1730.77 -99.96 c 1
 1673.78 -99.96 l 1
 1719.93 -12.6758 1750.86 54.2002 1766.56 100.668 c 0
 1791.99 176.021 1804.71 259.224 1804.71 350.275 c 0
 1804.71 440.386 1793.56 519.82 1771.27 588.58 c 0
 1756.51 633.792 1724.49 704.278 1675.19 800.04 c 1
224.804 800.04 m 1
 175.51 704.278 143.485 633.792 128.729 588.58 c 0
 106.437 519.82 95.29 440.386 95.29 350.275 c 0
 95.29 259.224 108.006 176.021 133.438 100.668 c 0
 149.137 54.2002 180.062 -12.6758 226.217 -99.96 c 1
 169.23 -99.96 l 1
 123.391 -28.374 94.9766 17.3086 83.9873 37.0889 c 128
 72.998 56.8691 61.0674 83.7139 48.1943 117.622 c 0
 30.6123 164.091 18.3672 213.698 11.46 266.445 c 0
 8.00586 293.761 6.2793 319.82 6.2793 344.624 c 0
 6.2793 437.56 20.8789 520.291 50.0781 592.818 c 0
 68.6025 638.973 107.222 708.047 165.934 800.04 c 1
 224.804 800.04 l 1
1500 800 m 25
 400 800 l 25
 400 100 l 25
 1500 100 l 25
 1500 800 l 25
300 900 m 25
 1600 900 l 25
 1600 0 l 25
 400 0 l 25
 400 -200 l 25
 300 -200 l 25
 300 900 l 25
EndSplineSet
EndChar

StartChar: uniE04B
Encoding: 57419 57419 13
Width: 1500
VWidth: 0
Flags: HW
LayerCount: 2
Fore
SplineSet
1100 1200 m 25
 400 1200 l 25
 400 100 l 25
 1100 100 l 25
 1100 1200 l 25
700 1400 m 25
 800 1400 l 25
 800 1300 l 25
 1200 1300 l 25
 1200 0 l 25
 800 0 l 25
 800 -400 l 25
 700 -400 l 25
 700 0 l 25
 300 0 l 25
 300 1300 l 25
 700 1300 l 25
 700 1400 l 25
EndSplineSet
EndChar

StartChar: uniE000
Encoding: 57344 57344 14
Width: 2000
VWidth: 0
Flags: HW
LayerCount: 2
Fore
SplineSet
0 600 m 25
 600 600 l 25
 600 1100 l 25
 700 1100 l 25
 700 600 l 25
 1300 600 l 25
 1300 1100 l 25
 1400 1100 l 25
 1400 600 l 25
 2000 600 l 25
 2000 500 l 25
 1400 500 l 25
 1400 0 l 25
 1300 0 l 25
 1300 500 l 25
 700 500 l 25
 700 0 l 25
 600 0 l 25
 600 500 l 25
 0 500 l 25
 0 600 l 25
EndSplineSet
EndChar

StartChar: uniE001
Encoding: 57345 57345 15
Width: 2000
VWidth: 0
Flags: HW
LayerCount: 2
Fore
SplineSet
1500 200 m 0
 1500 310.4 1589.6 400 1700 400 c 0
 1810.4 400 1900 310.4 1900 200 c 0
 1900 89.6 1810.4 0 1700 0 c 0
 1589.6 0 1500 89.6 1500 200 c 0
0 600 m 25
 600 600 l 25
 600 1100 l 25
 700 1100 l 25
 700 600 l 25
 1300 600 l 25
 1300 1100 l 25
 1400 1100 l 25
 1400 600 l 25
 2000 600 l 25
 2000 500 l 25
 1400 500 l 25
 1400 0 l 25
 1300 0 l 25
 1300 500 l 25
 700 500 l 25
 700 0 l 25
 600 0 l 25
 600 500 l 25
 0 500 l 25
 0 600 l 25
EndSplineSet
EndChar

StartChar: uniE002
Encoding: 57346 57346 16
Width: 2000
VWidth: 0
Flags: HW
LayerCount: 2
Fore
SplineSet
800 200 m 0
 800 310.4 889.6 400 1000 400 c 0
 1110.4 400 1200 310.4 1200 200 c 0
 1200 89.6 1110.4 0 1000 0 c 0
 889.6 0 800 89.6 800 200 c 0
0 600 m 25
 600 600 l 25
 600 1100 l 25
 700 1100 l 25
 700 600 l 25
 1300 600 l 25
 1300 1100 l 25
 1400 1100 l 25
 1400 600 l 25
 2000 600 l 25
 2000 500 l 25
 1400 500 l 25
 1400 0 l 25
 1300 0 l 25
 1300 500 l 25
 700 500 l 25
 700 0 l 25
 600 0 l 25
 600 500 l 25
 0 500 l 25
 0 600 l 25
EndSplineSet
EndChar

StartChar: uniE003
Encoding: 57347 57347 17
Width: 2000
VWidth: 0
Flags: HW
LayerCount: 2
Fore
SplineSet
800 200 m 0
 800 310.4 889.6 400 1000 400 c 0
 1110.4 400 1200 310.4 1200 200 c 0
 1200 89.6 1110.4 0 1000 0 c 0
 889.6 0 800 89.6 800 200 c 0
1500 200 m 0
 1500 310.4 1589.6 400 1700 400 c 0
 1810.4 400 1900 310.4 1900 200 c 0
 1900 89.6 1810.4 0 1700 0 c 0
 1589.6 0 1500 89.6 1500 200 c 0
0 600 m 25
 600 600 l 25
 600 1100 l 25
 700 1100 l 25
 700 600 l 25
 1300 600 l 25
 1300 1100 l 25
 1400 1100 l 25
 1400 600 l 25
 2000 600 l 25
 2000 500 l 25
 1400 500 l 25
 1400 0 l 25
 1300 0 l 25
 1300 500 l 25
 700 500 l 25
 700 0 l 25
 600 0 l 25
 600 500 l 25
 0 500 l 25
 0 600 l 25
EndSplineSet
EndChar

StartChar: uniE004
Encoding: 57348 57348 18
Width: 2000
VWidth: 0
Flags: HW
LayerCount: 2
Fore
SplineSet
100 200 m 0
 100 310.4 189.6 400 300 400 c 0
 410.4 400 500 310.4 500 200 c 0
 500 89.6 410.4 0 300 0 c 0
 189.6 0 100 89.6 100 200 c 0
0 600 m 25
 600 600 l 25
 600 1100 l 25
 700 1100 l 25
 700 600 l 25
 1300 600 l 25
 1300 1100 l 25
 1400 1100 l 25
 1400 600 l 25
 2000 600 l 25
 2000 500 l 25
 1400 500 l 25
 1400 0 l 25
 1300 0 l 25
 1300 500 l 25
 700 500 l 25
 700 0 l 25
 600 0 l 25
 600 500 l 25
 0 500 l 25
 0 600 l 25
EndSplineSet
EndChar

StartChar: uniE005
Encoding: 57349 57349 19
Width: 2000
VWidth: 0
Flags: HW
LayerCount: 2
Fore
SplineSet
1500 200 m 0
 1500 310.4 1589.6 400 1700 400 c 0
 1810.4 400 1900 310.4 1900 200 c 0
 1900 89.6 1810.4 0 1700 0 c 0
 1589.6 0 1500 89.6 1500 200 c 0
0 600 m 25
 600 600 l 25
 600 1100 l 25
 700 1100 l 25
 700 600 l 25
 1300 600 l 25
 1300 1100 l 25
 1400 1100 l 25
 1400 600 l 25
 2000 600 l 25
 2000 500 l 25
 1400 500 l 25
 1400 0 l 25
 1300 0 l 25
 1300 500 l 25
 700 500 l 25
 700 0 l 25
 600 0 l 25
 600 500 l 25
 0 500 l 25
 0 600 l 25
100 200 m 0
 100 310.4 189.6 400 300 400 c 0
 410.4 400 500 310.4 500 200 c 0
 500 89.6 410.4 0 300 0 c 0
 189.6 0 100 89.6 100 200 c 0
EndSplineSet
EndChar

StartChar: uniE006
Encoding: 57350 57350 20
Width: 2000
VWidth: 0
Flags: HW
LayerCount: 2
Fore
SplineSet
800 200 m 0
 800 310.4 889.6 400 1000 400 c 0
 1110.4 400 1200 310.4 1200 200 c 0
 1200 89.6 1110.4 0 1000 0 c 0
 889.6 0 800 89.6 800 200 c 0
0 600 m 25
 600 600 l 25
 600 1100 l 25
 700 1100 l 25
 700 600 l 25
 1300 600 l 25
 1300 1100 l 25
 1400 1100 l 25
 1400 600 l 25
 2000 600 l 25
 2000 500 l 25
 1400 500 l 25
 1400 0 l 25
 1300 0 l 25
 1300 500 l 25
 700 500 l 25
 700 0 l 25
 600 0 l 25
 600 500 l 25
 0 500 l 25
 0 600 l 25
100 200 m 0
 100 310.4 189.6 400 300 400 c 0
 410.4 400 500 310.4 500 200 c 0
 500 89.6 410.4 0 300 0 c 0
 189.6 0 100 89.6 100 200 c 0
EndSplineSet
EndChar

StartChar: uniE007
Encoding: 57351 57351 21
Width: 2000
VWidth: 0
Flags: HW
LayerCount: 2
Fore
SplineSet
800 200 m 0
 800 310.4 889.6 400 1000 400 c 0
 1110.4 400 1200 310.4 1200 200 c 0
 1200 89.6 1110.4 0 1000 0 c 0
 889.6 0 800 89.6 800 200 c 0
1500 200 m 0
 1500 310.4 1589.6 400 1700 400 c 0
 1810.4 400 1900 310.4 1900 200 c 0
 1900 89.6 1810.4 0 1700 0 c 0
 1589.6 0 1500 89.6 1500 200 c 0
0 600 m 25
 600 600 l 25
 600 1100 l 25
 700 1100 l 25
 700 600 l 25
 1300 600 l 25
 1300 1100 l 25
 1400 1100 l 25
 1400 600 l 25
 2000 600 l 25
 2000 500 l 25
 1400 500 l 25
 1400 0 l 25
 1300 0 l 25
 1300 500 l 25
 700 500 l 25
 700 0 l 25
 600 0 l 25
 600 500 l 25
 0 500 l 25
 0 600 l 25
100 200 m 0
 100 310.4 189.6 400 300 400 c 0
 410.4 400 500 310.4 500 200 c 0
 500 89.6 410.4 0 300 0 c 0
 189.6 0 100 89.6 100 200 c 0
EndSplineSet
EndChar

StartChar: uniE008
Encoding: 57352 57352 22
Width: 2000
VWidth: 0
Flags: HW
LayerCount: 2
Fore
SplineSet
1500 900 m 4
 1500 1010.4 1589.6 1100 1700 1100 c 4
 1810.4 1100 1900 1010.4 1900 900 c 4
 1900 789.6 1810.4 700 1700 700 c 4
 1589.6 700 1500 789.6 1500 900 c 4
0 600 m 25
 600 600 l 25
 600 1100 l 25
 700 1100 l 25
 700 600 l 25
 1300 600 l 25
 1300 1100 l 25
 1400 1100 l 25
 1400 600 l 25
 2000 600 l 25
 2000 500 l 25
 1400 500 l 25
 1400 0 l 25
 1300 0 l 25
 1300 500 l 25
 700 500 l 25
 700 0 l 25
 600 0 l 25
 600 500 l 25
 0 500 l 25
 0 600 l 25
EndSplineSet
EndChar

StartChar: uniE009
Encoding: 57353 57353 23
Width: 2000
VWidth: 0
Flags: HW
LayerCount: 2
Fore
SplineSet
1500 200 m 0
 1500 310.4 1589.6 400 1700 400 c 0
 1810.4 400 1900 310.4 1900 200 c 0
 1900 89.6 1810.4 0 1700 0 c 0
 1589.6 0 1500 89.6 1500 200 c 0
0 600 m 25
 600 600 l 25
 600 1100 l 25
 700 1100 l 25
 700 600 l 25
 1300 600 l 25
 1300 1100 l 25
 1400 1100 l 25
 1400 600 l 25
 2000 600 l 25
 2000 500 l 25
 1400 500 l 25
 1400 0 l 25
 1300 0 l 25
 1300 500 l 25
 700 500 l 25
 700 0 l 25
 600 0 l 25
 600 500 l 25
 0 500 l 25
 0 600 l 25
1500 900 m 4
 1500 1010.4 1589.6 1100 1700 1100 c 4
 1810.4 1100 1900 1010.4 1900 900 c 4
 1900 789.6 1810.4 700 1700 700 c 4
 1589.6 700 1500 789.6 1500 900 c 4
EndSplineSet
EndChar

StartChar: uniE00A
Encoding: 57354 57354 24
Width: 2000
VWidth: 0
Flags: HW
LayerCount: 2
Fore
SplineSet
800 200 m 0
 800 310.4 889.6 400 1000 400 c 0
 1110.4 400 1200 310.4 1200 200 c 0
 1200 89.6 1110.4 0 1000 0 c 0
 889.6 0 800 89.6 800 200 c 0
0 600 m 25
 600 600 l 25
 600 1100 l 25
 700 1100 l 25
 700 600 l 25
 1300 600 l 25
 1300 1100 l 25
 1400 1100 l 25
 1400 600 l 25
 2000 600 l 25
 2000 500 l 25
 1400 500 l 25
 1400 0 l 25
 1300 0 l 25
 1300 500 l 25
 700 500 l 25
 700 0 l 25
 600 0 l 25
 600 500 l 25
 0 500 l 25
 0 600 l 25
1500 900 m 4
 1500 1010.4 1589.6 1100 1700 1100 c 4
 1810.4 1100 1900 1010.4 1900 900 c 4
 1900 789.6 1810.4 700 1700 700 c 4
 1589.6 700 1500 789.6 1500 900 c 4
EndSplineSet
EndChar

StartChar: uniE00B
Encoding: 57355 57355 25
Width: 2000
VWidth: 0
Flags: HW
LayerCount: 2
Fore
SplineSet
800 200 m 0
 800 310.4 889.6 400 1000 400 c 0
 1110.4 400 1200 310.4 1200 200 c 0
 1200 89.6 1110.4 0 1000 0 c 0
 889.6 0 800 89.6 800 200 c 0
1500 200 m 0
 1500 310.4 1589.6 400 1700 400 c 0
 1810.4 400 1900 310.4 1900 200 c 0
 1900 89.6 1810.4 0 1700 0 c 0
 1589.6 0 1500 89.6 1500 200 c 0
0 600 m 25
 600 600 l 25
 600 1100 l 25
 700 1100 l 25
 700 600 l 25
 1300 600 l 25
 1300 1100 l 25
 1400 1100 l 25
 1400 600 l 25
 2000 600 l 25
 2000 500 l 25
 1400 500 l 25
 1400 0 l 25
 1300 0 l 25
 1300 500 l 25
 700 500 l 25
 700 0 l 25
 600 0 l 25
 600 500 l 25
 0 500 l 25
 0 600 l 25
1500 900 m 4
 1500 1010.4 1589.6 1100 1700 1100 c 4
 1810.4 1100 1900 1010.4 1900 900 c 4
 1900 789.6 1810.4 700 1700 700 c 4
 1589.6 700 1500 789.6 1500 900 c 4
EndSplineSet
EndChar

StartChar: uniE00C
Encoding: 57356 57356 26
Width: 2000
VWidth: 0
Flags: HW
LayerCount: 2
Fore
SplineSet
100 200 m 0
 100 310.4 189.6 400 300 400 c 0
 410.4 400 500 310.4 500 200 c 0
 500 89.6 410.4 0 300 0 c 0
 189.6 0 100 89.6 100 200 c 0
0 600 m 25
 600 600 l 25
 600 1100 l 25
 700 1100 l 25
 700 600 l 25
 1300 600 l 25
 1300 1100 l 25
 1400 1100 l 25
 1400 600 l 25
 2000 600 l 25
 2000 500 l 25
 1400 500 l 25
 1400 0 l 25
 1300 0 l 25
 1300 500 l 25
 700 500 l 25
 700 0 l 25
 600 0 l 25
 600 500 l 25
 0 500 l 25
 0 600 l 25
1500 900 m 4
 1500 1010.4 1589.6 1100 1700 1100 c 4
 1810.4 1100 1900 1010.4 1900 900 c 4
 1900 789.6 1810.4 700 1700 700 c 4
 1589.6 700 1500 789.6 1500 900 c 4
EndSplineSet
EndChar

StartChar: uniE00D
Encoding: 57357 57357 27
Width: 2000
VWidth: 0
Flags: HW
LayerCount: 2
Fore
SplineSet
1500 200 m 0
 1500 310.4 1589.6 400 1700 400 c 0
 1810.4 400 1900 310.4 1900 200 c 0
 1900 89.6 1810.4 0 1700 0 c 0
 1589.6 0 1500 89.6 1500 200 c 0
0 600 m 25
 600 600 l 25
 600 1100 l 25
 700 1100 l 25
 700 600 l 25
 1300 600 l 25
 1300 1100 l 25
 1400 1100 l 25
 1400 600 l 25
 2000 600 l 25
 2000 500 l 25
 1400 500 l 25
 1400 0 l 25
 1300 0 l 25
 1300 500 l 25
 700 500 l 25
 700 0 l 25
 600 0 l 25
 600 500 l 25
 0 500 l 25
 0 600 l 25
100 200 m 0
 100 310.4 189.6 400 300 400 c 0
 410.4 400 500 310.4 500 200 c 0
 500 89.6 410.4 0 300 0 c 0
 189.6 0 100 89.6 100 200 c 0
1500 900 m 4
 1500 1010.4 1589.6 1100 1700 1100 c 4
 1810.4 1100 1900 1010.4 1900 900 c 4
 1900 789.6 1810.4 700 1700 700 c 4
 1589.6 700 1500 789.6 1500 900 c 4
EndSplineSet
EndChar

StartChar: uniE00E
Encoding: 57358 57358 28
Width: 2000
VWidth: 0
Flags: HW
LayerCount: 2
Fore
SplineSet
800 200 m 0
 800 310.4 889.6 400 1000 400 c 0
 1110.4 400 1200 310.4 1200 200 c 0
 1200 89.6 1110.4 0 1000 0 c 0
 889.6 0 800 89.6 800 200 c 0
0 600 m 25
 600 600 l 25
 600 1100 l 25
 700 1100 l 25
 700 600 l 25
 1300 600 l 25
 1300 1100 l 25
 1400 1100 l 25
 1400 600 l 25
 2000 600 l 25
 2000 500 l 25
 1400 500 l 25
 1400 0 l 25
 1300 0 l 25
 1300 500 l 25
 700 500 l 25
 700 0 l 25
 600 0 l 25
 600 500 l 25
 0 500 l 25
 0 600 l 25
100 200 m 0
 100 310.4 189.6 400 300 400 c 0
 410.4 400 500 310.4 500 200 c 0
 500 89.6 410.4 0 300 0 c 0
 189.6 0 100 89.6 100 200 c 0
1500 900 m 4
 1500 1010.4 1589.6 1100 1700 1100 c 4
 1810.4 1100 1900 1010.4 1900 900 c 4
 1900 789.6 1810.4 700 1700 700 c 4
 1589.6 700 1500 789.6 1500 900 c 4
EndSplineSet
EndChar

StartChar: uniE00F
Encoding: 57359 57359 29
Width: 2000
VWidth: 0
Flags: HW
LayerCount: 2
Fore
SplineSet
800 200 m 0
 800 310.4 889.6 400 1000 400 c 0
 1110.4 400 1200 310.4 1200 200 c 0
 1200 89.6 1110.4 0 1000 0 c 0
 889.6 0 800 89.6 800 200 c 0
1500 200 m 0
 1500 310.4 1589.6 400 1700 400 c 0
 1810.4 400 1900 310.4 1900 200 c 0
 1900 89.6 1810.4 0 1700 0 c 0
 1589.6 0 1500 89.6 1500 200 c 0
0 600 m 25
 600 600 l 25
 600 1100 l 25
 700 1100 l 25
 700 600 l 25
 1300 600 l 25
 1300 1100 l 25
 1400 1100 l 25
 1400 600 l 25
 2000 600 l 25
 2000 500 l 25
 1400 500 l 25
 1400 0 l 25
 1300 0 l 25
 1300 500 l 25
 700 500 l 25
 700 0 l 25
 600 0 l 25
 600 500 l 25
 0 500 l 25
 0 600 l 25
100 200 m 0
 100 310.4 189.6 400 300 400 c 0
 410.4 400 500 310.4 500 200 c 0
 500 89.6 410.4 0 300 0 c 0
 189.6 0 100 89.6 100 200 c 0
1500 900 m 4
 1500 1010.4 1589.6 1100 1700 1100 c 4
 1810.4 1100 1900 1010.4 1900 900 c 4
 1900 789.6 1810.4 700 1700 700 c 4
 1589.6 700 1500 789.6 1500 900 c 4
EndSplineSet
EndChar

StartChar: uniE010
Encoding: 57360 57360 30
Width: 2000
VWidth: 0
Flags: HW
LayerCount: 2
Fore
SplineSet
800 900 m 4
 800 1010.4 889.6 1100 1000 1100 c 4
 1110.4 1100 1200 1010.4 1200 900 c 4
 1200 789.6 1110.4 700 1000 700 c 4
 889.6 700 800 789.6 800 900 c 4
0 600 m 25
 600 600 l 25
 600 1100 l 25
 700 1100 l 25
 700 600 l 25
 1300 600 l 25
 1300 1100 l 25
 1400 1100 l 25
 1400 600 l 25
 2000 600 l 25
 2000 500 l 25
 1400 500 l 25
 1400 0 l 25
 1300 0 l 25
 1300 500 l 25
 700 500 l 25
 700 0 l 25
 600 0 l 25
 600 500 l 25
 0 500 l 25
 0 600 l 25
EndSplineSet
EndChar

StartChar: uniE011
Encoding: 57361 57361 31
Width: 2000
VWidth: 0
Flags: HW
LayerCount: 2
Fore
SplineSet
1500 200 m 0
 1500 310.4 1589.6 400 1700 400 c 0
 1810.4 400 1900 310.4 1900 200 c 0
 1900 89.6 1810.4 0 1700 0 c 0
 1589.6 0 1500 89.6 1500 200 c 0
0 600 m 25
 600 600 l 25
 600 1100 l 25
 700 1100 l 25
 700 600 l 25
 1300 600 l 25
 1300 1100 l 25
 1400 1100 l 25
 1400 600 l 25
 2000 600 l 25
 2000 500 l 25
 1400 500 l 25
 1400 0 l 25
 1300 0 l 25
 1300 500 l 25
 700 500 l 25
 700 0 l 25
 600 0 l 25
 600 500 l 25
 0 500 l 25
 0 600 l 25
800 900 m 4
 800 1010.4 889.6 1100 1000 1100 c 4
 1110.4 1100 1200 1010.4 1200 900 c 4
 1200 789.6 1110.4 700 1000 700 c 4
 889.6 700 800 789.6 800 900 c 4
EndSplineSet
EndChar

StartChar: uniE012
Encoding: 57362 57362 32
Width: 2000
VWidth: 0
Flags: HW
LayerCount: 2
Fore
SplineSet
800 200 m 0
 800 310.4 889.6 400 1000 400 c 0
 1110.4 400 1200 310.4 1200 200 c 0
 1200 89.6 1110.4 0 1000 0 c 0
 889.6 0 800 89.6 800 200 c 0
0 600 m 25
 600 600 l 25
 600 1100 l 25
 700 1100 l 25
 700 600 l 25
 1300 600 l 25
 1300 1100 l 25
 1400 1100 l 25
 1400 600 l 25
 2000 600 l 25
 2000 500 l 25
 1400 500 l 25
 1400 0 l 25
 1300 0 l 25
 1300 500 l 25
 700 500 l 25
 700 0 l 25
 600 0 l 25
 600 500 l 25
 0 500 l 25
 0 600 l 25
800 900 m 4
 800 1010.4 889.6 1100 1000 1100 c 4
 1110.4 1100 1200 1010.4 1200 900 c 4
 1200 789.6 1110.4 700 1000 700 c 4
 889.6 700 800 789.6 800 900 c 4
EndSplineSet
EndChar

StartChar: uniE013
Encoding: 57363 57363 33
Width: 2000
VWidth: 0
Flags: HW
LayerCount: 2
Fore
SplineSet
800 200 m 0
 800 310.4 889.6 400 1000 400 c 0
 1110.4 400 1200 310.4 1200 200 c 0
 1200 89.6 1110.4 0 1000 0 c 0
 889.6 0 800 89.6 800 200 c 0
1500 200 m 0
 1500 310.4 1589.6 400 1700 400 c 0
 1810.4 400 1900 310.4 1900 200 c 0
 1900 89.6 1810.4 0 1700 0 c 0
 1589.6 0 1500 89.6 1500 200 c 0
0 600 m 25
 600 600 l 25
 600 1100 l 25
 700 1100 l 25
 700 600 l 25
 1300 600 l 25
 1300 1100 l 25
 1400 1100 l 25
 1400 600 l 25
 2000 600 l 25
 2000 500 l 25
 1400 500 l 25
 1400 0 l 25
 1300 0 l 25
 1300 500 l 25
 700 500 l 25
 700 0 l 25
 600 0 l 25
 600 500 l 25
 0 500 l 25
 0 600 l 25
800 900 m 4
 800 1010.4 889.6 1100 1000 1100 c 4
 1110.4 1100 1200 1010.4 1200 900 c 4
 1200 789.6 1110.4 700 1000 700 c 4
 889.6 700 800 789.6 800 900 c 4
EndSplineSet
EndChar

StartChar: uniE014
Encoding: 57364 57364 34
Width: 2000
VWidth: 0
Flags: HW
LayerCount: 2
Fore
SplineSet
100 200 m 0
 100 310.4 189.6 400 300 400 c 0
 410.4 400 500 310.4 500 200 c 0
 500 89.6 410.4 0 300 0 c 0
 189.6 0 100 89.6 100 200 c 0
0 600 m 25
 600 600 l 25
 600 1100 l 25
 700 1100 l 25
 700 600 l 25
 1300 600 l 25
 1300 1100 l 25
 1400 1100 l 25
 1400 600 l 25
 2000 600 l 25
 2000 500 l 25
 1400 500 l 25
 1400 0 l 25
 1300 0 l 25
 1300 500 l 25
 700 500 l 25
 700 0 l 25
 600 0 l 25
 600 500 l 25
 0 500 l 25
 0 600 l 25
800 900 m 4
 800 1010.4 889.6 1100 1000 1100 c 4
 1110.4 1100 1200 1010.4 1200 900 c 4
 1200 789.6 1110.4 700 1000 700 c 4
 889.6 700 800 789.6 800 900 c 4
EndSplineSet
EndChar

StartChar: uniE015
Encoding: 57365 57365 35
Width: 2000
VWidth: 0
Flags: HW
LayerCount: 2
Fore
SplineSet
1500 200 m 0
 1500 310.4 1589.6 400 1700 400 c 0
 1810.4 400 1900 310.4 1900 200 c 0
 1900 89.6 1810.4 0 1700 0 c 0
 1589.6 0 1500 89.6 1500 200 c 0
0 600 m 25
 600 600 l 25
 600 1100 l 25
 700 1100 l 25
 700 600 l 25
 1300 600 l 25
 1300 1100 l 25
 1400 1100 l 25
 1400 600 l 25
 2000 600 l 25
 2000 500 l 25
 1400 500 l 25
 1400 0 l 25
 1300 0 l 25
 1300 500 l 25
 700 500 l 25
 700 0 l 25
 600 0 l 25
 600 500 l 25
 0 500 l 25
 0 600 l 25
100 200 m 0
 100 310.4 189.6 400 300 400 c 0
 410.4 400 500 310.4 500 200 c 0
 500 89.6 410.4 0 300 0 c 0
 189.6 0 100 89.6 100 200 c 0
800 900 m 4
 800 1010.4 889.6 1100 1000 1100 c 4
 1110.4 1100 1200 1010.4 1200 900 c 4
 1200 789.6 1110.4 700 1000 700 c 4
 889.6 700 800 789.6 800 900 c 4
EndSplineSet
EndChar

StartChar: uniE016
Encoding: 57366 57366 36
Width: 2000
VWidth: 0
Flags: HW
LayerCount: 2
Fore
SplineSet
800 200 m 0
 800 310.4 889.6 400 1000 400 c 0
 1110.4 400 1200 310.4 1200 200 c 0
 1200 89.6 1110.4 0 1000 0 c 0
 889.6 0 800 89.6 800 200 c 0
0 600 m 25
 600 600 l 25
 600 1100 l 25
 700 1100 l 25
 700 600 l 25
 1300 600 l 25
 1300 1100 l 25
 1400 1100 l 25
 1400 600 l 25
 2000 600 l 25
 2000 500 l 25
 1400 500 l 25
 1400 0 l 25
 1300 0 l 25
 1300 500 l 25
 700 500 l 25
 700 0 l 25
 600 0 l 25
 600 500 l 25
 0 500 l 25
 0 600 l 25
100 200 m 0
 100 310.4 189.6 400 300 400 c 0
 410.4 400 500 310.4 500 200 c 0
 500 89.6 410.4 0 300 0 c 0
 189.6 0 100 89.6 100 200 c 0
800 900 m 4
 800 1010.4 889.6 1100 1000 1100 c 4
 1110.4 1100 1200 1010.4 1200 900 c 4
 1200 789.6 1110.4 700 1000 700 c 4
 889.6 700 800 789.6 800 900 c 4
EndSplineSet
EndChar

StartChar: uniE017
Encoding: 57367 57367 37
Width: 2000
VWidth: 0
Flags: HW
LayerCount: 2
Fore
SplineSet
800 200 m 0
 800 310.4 889.6 400 1000 400 c 0
 1110.4 400 1200 310.4 1200 200 c 0
 1200 89.6 1110.4 0 1000 0 c 0
 889.6 0 800 89.6 800 200 c 0
1500 200 m 0
 1500 310.4 1589.6 400 1700 400 c 0
 1810.4 400 1900 310.4 1900 200 c 0
 1900 89.6 1810.4 0 1700 0 c 0
 1589.6 0 1500 89.6 1500 200 c 0
0 600 m 25
 600 600 l 25
 600 1100 l 25
 700 1100 l 25
 700 600 l 25
 1300 600 l 25
 1300 1100 l 25
 1400 1100 l 25
 1400 600 l 25
 2000 600 l 25
 2000 500 l 25
 1400 500 l 25
 1400 0 l 25
 1300 0 l 25
 1300 500 l 25
 700 500 l 25
 700 0 l 25
 600 0 l 25
 600 500 l 25
 0 500 l 25
 0 600 l 25
100 200 m 0
 100 310.4 189.6 400 300 400 c 0
 410.4 400 500 310.4 500 200 c 0
 500 89.6 410.4 0 300 0 c 0
 189.6 0 100 89.6 100 200 c 0
800 900 m 4
 800 1010.4 889.6 1100 1000 1100 c 4
 1110.4 1100 1200 1010.4 1200 900 c 4
 1200 789.6 1110.4 700 1000 700 c 4
 889.6 700 800 789.6 800 900 c 4
EndSplineSet
EndChar

StartChar: uniE018
Encoding: 57368 57368 38
Width: 2000
VWidth: 0
Flags: HW
LayerCount: 2
Fore
SplineSet
1500 900 m 4
 1500 1010.4 1589.6 1100 1700 1100 c 4
 1810.4 1100 1900 1010.4 1900 900 c 4
 1900 789.6 1810.4 700 1700 700 c 4
 1589.6 700 1500 789.6 1500 900 c 4
0 600 m 25
 600 600 l 25
 600 1100 l 25
 700 1100 l 25
 700 600 l 25
 1300 600 l 25
 1300 1100 l 25
 1400 1100 l 25
 1400 600 l 25
 2000 600 l 25
 2000 500 l 25
 1400 500 l 25
 1400 0 l 25
 1300 0 l 25
 1300 500 l 25
 700 500 l 25
 700 0 l 25
 600 0 l 25
 600 500 l 25
 0 500 l 25
 0 600 l 25
800 900 m 4
 800 1010.4 889.6 1100 1000 1100 c 4
 1110.4 1100 1200 1010.4 1200 900 c 4
 1200 789.6 1110.4 700 1000 700 c 4
 889.6 700 800 789.6 800 900 c 4
EndSplineSet
EndChar

StartChar: uniE019
Encoding: 57369 57369 39
Width: 2000
VWidth: 0
Flags: HW
LayerCount: 2
Fore
SplineSet
1500 200 m 0
 1500 310.4 1589.6 400 1700 400 c 0
 1810.4 400 1900 310.4 1900 200 c 0
 1900 89.6 1810.4 0 1700 0 c 0
 1589.6 0 1500 89.6 1500 200 c 0
0 600 m 25
 600 600 l 25
 600 1100 l 25
 700 1100 l 25
 700 600 l 25
 1300 600 l 25
 1300 1100 l 25
 1400 1100 l 25
 1400 600 l 25
 2000 600 l 25
 2000 500 l 25
 1400 500 l 25
 1400 0 l 25
 1300 0 l 25
 1300 500 l 25
 700 500 l 25
 700 0 l 25
 600 0 l 25
 600 500 l 25
 0 500 l 25
 0 600 l 25
1500 900 m 4
 1500 1010.4 1589.6 1100 1700 1100 c 4
 1810.4 1100 1900 1010.4 1900 900 c 4
 1900 789.6 1810.4 700 1700 700 c 4
 1589.6 700 1500 789.6 1500 900 c 4
800 900 m 4
 800 1010.4 889.6 1100 1000 1100 c 4
 1110.4 1100 1200 1010.4 1200 900 c 4
 1200 789.6 1110.4 700 1000 700 c 4
 889.6 700 800 789.6 800 900 c 4
EndSplineSet
EndChar

StartChar: uniE01A
Encoding: 57370 57370 40
Width: 2000
VWidth: 0
Flags: HW
LayerCount: 2
Fore
SplineSet
800 200 m 0
 800 310.4 889.6 400 1000 400 c 0
 1110.4 400 1200 310.4 1200 200 c 0
 1200 89.6 1110.4 0 1000 0 c 0
 889.6 0 800 89.6 800 200 c 0
0 600 m 25
 600 600 l 25
 600 1100 l 25
 700 1100 l 25
 700 600 l 25
 1300 600 l 25
 1300 1100 l 25
 1400 1100 l 25
 1400 600 l 25
 2000 600 l 25
 2000 500 l 25
 1400 500 l 25
 1400 0 l 25
 1300 0 l 25
 1300 500 l 25
 700 500 l 25
 700 0 l 25
 600 0 l 25
 600 500 l 25
 0 500 l 25
 0 600 l 25
1500 900 m 4
 1500 1010.4 1589.6 1100 1700 1100 c 4
 1810.4 1100 1900 1010.4 1900 900 c 4
 1900 789.6 1810.4 700 1700 700 c 4
 1589.6 700 1500 789.6 1500 900 c 4
800 900 m 4
 800 1010.4 889.6 1100 1000 1100 c 4
 1110.4 1100 1200 1010.4 1200 900 c 4
 1200 789.6 1110.4 700 1000 700 c 4
 889.6 700 800 789.6 800 900 c 4
EndSplineSet
EndChar

StartChar: uniE01B
Encoding: 57371 57371 41
Width: 2000
VWidth: 0
Flags: HW
LayerCount: 2
Fore
SplineSet
800 200 m 0
 800 310.4 889.6 400 1000 400 c 0
 1110.4 400 1200 310.4 1200 200 c 0
 1200 89.6 1110.4 0 1000 0 c 0
 889.6 0 800 89.6 800 200 c 0
1500 200 m 0
 1500 310.4 1589.6 400 1700 400 c 0
 1810.4 400 1900 310.4 1900 200 c 0
 1900 89.6 1810.4 0 1700 0 c 0
 1589.6 0 1500 89.6 1500 200 c 0
0 600 m 25
 600 600 l 25
 600 1100 l 25
 700 1100 l 25
 700 600 l 25
 1300 600 l 25
 1300 1100 l 25
 1400 1100 l 25
 1400 600 l 25
 2000 600 l 25
 2000 500 l 25
 1400 500 l 25
 1400 0 l 25
 1300 0 l 25
 1300 500 l 25
 700 500 l 25
 700 0 l 25
 600 0 l 25
 600 500 l 25
 0 500 l 25
 0 600 l 25
1500 900 m 4
 1500 1010.4 1589.6 1100 1700 1100 c 4
 1810.4 1100 1900 1010.4 1900 900 c 4
 1900 789.6 1810.4 700 1700 700 c 4
 1589.6 700 1500 789.6 1500 900 c 4
800 900 m 4
 800 1010.4 889.6 1100 1000 1100 c 4
 1110.4 1100 1200 1010.4 1200 900 c 4
 1200 789.6 1110.4 700 1000 700 c 4
 889.6 700 800 789.6 800 900 c 4
EndSplineSet
EndChar

StartChar: uniE01C
Encoding: 57372 57372 42
Width: 2000
VWidth: 0
Flags: HW
LayerCount: 2
Fore
SplineSet
100 200 m 0
 100 310.4 189.6 400 300 400 c 0
 410.4 400 500 310.4 500 200 c 0
 500 89.6 410.4 0 300 0 c 0
 189.6 0 100 89.6 100 200 c 0
0 600 m 25
 600 600 l 25
 600 1100 l 25
 700 1100 l 25
 700 600 l 25
 1300 600 l 25
 1300 1100 l 25
 1400 1100 l 25
 1400 600 l 25
 2000 600 l 25
 2000 500 l 25
 1400 500 l 25
 1400 0 l 25
 1300 0 l 25
 1300 500 l 25
 700 500 l 25
 700 0 l 25
 600 0 l 25
 600 500 l 25
 0 500 l 25
 0 600 l 25
1500 900 m 4
 1500 1010.4 1589.6 1100 1700 1100 c 4
 1810.4 1100 1900 1010.4 1900 900 c 4
 1900 789.6 1810.4 700 1700 700 c 4
 1589.6 700 1500 789.6 1500 900 c 4
800 900 m 4
 800 1010.4 889.6 1100 1000 1100 c 4
 1110.4 1100 1200 1010.4 1200 900 c 4
 1200 789.6 1110.4 700 1000 700 c 4
 889.6 700 800 789.6 800 900 c 4
EndSplineSet
EndChar

StartChar: uniE01D
Encoding: 57373 57373 43
Width: 2000
VWidth: 0
Flags: HW
LayerCount: 2
Fore
SplineSet
1500 200 m 0
 1500 310.4 1589.6 400 1700 400 c 0
 1810.4 400 1900 310.4 1900 200 c 0
 1900 89.6 1810.4 0 1700 0 c 0
 1589.6 0 1500 89.6 1500 200 c 0
0 600 m 25
 600 600 l 25
 600 1100 l 25
 700 1100 l 25
 700 600 l 25
 1300 600 l 25
 1300 1100 l 25
 1400 1100 l 25
 1400 600 l 25
 2000 600 l 25
 2000 500 l 25
 1400 500 l 25
 1400 0 l 25
 1300 0 l 25
 1300 500 l 25
 700 500 l 25
 700 0 l 25
 600 0 l 25
 600 500 l 25
 0 500 l 25
 0 600 l 25
100 200 m 0
 100 310.4 189.6 400 300 400 c 0
 410.4 400 500 310.4 500 200 c 0
 500 89.6 410.4 0 300 0 c 0
 189.6 0 100 89.6 100 200 c 0
1500 900 m 4
 1500 1010.4 1589.6 1100 1700 1100 c 4
 1810.4 1100 1900 1010.4 1900 900 c 4
 1900 789.6 1810.4 700 1700 700 c 4
 1589.6 700 1500 789.6 1500 900 c 4
800 900 m 4
 800 1010.4 889.6 1100 1000 1100 c 4
 1110.4 1100 1200 1010.4 1200 900 c 4
 1200 789.6 1110.4 700 1000 700 c 4
 889.6 700 800 789.6 800 900 c 4
EndSplineSet
EndChar

StartChar: uniE01E
Encoding: 57374 57374 44
Width: 2000
VWidth: 0
Flags: HW
LayerCount: 2
Fore
SplineSet
800 200 m 0
 800 310.4 889.6 400 1000 400 c 0
 1110.4 400 1200 310.4 1200 200 c 0
 1200 89.6 1110.4 0 1000 0 c 0
 889.6 0 800 89.6 800 200 c 0
0 600 m 25
 600 600 l 25
 600 1100 l 25
 700 1100 l 25
 700 600 l 25
 1300 600 l 25
 1300 1100 l 25
 1400 1100 l 25
 1400 600 l 25
 2000 600 l 25
 2000 500 l 25
 1400 500 l 25
 1400 0 l 25
 1300 0 l 25
 1300 500 l 25
 700 500 l 25
 700 0 l 25
 600 0 l 25
 600 500 l 25
 0 500 l 25
 0 600 l 25
100 200 m 0
 100 310.4 189.6 400 300 400 c 0
 410.4 400 500 310.4 500 200 c 0
 500 89.6 410.4 0 300 0 c 0
 189.6 0 100 89.6 100 200 c 0
1500 900 m 4
 1500 1010.4 1589.6 1100 1700 1100 c 4
 1810.4 1100 1900 1010.4 1900 900 c 4
 1900 789.6 1810.4 700 1700 700 c 4
 1589.6 700 1500 789.6 1500 900 c 4
800 900 m 4
 800 1010.4 889.6 1100 1000 1100 c 4
 1110.4 1100 1200 1010.4 1200 900 c 4
 1200 789.6 1110.4 700 1000 700 c 4
 889.6 700 800 789.6 800 900 c 4
EndSplineSet
EndChar

StartChar: uniE01F
Encoding: 57375 57375 45
Width: 2000
VWidth: 0
Flags: HW
LayerCount: 2
Fore
SplineSet
800 200 m 0
 800 310.4 889.6 400 1000 400 c 0
 1110.4 400 1200 310.4 1200 200 c 0
 1200 89.6 1110.4 0 1000 0 c 0
 889.6 0 800 89.6 800 200 c 0
1500 200 m 0
 1500 310.4 1589.6 400 1700 400 c 0
 1810.4 400 1900 310.4 1900 200 c 0
 1900 89.6 1810.4 0 1700 0 c 0
 1589.6 0 1500 89.6 1500 200 c 0
0 600 m 25
 600 600 l 25
 600 1100 l 25
 700 1100 l 25
 700 600 l 25
 1300 600 l 25
 1300 1100 l 25
 1400 1100 l 25
 1400 600 l 25
 2000 600 l 25
 2000 500 l 25
 1400 500 l 25
 1400 0 l 25
 1300 0 l 25
 1300 500 l 25
 700 500 l 25
 700 0 l 25
 600 0 l 25
 600 500 l 25
 0 500 l 25
 0 600 l 25
100 200 m 0
 100 310.4 189.6 400 300 400 c 0
 410.4 400 500 310.4 500 200 c 0
 500 89.6 410.4 0 300 0 c 0
 189.6 0 100 89.6 100 200 c 0
1500 900 m 4
 1500 1010.4 1589.6 1100 1700 1100 c 4
 1810.4 1100 1900 1010.4 1900 900 c 4
 1900 789.6 1810.4 700 1700 700 c 4
 1589.6 700 1500 789.6 1500 900 c 4
800 900 m 4
 800 1010.4 889.6 1100 1000 1100 c 4
 1110.4 1100 1200 1010.4 1200 900 c 4
 1200 789.6 1110.4 700 1000 700 c 4
 889.6 700 800 789.6 800 900 c 4
EndSplineSet
EndChar

StartChar: uniE020
Encoding: 57376 57376 46
Width: 2000
VWidth: 0
Flags: HW
LayerCount: 2
Fore
SplineSet
100 900 m 4
 100 1010.4 189.6 1100 300 1100 c 4
 410.4 1100 500 1010.4 500 900 c 4
 500 789.6 410.4 700 300 700 c 4
 189.6 700 100 789.6 100 900 c 4
0 600 m 25
 600 600 l 25
 600 1100 l 25
 700 1100 l 25
 700 600 l 25
 1300 600 l 25
 1300 1100 l 25
 1400 1100 l 25
 1400 600 l 25
 2000 600 l 25
 2000 500 l 25
 1400 500 l 25
 1400 0 l 25
 1300 0 l 25
 1300 500 l 25
 700 500 l 25
 700 0 l 25
 600 0 l 25
 600 500 l 25
 0 500 l 25
 0 600 l 25
EndSplineSet
EndChar

StartChar: uniE021
Encoding: 57377 57377 47
Width: 2000
VWidth: 0
Flags: HW
LayerCount: 2
Fore
SplineSet
1500 200 m 0
 1500 310.4 1589.6 400 1700 400 c 0
 1810.4 400 1900 310.4 1900 200 c 0
 1900 89.6 1810.4 0 1700 0 c 0
 1589.6 0 1500 89.6 1500 200 c 0
0 600 m 25
 600 600 l 25
 600 1100 l 25
 700 1100 l 25
 700 600 l 25
 1300 600 l 25
 1300 1100 l 25
 1400 1100 l 25
 1400 600 l 25
 2000 600 l 25
 2000 500 l 25
 1400 500 l 25
 1400 0 l 25
 1300 0 l 25
 1300 500 l 25
 700 500 l 25
 700 0 l 25
 600 0 l 25
 600 500 l 25
 0 500 l 25
 0 600 l 25
100 900 m 4
 100 1010.4 189.6 1100 300 1100 c 4
 410.4 1100 500 1010.4 500 900 c 4
 500 789.6 410.4 700 300 700 c 4
 189.6 700 100 789.6 100 900 c 4
EndSplineSet
EndChar

StartChar: uniE022
Encoding: 57378 57378 48
Width: 2000
VWidth: 0
Flags: HW
LayerCount: 2
Fore
SplineSet
800 200 m 0
 800 310.4 889.6 400 1000 400 c 0
 1110.4 400 1200 310.4 1200 200 c 0
 1200 89.6 1110.4 0 1000 0 c 0
 889.6 0 800 89.6 800 200 c 0
0 600 m 25
 600 600 l 25
 600 1100 l 25
 700 1100 l 25
 700 600 l 25
 1300 600 l 25
 1300 1100 l 25
 1400 1100 l 25
 1400 600 l 25
 2000 600 l 25
 2000 500 l 25
 1400 500 l 25
 1400 0 l 25
 1300 0 l 25
 1300 500 l 25
 700 500 l 25
 700 0 l 25
 600 0 l 25
 600 500 l 25
 0 500 l 25
 0 600 l 25
100 900 m 4
 100 1010.4 189.6 1100 300 1100 c 4
 410.4 1100 500 1010.4 500 900 c 4
 500 789.6 410.4 700 300 700 c 4
 189.6 700 100 789.6 100 900 c 4
EndSplineSet
EndChar

StartChar: uniE023
Encoding: 57379 57379 49
Width: 2000
VWidth: 0
Flags: HW
LayerCount: 2
Fore
SplineSet
800 200 m 0
 800 310.4 889.6 400 1000 400 c 0
 1110.4 400 1200 310.4 1200 200 c 0
 1200 89.6 1110.4 0 1000 0 c 0
 889.6 0 800 89.6 800 200 c 0
1500 200 m 0
 1500 310.4 1589.6 400 1700 400 c 0
 1810.4 400 1900 310.4 1900 200 c 0
 1900 89.6 1810.4 0 1700 0 c 0
 1589.6 0 1500 89.6 1500 200 c 0
0 600 m 25
 600 600 l 25
 600 1100 l 25
 700 1100 l 25
 700 600 l 25
 1300 600 l 25
 1300 1100 l 25
 1400 1100 l 25
 1400 600 l 25
 2000 600 l 25
 2000 500 l 25
 1400 500 l 25
 1400 0 l 25
 1300 0 l 25
 1300 500 l 25
 700 500 l 25
 700 0 l 25
 600 0 l 25
 600 500 l 25
 0 500 l 25
 0 600 l 25
100 900 m 4
 100 1010.4 189.6 1100 300 1100 c 4
 410.4 1100 500 1010.4 500 900 c 4
 500 789.6 410.4 700 300 700 c 4
 189.6 700 100 789.6 100 900 c 4
EndSplineSet
EndChar

StartChar: uniE024
Encoding: 57380 57380 50
Width: 2000
VWidth: 0
Flags: HW
LayerCount: 2
Fore
SplineSet
100 200 m 0
 100 310.4 189.6 400 300 400 c 0
 410.4 400 500 310.4 500 200 c 0
 500 89.6 410.4 0 300 0 c 0
 189.6 0 100 89.6 100 200 c 0
0 600 m 25
 600 600 l 25
 600 1100 l 25
 700 1100 l 25
 700 600 l 25
 1300 600 l 25
 1300 1100 l 25
 1400 1100 l 25
 1400 600 l 25
 2000 600 l 25
 2000 500 l 25
 1400 500 l 25
 1400 0 l 25
 1300 0 l 25
 1300 500 l 25
 700 500 l 25
 700 0 l 25
 600 0 l 25
 600 500 l 25
 0 500 l 25
 0 600 l 25
100 900 m 4
 100 1010.4 189.6 1100 300 1100 c 4
 410.4 1100 500 1010.4 500 900 c 4
 500 789.6 410.4 700 300 700 c 4
 189.6 700 100 789.6 100 900 c 4
EndSplineSet
EndChar

StartChar: uniE025
Encoding: 57381 57381 51
Width: 2000
VWidth: 0
Flags: HW
LayerCount: 2
Fore
SplineSet
1500 200 m 0
 1500 310.4 1589.6 400 1700 400 c 0
 1810.4 400 1900 310.4 1900 200 c 0
 1900 89.6 1810.4 0 1700 0 c 0
 1589.6 0 1500 89.6 1500 200 c 0
0 600 m 25
 600 600 l 25
 600 1100 l 25
 700 1100 l 25
 700 600 l 25
 1300 600 l 25
 1300 1100 l 25
 1400 1100 l 25
 1400 600 l 25
 2000 600 l 25
 2000 500 l 25
 1400 500 l 25
 1400 0 l 25
 1300 0 l 25
 1300 500 l 25
 700 500 l 25
 700 0 l 25
 600 0 l 25
 600 500 l 25
 0 500 l 25
 0 600 l 25
100 200 m 0
 100 310.4 189.6 400 300 400 c 0
 410.4 400 500 310.4 500 200 c 0
 500 89.6 410.4 0 300 0 c 0
 189.6 0 100 89.6 100 200 c 0
100 900 m 4
 100 1010.4 189.6 1100 300 1100 c 4
 410.4 1100 500 1010.4 500 900 c 4
 500 789.6 410.4 700 300 700 c 4
 189.6 700 100 789.6 100 900 c 4
EndSplineSet
EndChar

StartChar: uniE026
Encoding: 57382 57382 52
Width: 2000
VWidth: 0
Flags: HW
LayerCount: 2
Fore
SplineSet
800 200 m 0
 800 310.4 889.6 400 1000 400 c 0
 1110.4 400 1200 310.4 1200 200 c 0
 1200 89.6 1110.4 0 1000 0 c 0
 889.6 0 800 89.6 800 200 c 0
0 600 m 25
 600 600 l 25
 600 1100 l 25
 700 1100 l 25
 700 600 l 25
 1300 600 l 25
 1300 1100 l 25
 1400 1100 l 25
 1400 600 l 25
 2000 600 l 25
 2000 500 l 25
 1400 500 l 25
 1400 0 l 25
 1300 0 l 25
 1300 500 l 25
 700 500 l 25
 700 0 l 25
 600 0 l 25
 600 500 l 25
 0 500 l 25
 0 600 l 25
100 200 m 0
 100 310.4 189.6 400 300 400 c 0
 410.4 400 500 310.4 500 200 c 0
 500 89.6 410.4 0 300 0 c 0
 189.6 0 100 89.6 100 200 c 0
100 900 m 4
 100 1010.4 189.6 1100 300 1100 c 4
 410.4 1100 500 1010.4 500 900 c 4
 500 789.6 410.4 700 300 700 c 4
 189.6 700 100 789.6 100 900 c 4
EndSplineSet
EndChar

StartChar: uniE027
Encoding: 57383 57383 53
Width: 2000
VWidth: 0
Flags: HW
LayerCount: 2
Fore
SplineSet
800 200 m 0
 800 310.4 889.6 400 1000 400 c 0
 1110.4 400 1200 310.4 1200 200 c 0
 1200 89.6 1110.4 0 1000 0 c 0
 889.6 0 800 89.6 800 200 c 0
1500 200 m 0
 1500 310.4 1589.6 400 1700 400 c 0
 1810.4 400 1900 310.4 1900 200 c 0
 1900 89.6 1810.4 0 1700 0 c 0
 1589.6 0 1500 89.6 1500 200 c 0
0 600 m 25
 600 600 l 25
 600 1100 l 25
 700 1100 l 25
 700 600 l 25
 1300 600 l 25
 1300 1100 l 25
 1400 1100 l 25
 1400 600 l 25
 2000 600 l 25
 2000 500 l 25
 1400 500 l 25
 1400 0 l 25
 1300 0 l 25
 1300 500 l 25
 700 500 l 25
 700 0 l 25
 600 0 l 25
 600 500 l 25
 0 500 l 25
 0 600 l 25
100 200 m 0
 100 310.4 189.6 400 300 400 c 0
 410.4 400 500 310.4 500 200 c 0
 500 89.6 410.4 0 300 0 c 0
 189.6 0 100 89.6 100 200 c 0
100 900 m 4
 100 1010.4 189.6 1100 300 1100 c 4
 410.4 1100 500 1010.4 500 900 c 4
 500 789.6 410.4 700 300 700 c 4
 189.6 700 100 789.6 100 900 c 4
EndSplineSet
EndChar

StartChar: uniE028
Encoding: 57384 57384 54
Width: 2000
VWidth: 0
Flags: HW
LayerCount: 2
Fore
SplineSet
1500 900 m 4
 1500 1010.4 1589.6 1100 1700 1100 c 4
 1810.4 1100 1900 1010.4 1900 900 c 4
 1900 789.6 1810.4 700 1700 700 c 4
 1589.6 700 1500 789.6 1500 900 c 4
0 600 m 25
 600 600 l 25
 600 1100 l 25
 700 1100 l 25
 700 600 l 25
 1300 600 l 25
 1300 1100 l 25
 1400 1100 l 25
 1400 600 l 25
 2000 600 l 25
 2000 500 l 25
 1400 500 l 25
 1400 0 l 25
 1300 0 l 25
 1300 500 l 25
 700 500 l 25
 700 0 l 25
 600 0 l 25
 600 500 l 25
 0 500 l 25
 0 600 l 25
100 900 m 4
 100 1010.4 189.6 1100 300 1100 c 4
 410.4 1100 500 1010.4 500 900 c 4
 500 789.6 410.4 700 300 700 c 4
 189.6 700 100 789.6 100 900 c 4
EndSplineSet
EndChar

StartChar: uniE029
Encoding: 57385 57385 55
Width: 2000
VWidth: 0
Flags: HW
LayerCount: 2
Fore
SplineSet
1500 200 m 0
 1500 310.4 1589.6 400 1700 400 c 0
 1810.4 400 1900 310.4 1900 200 c 0
 1900 89.6 1810.4 0 1700 0 c 0
 1589.6 0 1500 89.6 1500 200 c 0
0 600 m 25
 600 600 l 25
 600 1100 l 25
 700 1100 l 25
 700 600 l 25
 1300 600 l 25
 1300 1100 l 25
 1400 1100 l 25
 1400 600 l 25
 2000 600 l 25
 2000 500 l 25
 1400 500 l 25
 1400 0 l 25
 1300 0 l 25
 1300 500 l 25
 700 500 l 25
 700 0 l 25
 600 0 l 25
 600 500 l 25
 0 500 l 25
 0 600 l 25
1500 900 m 4
 1500 1010.4 1589.6 1100 1700 1100 c 4
 1810.4 1100 1900 1010.4 1900 900 c 4
 1900 789.6 1810.4 700 1700 700 c 4
 1589.6 700 1500 789.6 1500 900 c 4
100 900 m 4
 100 1010.4 189.6 1100 300 1100 c 4
 410.4 1100 500 1010.4 500 900 c 4
 500 789.6 410.4 700 300 700 c 4
 189.6 700 100 789.6 100 900 c 4
EndSplineSet
EndChar

StartChar: uniE02A
Encoding: 57386 57386 56
Width: 2000
VWidth: 0
Flags: HW
LayerCount: 2
Fore
SplineSet
800 200 m 0
 800 310.4 889.6 400 1000 400 c 0
 1110.4 400 1200 310.4 1200 200 c 0
 1200 89.6 1110.4 0 1000 0 c 0
 889.6 0 800 89.6 800 200 c 0
0 600 m 25
 600 600 l 25
 600 1100 l 25
 700 1100 l 25
 700 600 l 25
 1300 600 l 25
 1300 1100 l 25
 1400 1100 l 25
 1400 600 l 25
 2000 600 l 25
 2000 500 l 25
 1400 500 l 25
 1400 0 l 25
 1300 0 l 25
 1300 500 l 25
 700 500 l 25
 700 0 l 25
 600 0 l 25
 600 500 l 25
 0 500 l 25
 0 600 l 25
1500 900 m 4
 1500 1010.4 1589.6 1100 1700 1100 c 4
 1810.4 1100 1900 1010.4 1900 900 c 4
 1900 789.6 1810.4 700 1700 700 c 4
 1589.6 700 1500 789.6 1500 900 c 4
100 900 m 4
 100 1010.4 189.6 1100 300 1100 c 4
 410.4 1100 500 1010.4 500 900 c 4
 500 789.6 410.4 700 300 700 c 4
 189.6 700 100 789.6 100 900 c 4
EndSplineSet
EndChar

StartChar: uniE02B
Encoding: 57387 57387 57
Width: 2000
VWidth: 0
Flags: HW
LayerCount: 2
Fore
SplineSet
800 200 m 0
 800 310.4 889.6 400 1000 400 c 0
 1110.4 400 1200 310.4 1200 200 c 0
 1200 89.6 1110.4 0 1000 0 c 0
 889.6 0 800 89.6 800 200 c 0
1500 200 m 0
 1500 310.4 1589.6 400 1700 400 c 0
 1810.4 400 1900 310.4 1900 200 c 0
 1900 89.6 1810.4 0 1700 0 c 0
 1589.6 0 1500 89.6 1500 200 c 0
0 600 m 25
 600 600 l 25
 600 1100 l 25
 700 1100 l 25
 700 600 l 25
 1300 600 l 25
 1300 1100 l 25
 1400 1100 l 25
 1400 600 l 25
 2000 600 l 25
 2000 500 l 25
 1400 500 l 25
 1400 0 l 25
 1300 0 l 25
 1300 500 l 25
 700 500 l 25
 700 0 l 25
 600 0 l 25
 600 500 l 25
 0 500 l 25
 0 600 l 25
1500 900 m 4
 1500 1010.4 1589.6 1100 1700 1100 c 4
 1810.4 1100 1900 1010.4 1900 900 c 4
 1900 789.6 1810.4 700 1700 700 c 4
 1589.6 700 1500 789.6 1500 900 c 4
100 900 m 4
 100 1010.4 189.6 1100 300 1100 c 4
 410.4 1100 500 1010.4 500 900 c 4
 500 789.6 410.4 700 300 700 c 4
 189.6 700 100 789.6 100 900 c 4
EndSplineSet
EndChar

StartChar: uniE02C
Encoding: 57388 57388 58
Width: 2000
VWidth: 0
Flags: HW
LayerCount: 2
Fore
SplineSet
100 200 m 0
 100 310.4 189.6 400 300 400 c 0
 410.4 400 500 310.4 500 200 c 0
 500 89.6 410.4 0 300 0 c 0
 189.6 0 100 89.6 100 200 c 0
0 600 m 25
 600 600 l 25
 600 1100 l 25
 700 1100 l 25
 700 600 l 25
 1300 600 l 25
 1300 1100 l 25
 1400 1100 l 25
 1400 600 l 25
 2000 600 l 25
 2000 500 l 25
 1400 500 l 25
 1400 0 l 25
 1300 0 l 25
 1300 500 l 25
 700 500 l 25
 700 0 l 25
 600 0 l 25
 600 500 l 25
 0 500 l 25
 0 600 l 25
1500 900 m 4
 1500 1010.4 1589.6 1100 1700 1100 c 4
 1810.4 1100 1900 1010.4 1900 900 c 4
 1900 789.6 1810.4 700 1700 700 c 4
 1589.6 700 1500 789.6 1500 900 c 4
100 900 m 4
 100 1010.4 189.6 1100 300 1100 c 4
 410.4 1100 500 1010.4 500 900 c 4
 500 789.6 410.4 700 300 700 c 4
 189.6 700 100 789.6 100 900 c 4
EndSplineSet
EndChar

StartChar: uniE02D
Encoding: 57389 57389 59
Width: 2000
VWidth: 0
Flags: HW
LayerCount: 2
Fore
SplineSet
1500 200 m 0
 1500 310.4 1589.6 400 1700 400 c 0
 1810.4 400 1900 310.4 1900 200 c 0
 1900 89.6 1810.4 0 1700 0 c 0
 1589.6 0 1500 89.6 1500 200 c 0
0 600 m 25
 600 600 l 25
 600 1100 l 25
 700 1100 l 25
 700 600 l 25
 1300 600 l 25
 1300 1100 l 25
 1400 1100 l 25
 1400 600 l 25
 2000 600 l 25
 2000 500 l 25
 1400 500 l 25
 1400 0 l 25
 1300 0 l 25
 1300 500 l 25
 700 500 l 25
 700 0 l 25
 600 0 l 25
 600 500 l 25
 0 500 l 25
 0 600 l 25
100 200 m 0
 100 310.4 189.6 400 300 400 c 0
 410.4 400 500 310.4 500 200 c 0
 500 89.6 410.4 0 300 0 c 0
 189.6 0 100 89.6 100 200 c 0
1500 900 m 4
 1500 1010.4 1589.6 1100 1700 1100 c 4
 1810.4 1100 1900 1010.4 1900 900 c 4
 1900 789.6 1810.4 700 1700 700 c 4
 1589.6 700 1500 789.6 1500 900 c 4
100 900 m 4
 100 1010.4 189.6 1100 300 1100 c 4
 410.4 1100 500 1010.4 500 900 c 4
 500 789.6 410.4 700 300 700 c 4
 189.6 700 100 789.6 100 900 c 4
EndSplineSet
EndChar

StartChar: uniE02E
Encoding: 57390 57390 60
Width: 2000
VWidth: 0
Flags: HW
LayerCount: 2
Fore
SplineSet
800 200 m 0
 800 310.4 889.6 400 1000 400 c 0
 1110.4 400 1200 310.4 1200 200 c 0
 1200 89.6 1110.4 0 1000 0 c 0
 889.6 0 800 89.6 800 200 c 0
0 600 m 25
 600 600 l 25
 600 1100 l 25
 700 1100 l 25
 700 600 l 25
 1300 600 l 25
 1300 1100 l 25
 1400 1100 l 25
 1400 600 l 25
 2000 600 l 25
 2000 500 l 25
 1400 500 l 25
 1400 0 l 25
 1300 0 l 25
 1300 500 l 25
 700 500 l 25
 700 0 l 25
 600 0 l 25
 600 500 l 25
 0 500 l 25
 0 600 l 25
100 200 m 0
 100 310.4 189.6 400 300 400 c 0
 410.4 400 500 310.4 500 200 c 0
 500 89.6 410.4 0 300 0 c 0
 189.6 0 100 89.6 100 200 c 0
1500 900 m 4
 1500 1010.4 1589.6 1100 1700 1100 c 4
 1810.4 1100 1900 1010.4 1900 900 c 4
 1900 789.6 1810.4 700 1700 700 c 4
 1589.6 700 1500 789.6 1500 900 c 4
100 900 m 4
 100 1010.4 189.6 1100 300 1100 c 4
 410.4 1100 500 1010.4 500 900 c 4
 500 789.6 410.4 700 300 700 c 4
 189.6 700 100 789.6 100 900 c 4
EndSplineSet
EndChar

StartChar: uniE02F
Encoding: 57391 57391 61
Width: 2000
VWidth: 0
Flags: HW
LayerCount: 2
Fore
SplineSet
800 200 m 0
 800 310.4 889.6 400 1000 400 c 0
 1110.4 400 1200 310.4 1200 200 c 0
 1200 89.6 1110.4 0 1000 0 c 0
 889.6 0 800 89.6 800 200 c 0
1500 200 m 0
 1500 310.4 1589.6 400 1700 400 c 0
 1810.4 400 1900 310.4 1900 200 c 0
 1900 89.6 1810.4 0 1700 0 c 0
 1589.6 0 1500 89.6 1500 200 c 0
0 600 m 25
 600 600 l 25
 600 1100 l 25
 700 1100 l 25
 700 600 l 25
 1300 600 l 25
 1300 1100 l 25
 1400 1100 l 25
 1400 600 l 25
 2000 600 l 25
 2000 500 l 25
 1400 500 l 25
 1400 0 l 25
 1300 0 l 25
 1300 500 l 25
 700 500 l 25
 700 0 l 25
 600 0 l 25
 600 500 l 25
 0 500 l 25
 0 600 l 25
100 200 m 0
 100 310.4 189.6 400 300 400 c 0
 410.4 400 500 310.4 500 200 c 0
 500 89.6 410.4 0 300 0 c 0
 189.6 0 100 89.6 100 200 c 0
1500 900 m 4
 1500 1010.4 1589.6 1100 1700 1100 c 4
 1810.4 1100 1900 1010.4 1900 900 c 4
 1900 789.6 1810.4 700 1700 700 c 4
 1589.6 700 1500 789.6 1500 900 c 4
100 900 m 4
 100 1010.4 189.6 1100 300 1100 c 4
 410.4 1100 500 1010.4 500 900 c 4
 500 789.6 410.4 700 300 700 c 4
 189.6 700 100 789.6 100 900 c 4
EndSplineSet
EndChar

StartChar: uniE030
Encoding: 57392 57392 62
Width: 2000
VWidth: 0
Flags: HW
LayerCount: 2
Fore
SplineSet
800 900 m 4
 800 1010.4 889.6 1100 1000 1100 c 4
 1110.4 1100 1200 1010.4 1200 900 c 4
 1200 789.6 1110.4 700 1000 700 c 4
 889.6 700 800 789.6 800 900 c 4
0 600 m 25
 600 600 l 25
 600 1100 l 25
 700 1100 l 25
 700 600 l 25
 1300 600 l 25
 1300 1100 l 25
 1400 1100 l 25
 1400 600 l 25
 2000 600 l 25
 2000 500 l 25
 1400 500 l 25
 1400 0 l 25
 1300 0 l 25
 1300 500 l 25
 700 500 l 25
 700 0 l 25
 600 0 l 25
 600 500 l 25
 0 500 l 25
 0 600 l 25
100 900 m 4
 100 1010.4 189.6 1100 300 1100 c 4
 410.4 1100 500 1010.4 500 900 c 4
 500 789.6 410.4 700 300 700 c 4
 189.6 700 100 789.6 100 900 c 4
EndSplineSet
EndChar

StartChar: uniE031
Encoding: 57393 57393 63
Width: 2000
VWidth: 0
Flags: HW
LayerCount: 2
Fore
SplineSet
1500 200 m 0
 1500 310.4 1589.6 400 1700 400 c 0
 1810.4 400 1900 310.4 1900 200 c 0
 1900 89.6 1810.4 0 1700 0 c 0
 1589.6 0 1500 89.6 1500 200 c 0
0 600 m 25
 600 600 l 25
 600 1100 l 25
 700 1100 l 25
 700 600 l 25
 1300 600 l 25
 1300 1100 l 25
 1400 1100 l 25
 1400 600 l 25
 2000 600 l 25
 2000 500 l 25
 1400 500 l 25
 1400 0 l 25
 1300 0 l 25
 1300 500 l 25
 700 500 l 25
 700 0 l 25
 600 0 l 25
 600 500 l 25
 0 500 l 25
 0 600 l 25
800 900 m 4
 800 1010.4 889.6 1100 1000 1100 c 4
 1110.4 1100 1200 1010.4 1200 900 c 4
 1200 789.6 1110.4 700 1000 700 c 4
 889.6 700 800 789.6 800 900 c 4
100 900 m 4
 100 1010.4 189.6 1100 300 1100 c 4
 410.4 1100 500 1010.4 500 900 c 4
 500 789.6 410.4 700 300 700 c 4
 189.6 700 100 789.6 100 900 c 4
EndSplineSet
EndChar

StartChar: uniE032
Encoding: 57394 57394 64
Width: 2000
VWidth: 0
Flags: HW
LayerCount: 2
Fore
SplineSet
800 200 m 0
 800 310.4 889.6 400 1000 400 c 0
 1110.4 400 1200 310.4 1200 200 c 0
 1200 89.6 1110.4 0 1000 0 c 0
 889.6 0 800 89.6 800 200 c 0
0 600 m 25
 600 600 l 25
 600 1100 l 25
 700 1100 l 25
 700 600 l 25
 1300 600 l 25
 1300 1100 l 25
 1400 1100 l 25
 1400 600 l 25
 2000 600 l 25
 2000 500 l 25
 1400 500 l 25
 1400 0 l 25
 1300 0 l 25
 1300 500 l 25
 700 500 l 25
 700 0 l 25
 600 0 l 25
 600 500 l 25
 0 500 l 25
 0 600 l 25
800 900 m 4
 800 1010.4 889.6 1100 1000 1100 c 4
 1110.4 1100 1200 1010.4 1200 900 c 4
 1200 789.6 1110.4 700 1000 700 c 4
 889.6 700 800 789.6 800 900 c 4
100 900 m 4
 100 1010.4 189.6 1100 300 1100 c 4
 410.4 1100 500 1010.4 500 900 c 4
 500 789.6 410.4 700 300 700 c 4
 189.6 700 100 789.6 100 900 c 4
EndSplineSet
EndChar

StartChar: uniE033
Encoding: 57395 57395 65
Width: 2000
VWidth: 0
Flags: HW
LayerCount: 2
Fore
SplineSet
800 200 m 0
 800 310.4 889.6 400 1000 400 c 0
 1110.4 400 1200 310.4 1200 200 c 0
 1200 89.6 1110.4 0 1000 0 c 0
 889.6 0 800 89.6 800 200 c 0
1500 200 m 0
 1500 310.4 1589.6 400 1700 400 c 0
 1810.4 400 1900 310.4 1900 200 c 0
 1900 89.6 1810.4 0 1700 0 c 0
 1589.6 0 1500 89.6 1500 200 c 0
0 600 m 25
 600 600 l 25
 600 1100 l 25
 700 1100 l 25
 700 600 l 25
 1300 600 l 25
 1300 1100 l 25
 1400 1100 l 25
 1400 600 l 25
 2000 600 l 25
 2000 500 l 25
 1400 500 l 25
 1400 0 l 25
 1300 0 l 25
 1300 500 l 25
 700 500 l 25
 700 0 l 25
 600 0 l 25
 600 500 l 25
 0 500 l 25
 0 600 l 25
800 900 m 4
 800 1010.4 889.6 1100 1000 1100 c 4
 1110.4 1100 1200 1010.4 1200 900 c 4
 1200 789.6 1110.4 700 1000 700 c 4
 889.6 700 800 789.6 800 900 c 4
100 900 m 4
 100 1010.4 189.6 1100 300 1100 c 4
 410.4 1100 500 1010.4 500 900 c 4
 500 789.6 410.4 700 300 700 c 4
 189.6 700 100 789.6 100 900 c 4
EndSplineSet
EndChar

StartChar: uniE034
Encoding: 57396 57396 66
Width: 2000
VWidth: 0
Flags: HW
LayerCount: 2
Fore
SplineSet
100 200 m 0
 100 310.4 189.6 400 300 400 c 0
 410.4 400 500 310.4 500 200 c 0
 500 89.6 410.4 0 300 0 c 0
 189.6 0 100 89.6 100 200 c 0
0 600 m 25
 600 600 l 25
 600 1100 l 25
 700 1100 l 25
 700 600 l 25
 1300 600 l 25
 1300 1100 l 25
 1400 1100 l 25
 1400 600 l 25
 2000 600 l 25
 2000 500 l 25
 1400 500 l 25
 1400 0 l 25
 1300 0 l 25
 1300 500 l 25
 700 500 l 25
 700 0 l 25
 600 0 l 25
 600 500 l 25
 0 500 l 25
 0 600 l 25
800 900 m 4
 800 1010.4 889.6 1100 1000 1100 c 4
 1110.4 1100 1200 1010.4 1200 900 c 4
 1200 789.6 1110.4 700 1000 700 c 4
 889.6 700 800 789.6 800 900 c 4
100 900 m 4
 100 1010.4 189.6 1100 300 1100 c 4
 410.4 1100 500 1010.4 500 900 c 4
 500 789.6 410.4 700 300 700 c 4
 189.6 700 100 789.6 100 900 c 4
EndSplineSet
EndChar

StartChar: uniE035
Encoding: 57397 57397 67
Width: 2000
VWidth: 0
Flags: HW
LayerCount: 2
Fore
SplineSet
1500 200 m 0
 1500 310.4 1589.6 400 1700 400 c 0
 1810.4 400 1900 310.4 1900 200 c 0
 1900 89.6 1810.4 0 1700 0 c 0
 1589.6 0 1500 89.6 1500 200 c 0
0 600 m 25
 600 600 l 25
 600 1100 l 25
 700 1100 l 25
 700 600 l 25
 1300 600 l 25
 1300 1100 l 25
 1400 1100 l 25
 1400 600 l 25
 2000 600 l 25
 2000 500 l 25
 1400 500 l 25
 1400 0 l 25
 1300 0 l 25
 1300 500 l 25
 700 500 l 25
 700 0 l 25
 600 0 l 25
 600 500 l 25
 0 500 l 25
 0 600 l 25
100 200 m 0
 100 310.4 189.6 400 300 400 c 0
 410.4 400 500 310.4 500 200 c 0
 500 89.6 410.4 0 300 0 c 0
 189.6 0 100 89.6 100 200 c 0
800 900 m 4
 800 1010.4 889.6 1100 1000 1100 c 4
 1110.4 1100 1200 1010.4 1200 900 c 4
 1200 789.6 1110.4 700 1000 700 c 4
 889.6 700 800 789.6 800 900 c 4
100 900 m 4
 100 1010.4 189.6 1100 300 1100 c 4
 410.4 1100 500 1010.4 500 900 c 4
 500 789.6 410.4 700 300 700 c 4
 189.6 700 100 789.6 100 900 c 4
EndSplineSet
EndChar

StartChar: uniE036
Encoding: 57398 57398 68
Width: 2000
VWidth: 0
Flags: HW
LayerCount: 2
Fore
SplineSet
800 200 m 0
 800 310.4 889.6 400 1000 400 c 0
 1110.4 400 1200 310.4 1200 200 c 0
 1200 89.6 1110.4 0 1000 0 c 0
 889.6 0 800 89.6 800 200 c 0
0 600 m 25
 600 600 l 25
 600 1100 l 25
 700 1100 l 25
 700 600 l 25
 1300 600 l 25
 1300 1100 l 25
 1400 1100 l 25
 1400 600 l 25
 2000 600 l 25
 2000 500 l 25
 1400 500 l 25
 1400 0 l 25
 1300 0 l 25
 1300 500 l 25
 700 500 l 25
 700 0 l 25
 600 0 l 25
 600 500 l 25
 0 500 l 25
 0 600 l 25
100 200 m 0
 100 310.4 189.6 400 300 400 c 0
 410.4 400 500 310.4 500 200 c 0
 500 89.6 410.4 0 300 0 c 0
 189.6 0 100 89.6 100 200 c 0
800 900 m 4
 800 1010.4 889.6 1100 1000 1100 c 4
 1110.4 1100 1200 1010.4 1200 900 c 4
 1200 789.6 1110.4 700 1000 700 c 4
 889.6 700 800 789.6 800 900 c 4
100 900 m 4
 100 1010.4 189.6 1100 300 1100 c 4
 410.4 1100 500 1010.4 500 900 c 4
 500 789.6 410.4 700 300 700 c 4
 189.6 700 100 789.6 100 900 c 4
EndSplineSet
EndChar

StartChar: uniE037
Encoding: 57399 57399 69
Width: 2000
VWidth: 0
Flags: HW
LayerCount: 2
Fore
SplineSet
800 200 m 0
 800 310.4 889.6 400 1000 400 c 0
 1110.4 400 1200 310.4 1200 200 c 0
 1200 89.6 1110.4 0 1000 0 c 0
 889.6 0 800 89.6 800 200 c 0
1500 200 m 0
 1500 310.4 1589.6 400 1700 400 c 0
 1810.4 400 1900 310.4 1900 200 c 0
 1900 89.6 1810.4 0 1700 0 c 0
 1589.6 0 1500 89.6 1500 200 c 0
0 600 m 25
 600 600 l 25
 600 1100 l 25
 700 1100 l 25
 700 600 l 25
 1300 600 l 25
 1300 1100 l 25
 1400 1100 l 25
 1400 600 l 25
 2000 600 l 25
 2000 500 l 25
 1400 500 l 25
 1400 0 l 25
 1300 0 l 25
 1300 500 l 25
 700 500 l 25
 700 0 l 25
 600 0 l 25
 600 500 l 25
 0 500 l 25
 0 600 l 25
100 200 m 0
 100 310.4 189.6 400 300 400 c 0
 410.4 400 500 310.4 500 200 c 0
 500 89.6 410.4 0 300 0 c 0
 189.6 0 100 89.6 100 200 c 0
800 900 m 4
 800 1010.4 889.6 1100 1000 1100 c 4
 1110.4 1100 1200 1010.4 1200 900 c 4
 1200 789.6 1110.4 700 1000 700 c 4
 889.6 700 800 789.6 800 900 c 4
100 900 m 4
 100 1010.4 189.6 1100 300 1100 c 4
 410.4 1100 500 1010.4 500 900 c 4
 500 789.6 410.4 700 300 700 c 4
 189.6 700 100 789.6 100 900 c 4
EndSplineSet
EndChar

StartChar: uniE038
Encoding: 57400 57400 70
Width: 2000
VWidth: 0
Flags: HW
LayerCount: 2
Fore
SplineSet
1500 900 m 4
 1500 1010.4 1589.6 1100 1700 1100 c 4
 1810.4 1100 1900 1010.4 1900 900 c 4
 1900 789.6 1810.4 700 1700 700 c 4
 1589.6 700 1500 789.6 1500 900 c 4
0 600 m 25
 600 600 l 25
 600 1100 l 25
 700 1100 l 25
 700 600 l 25
 1300 600 l 25
 1300 1100 l 25
 1400 1100 l 25
 1400 600 l 25
 2000 600 l 25
 2000 500 l 25
 1400 500 l 25
 1400 0 l 25
 1300 0 l 25
 1300 500 l 25
 700 500 l 25
 700 0 l 25
 600 0 l 25
 600 500 l 25
 0 500 l 25
 0 600 l 25
800 900 m 4
 800 1010.4 889.6 1100 1000 1100 c 4
 1110.4 1100 1200 1010.4 1200 900 c 4
 1200 789.6 1110.4 700 1000 700 c 4
 889.6 700 800 789.6 800 900 c 4
100 900 m 4
 100 1010.4 189.6 1100 300 1100 c 4
 410.4 1100 500 1010.4 500 900 c 4
 500 789.6 410.4 700 300 700 c 4
 189.6 700 100 789.6 100 900 c 4
EndSplineSet
EndChar

StartChar: uniE039
Encoding: 57401 57401 71
Width: 2000
VWidth: 0
Flags: HW
LayerCount: 2
Fore
SplineSet
1500 200 m 0
 1500 310.4 1589.6 400 1700 400 c 0
 1810.4 400 1900 310.4 1900 200 c 0
 1900 89.6 1810.4 0 1700 0 c 0
 1589.6 0 1500 89.6 1500 200 c 0
0 600 m 25
 600 600 l 25
 600 1100 l 25
 700 1100 l 25
 700 600 l 25
 1300 600 l 25
 1300 1100 l 25
 1400 1100 l 25
 1400 600 l 25
 2000 600 l 25
 2000 500 l 25
 1400 500 l 25
 1400 0 l 25
 1300 0 l 25
 1300 500 l 25
 700 500 l 25
 700 0 l 25
 600 0 l 25
 600 500 l 25
 0 500 l 25
 0 600 l 25
1500 900 m 4
 1500 1010.4 1589.6 1100 1700 1100 c 4
 1810.4 1100 1900 1010.4 1900 900 c 4
 1900 789.6 1810.4 700 1700 700 c 4
 1589.6 700 1500 789.6 1500 900 c 4
800 900 m 4
 800 1010.4 889.6 1100 1000 1100 c 4
 1110.4 1100 1200 1010.4 1200 900 c 4
 1200 789.6 1110.4 700 1000 700 c 4
 889.6 700 800 789.6 800 900 c 4
100 900 m 4
 100 1010.4 189.6 1100 300 1100 c 4
 410.4 1100 500 1010.4 500 900 c 4
 500 789.6 410.4 700 300 700 c 4
 189.6 700 100 789.6 100 900 c 4
EndSplineSet
EndChar

StartChar: uniE03A
Encoding: 57402 57402 72
Width: 2000
VWidth: 0
Flags: HW
LayerCount: 2
Fore
SplineSet
800 200 m 0
 800 310.4 889.6 400 1000 400 c 0
 1110.4 400 1200 310.4 1200 200 c 0
 1200 89.6 1110.4 0 1000 0 c 0
 889.6 0 800 89.6 800 200 c 0
0 600 m 25
 600 600 l 25
 600 1100 l 25
 700 1100 l 25
 700 600 l 25
 1300 600 l 25
 1300 1100 l 25
 1400 1100 l 25
 1400 600 l 25
 2000 600 l 25
 2000 500 l 25
 1400 500 l 25
 1400 0 l 25
 1300 0 l 25
 1300 500 l 25
 700 500 l 25
 700 0 l 25
 600 0 l 25
 600 500 l 25
 0 500 l 25
 0 600 l 25
1500 900 m 4
 1500 1010.4 1589.6 1100 1700 1100 c 4
 1810.4 1100 1900 1010.4 1900 900 c 4
 1900 789.6 1810.4 700 1700 700 c 4
 1589.6 700 1500 789.6 1500 900 c 4
800 900 m 4
 800 1010.4 889.6 1100 1000 1100 c 4
 1110.4 1100 1200 1010.4 1200 900 c 4
 1200 789.6 1110.4 700 1000 700 c 4
 889.6 700 800 789.6 800 900 c 4
100 900 m 4
 100 1010.4 189.6 1100 300 1100 c 4
 410.4 1100 500 1010.4 500 900 c 4
 500 789.6 410.4 700 300 700 c 4
 189.6 700 100 789.6 100 900 c 4
EndSplineSet
EndChar

StartChar: uniE03B
Encoding: 57403 57403 73
Width: 2000
VWidth: 0
Flags: HW
LayerCount: 2
Fore
SplineSet
800 200 m 0
 800 310.4 889.6 400 1000 400 c 0
 1110.4 400 1200 310.4 1200 200 c 0
 1200 89.6 1110.4 0 1000 0 c 0
 889.6 0 800 89.6 800 200 c 0
1500 200 m 0
 1500 310.4 1589.6 400 1700 400 c 0
 1810.4 400 1900 310.4 1900 200 c 0
 1900 89.6 1810.4 0 1700 0 c 0
 1589.6 0 1500 89.6 1500 200 c 0
0 600 m 25
 600 600 l 25
 600 1100 l 25
 700 1100 l 25
 700 600 l 25
 1300 600 l 25
 1300 1100 l 25
 1400 1100 l 25
 1400 600 l 25
 2000 600 l 25
 2000 500 l 25
 1400 500 l 25
 1400 0 l 25
 1300 0 l 25
 1300 500 l 25
 700 500 l 25
 700 0 l 25
 600 0 l 25
 600 500 l 25
 0 500 l 25
 0 600 l 25
1500 900 m 4
 1500 1010.4 1589.6 1100 1700 1100 c 4
 1810.4 1100 1900 1010.4 1900 900 c 4
 1900 789.6 1810.4 700 1700 700 c 4
 1589.6 700 1500 789.6 1500 900 c 4
800 900 m 4
 800 1010.4 889.6 1100 1000 1100 c 4
 1110.4 1100 1200 1010.4 1200 900 c 4
 1200 789.6 1110.4 700 1000 700 c 4
 889.6 700 800 789.6 800 900 c 4
100 900 m 4
 100 1010.4 189.6 1100 300 1100 c 4
 410.4 1100 500 1010.4 500 900 c 4
 500 789.6 410.4 700 300 700 c 4
 189.6 700 100 789.6 100 900 c 4
EndSplineSet
EndChar

StartChar: uniE03C
Encoding: 57404 57404 74
Width: 2000
VWidth: 0
Flags: HW
LayerCount: 2
Fore
SplineSet
100 200 m 0
 100 310.4 189.6 400 300 400 c 0
 410.4 400 500 310.4 500 200 c 0
 500 89.6 410.4 0 300 0 c 0
 189.6 0 100 89.6 100 200 c 0
0 600 m 25
 600 600 l 25
 600 1100 l 25
 700 1100 l 25
 700 600 l 25
 1300 600 l 25
 1300 1100 l 25
 1400 1100 l 25
 1400 600 l 25
 2000 600 l 25
 2000 500 l 25
 1400 500 l 25
 1400 0 l 25
 1300 0 l 25
 1300 500 l 25
 700 500 l 25
 700 0 l 25
 600 0 l 25
 600 500 l 25
 0 500 l 25
 0 600 l 25
1500 900 m 4
 1500 1010.4 1589.6 1100 1700 1100 c 4
 1810.4 1100 1900 1010.4 1900 900 c 4
 1900 789.6 1810.4 700 1700 700 c 4
 1589.6 700 1500 789.6 1500 900 c 4
800 900 m 4
 800 1010.4 889.6 1100 1000 1100 c 4
 1110.4 1100 1200 1010.4 1200 900 c 4
 1200 789.6 1110.4 700 1000 700 c 4
 889.6 700 800 789.6 800 900 c 4
100 900 m 4
 100 1010.4 189.6 1100 300 1100 c 4
 410.4 1100 500 1010.4 500 900 c 4
 500 789.6 410.4 700 300 700 c 4
 189.6 700 100 789.6 100 900 c 4
EndSplineSet
EndChar

StartChar: uniE03D
Encoding: 57405 57405 75
Width: 2000
VWidth: 0
Flags: HW
LayerCount: 2
Fore
SplineSet
1500 200 m 0
 1500 310.4 1589.6 400 1700 400 c 0
 1810.4 400 1900 310.4 1900 200 c 0
 1900 89.6 1810.4 0 1700 0 c 0
 1589.6 0 1500 89.6 1500 200 c 0
0 600 m 25
 600 600 l 25
 600 1100 l 25
 700 1100 l 25
 700 600 l 25
 1300 600 l 25
 1300 1100 l 25
 1400 1100 l 25
 1400 600 l 25
 2000 600 l 25
 2000 500 l 25
 1400 500 l 25
 1400 0 l 25
 1300 0 l 25
 1300 500 l 25
 700 500 l 25
 700 0 l 25
 600 0 l 25
 600 500 l 25
 0 500 l 25
 0 600 l 25
100 200 m 0
 100 310.4 189.6 400 300 400 c 0
 410.4 400 500 310.4 500 200 c 0
 500 89.6 410.4 0 300 0 c 0
 189.6 0 100 89.6 100 200 c 0
1500 900 m 4
 1500 1010.4 1589.6 1100 1700 1100 c 4
 1810.4 1100 1900 1010.4 1900 900 c 4
 1900 789.6 1810.4 700 1700 700 c 4
 1589.6 700 1500 789.6 1500 900 c 4
800 900 m 4
 800 1010.4 889.6 1100 1000 1100 c 4
 1110.4 1100 1200 1010.4 1200 900 c 4
 1200 789.6 1110.4 700 1000 700 c 4
 889.6 700 800 789.6 800 900 c 4
100 900 m 4
 100 1010.4 189.6 1100 300 1100 c 4
 410.4 1100 500 1010.4 500 900 c 4
 500 789.6 410.4 700 300 700 c 4
 189.6 700 100 789.6 100 900 c 4
EndSplineSet
EndChar

StartChar: uniE03E
Encoding: 57406 57406 76
Width: 2000
VWidth: 0
Flags: HW
LayerCount: 2
Fore
SplineSet
800 200 m 0
 800 310.4 889.6 400 1000 400 c 0
 1110.4 400 1200 310.4 1200 200 c 0
 1200 89.6 1110.4 0 1000 0 c 0
 889.6 0 800 89.6 800 200 c 0
0 600 m 25
 600 600 l 25
 600 1100 l 25
 700 1100 l 25
 700 600 l 25
 1300 600 l 25
 1300 1100 l 25
 1400 1100 l 25
 1400 600 l 25
 2000 600 l 25
 2000 500 l 25
 1400 500 l 25
 1400 0 l 25
 1300 0 l 25
 1300 500 l 25
 700 500 l 25
 700 0 l 25
 600 0 l 25
 600 500 l 25
 0 500 l 25
 0 600 l 25
100 200 m 0
 100 310.4 189.6 400 300 400 c 0
 410.4 400 500 310.4 500 200 c 0
 500 89.6 410.4 0 300 0 c 0
 189.6 0 100 89.6 100 200 c 0
1500 900 m 4
 1500 1010.4 1589.6 1100 1700 1100 c 4
 1810.4 1100 1900 1010.4 1900 900 c 4
 1900 789.6 1810.4 700 1700 700 c 4
 1589.6 700 1500 789.6 1500 900 c 4
800 900 m 4
 800 1010.4 889.6 1100 1000 1100 c 4
 1110.4 1100 1200 1010.4 1200 900 c 4
 1200 789.6 1110.4 700 1000 700 c 4
 889.6 700 800 789.6 800 900 c 4
100 900 m 4
 100 1010.4 189.6 1100 300 1100 c 4
 410.4 1100 500 1010.4 500 900 c 4
 500 789.6 410.4 700 300 700 c 4
 189.6 700 100 789.6 100 900 c 4
EndSplineSet
EndChar

StartChar: uniE03F
Encoding: 57407 57407 77
Width: 2000
VWidth: 0
Flags: HW
LayerCount: 2
Fore
SplineSet
800 200 m 0
 800 310.4 889.6 400 1000 400 c 0
 1110.4 400 1200 310.4 1200 200 c 0
 1200 89.6 1110.4 0 1000 0 c 0
 889.6 0 800 89.6 800 200 c 0
1500 200 m 0
 1500 310.4 1589.6 400 1700 400 c 0
 1810.4 400 1900 310.4 1900 200 c 0
 1900 89.6 1810.4 0 1700 0 c 0
 1589.6 0 1500 89.6 1500 200 c 0
0 600 m 25
 600 600 l 25
 600 1100 l 25
 700 1100 l 25
 700 600 l 25
 1300 600 l 25
 1300 1100 l 25
 1400 1100 l 25
 1400 600 l 25
 2000 600 l 25
 2000 500 l 25
 1400 500 l 25
 1400 0 l 25
 1300 0 l 25
 1300 500 l 25
 700 500 l 25
 700 0 l 25
 600 0 l 25
 600 500 l 25
 0 500 l 25
 0 600 l 25
100 200 m 0
 100 310.4 189.6 400 300 400 c 0
 410.4 400 500 310.4 500 200 c 0
 500 89.6 410.4 0 300 0 c 0
 189.6 0 100 89.6 100 200 c 0
1500 900 m 4
 1500 1010.4 1589.6 1100 1700 1100 c 4
 1810.4 1100 1900 1010.4 1900 900 c 4
 1900 789.6 1810.4 700 1700 700 c 4
 1589.6 700 1500 789.6 1500 900 c 4
800 900 m 4
 800 1010.4 889.6 1100 1000 1100 c 4
 1110.4 1100 1200 1010.4 1200 900 c 4
 1200 789.6 1110.4 700 1000 700 c 4
 889.6 700 800 789.6 800 900 c 4
100 900 m 4
 100 1010.4 189.6 1100 300 1100 c 4
 410.4 1100 500 1010.4 500 900 c 4
 500 789.6 410.4 700 300 700 c 4
 189.6 700 100 789.6 100 900 c 4
EndSplineSet
EndChar

StartChar: uniE050
Encoding: 57424 57424 80
Width: 1900
VWidth: 0
Flags: HW
LayerCount: 2
Fore
SplineSet
1500 800 m 25
 400 800 l 25
 400 100 l 25
 1500 100 l 25
 1500 800 l 25
300 900 m 25
 1600 900 l 25
 1600 0 l 25
 400 0 l 25
 400 -200 l 25
 300 -200 l 25
 300 900 l 25
EndSplineSet
EndChar

StartChar: uniE051
Encoding: 57425 57425 81
Width: 1900
VWidth: 0
Flags: HW
LayerCount: 2
Fore
SplineSet
1300 250 m 0
 1300 277.6 1322.4 300 1350 300 c 0
 1377.6 300 1400 277.6 1400 250 c 0
 1400 222.4 1377.6 200 1350 200 c 0
 1322.4 200 1300 222.4 1300 250 c 0
900 250 m 0
 900 277.6 922.4 300 950 300 c 0
 977.6 300 1000 277.6 1000 250 c 0
 1000 222.4 977.6 200 950 200 c 0
 922.4 200 900 222.4 900 250 c 0
500 250 m 0
 500 277.6 522.4 300 550 300 c 0
 577.6 300 600 277.6 600 250 c 0
 600 222.4 577.6 200 550 200 c 0
 522.4 200 500 222.4 500 250 c 0
1300 250 m 0
 1300 277.6 1322.4 300 1350 300 c 0
 1377.6 300 1400 277.6 1400 250 c 0
 1400 222.4 1377.6 200 1350 200 c 0
 1322.4 200 1300 222.4 1300 250 c 0
900 250 m 0
 900 277.6 922.4 300 950 300 c 0
 977.6 300 1000 277.6 1000 250 c 0
 1000 222.4 977.6 200 950 200 c 0
 922.4 200 900 222.4 900 250 c 0
500 250 m 0
 500 277.6 522.4 300 550 300 c 0
 577.6 300 600 277.6 600 250 c 0
 600 222.4 577.6 200 550 200 c 0
 522.4 200 500 222.4 500 250 c 0
1100 450 m 0
 1100 477.6 1122.4 500 1150 500 c 0
 1177.6 500 1200 477.6 1200 450 c 0
 1200 422.4 1177.6 400 1150 400 c 0
 1122.4 400 1100 422.4 1100 450 c 0
700 450 m 0
 700 477.6 722.4 500 750 500 c 0
 777.6 500 800 477.6 800 450 c 0
 800 422.4 777.6 400 750 400 c 0
 722.4 400 700 422.4 700 450 c 0
1100 450 m 0
 1100 477.6 1122.4 500 1150 500 c 0
 1177.6 500 1200 477.6 1200 450 c 0
 1200 422.4 1177.6 400 1150 400 c 0
 1122.4 400 1100 422.4 1100 450 c 0
700 450 m 0
 700 477.6 722.4 500 750 500 c 0
 777.6 500 800 477.6 800 450 c 0
 800 422.4 777.6 400 750 400 c 0
 722.4 400 700 422.4 700 450 c 0
1300 650 m 0
 1300 677.6 1322.4 700 1350 700 c 0
 1377.6 700 1400 677.6 1400 650 c 0
 1400 622.4 1377.6 600 1350 600 c 0
 1322.4 600 1300 622.4 1300 650 c 0
900 650 m 0
 900 677.6 922.4 700 950 700 c 0
 977.6 700 1000 677.6 1000 650 c 0
 1000 622.4 977.6 600 950 600 c 0
 922.4 600 900 622.4 900 650 c 0
500 650 m 0
 500 677.6 522.4 700 550 700 c 0
 577.6 700 600 677.6 600 650 c 0
 600 622.4 577.6 600 550 600 c 0
 522.4 600 500 622.4 500 650 c 0
1300 650 m 0
 1300 677.6 1322.4 700 1350 700 c 0
 1377.6 700 1400 677.6 1400 650 c 0
 1400 622.4 1377.6 600 1350 600 c 0
 1322.4 600 1300 622.4 1300 650 c 0
900 650 m 0
 900 677.6 922.4 700 950 700 c 0
 977.6 700 1000 677.6 1000 650 c 0
 1000 622.4 977.6 600 950 600 c 0
 922.4 600 900 622.4 900 650 c 0
500 650 m 0
 500 677.6 522.4 700 550 700 c 0
 577.6 700 600 677.6 600 650 c 0
 600 622.4 577.6 600 550 600 c 0
 522.4 600 500 622.4 500 650 c 0
1500 800 m 25
 400 800 l 25
 400 100 l 25
 1500 100 l 25
 1500 800 l 25
300 900 m 25
 1600 900 l 25
 1600 0 l 25
 400 0 l 25
 400 -200 l 25
 300 -200 l 25
 300 900 l 25
EndSplineSet
EndChar

StartChar: uniE052
Encoding: 57426 57426 82
Width: 1900
VWidth: 0
Flags: HW
LayerCount: 2
Fore
SplineSet
300 900 m 1
 1600 900 l 1
 1600 0 l 1
 400 0 l 1
 400 -200 l 1
 300 -200 l 1
 300 900 l 1
550 600 m 0
 522.4 600 500 622.4 500 650 c 0
 500 677.6 522.4 700 550 700 c 0
 577.6 700 600 677.6 600 650 c 0
 600 622.4 577.6 600 550 600 c 0
950 600 m 0
 922.4 600 900 622.4 900 650 c 0
 900 677.6 922.4 700 950 700 c 0
 977.6 700 1000 677.6 1000 650 c 0
 1000 622.4 977.6 600 950 600 c 0
1350 600 m 0
 1322.4 600 1300 622.4 1300 650 c 0
 1300 677.6 1322.4 700 1350 700 c 0
 1377.6 700 1400 677.6 1400 650 c 0
 1400 622.4 1377.6 600 1350 600 c 0
550 400 m 0
 522.4 400 500 422.4 500 450 c 0
 500 477.6 522.4 500 550 500 c 0
 577.6 500 600 477.6 600 450 c 0
 600 422.4 577.6 400 550 400 c 0
950 400 m 0
 922.4 400 900 422.4 900 450 c 0
 900 477.6 922.4 500 950 500 c 0
 977.6 500 1000 477.6 1000 450 c 0
 1000 422.4 977.6 400 950 400 c 0
550 200 m 0
 522.4 200 500 222.4 500 250 c 0
 500 277.6 522.4 300 550 300 c 0
 577.6 300 600 277.6 600 250 c 0
 600 222.4 577.6 200 550 200 c 0
950 200 m 0
 922.4 200 900 222.4 900 250 c 0
 900 277.6 922.4 300 950 300 c 0
 977.6 300 1000 277.6 1000 250 c 0
 1000 222.4 977.6 200 950 200 c 0
1350 200 m 0
 1322.4 200 1300 222.4 1300 250 c 0
 1300 277.6 1322.4 300 1350 300 c 0
 1377.6 300 1400 277.6 1400 250 c 0
 1400 222.4 1377.6 200 1350 200 c 0
1350 400 m 0
 1322.4 400 1300 422.4 1300 450 c 0
 1300 477.6 1322.4 500 1350 500 c 0
 1377.6 500 1400 477.6 1400 450 c 0
 1400 422.4 1377.6 400 1350 400 c 0
700 100 m 1
 700 800 l 1
 400 800 l 1
 400 100 l 1
 700 100 l 1
800 100 m 1
 1100 100 l 1
 1100 800 l 1
 800 800 l 1
 800 100 l 1
1200 100 m 1
 1500 100 l 1
 1500 800 l 1
 1200 800 l 1
 1200 100 l 1
EndSplineSet
EndChar

StartChar: uniE053
Encoding: 57427 57427 83
Width: 1900
VWidth: 0
Flags: HW
LayerCount: 2
Fore
SplineSet
1500 800 m 25
 1400 800 l 25
 1400 100 l 25
 1500 100 l 25
 1500 800 l 25
1300 800 m 25
 1200 800 l 25
 1200 100 l 25
 1300 100 l 25
 1300 800 l 25
1100 800 m 25
 1000 800 l 25
 1000 100 l 25
 1100 100 l 25
 1100 800 l 25
900 800 m 25
 800 800 l 25
 800 100 l 25
 900 100 l 25
 900 800 l 25
700 800 m 25
 600 800 l 25
 600 100 l 25
 700 100 l 25
 700 800 l 25
500 800 m 25
 400 800 l 25
 400 100 l 25
 500 100 l 25
 500 800 l 25
300 900 m 25
 1600 900 l 25
 1600 0 l 25
 400 0 l 25
 400 -200 l 25
 300 -200 l 25
 300 900 l 25
EndSplineSet
EndChar

StartChar: uniE056
Encoding: 57430 57430 84
Width: 1900
VWidth: 0
Flags: HW
LayerCount: 2
Fore
SplineSet
300 -200 m 1
 300 900 l 1
 1600 900 l 1
 1600 0 l 1
 400 0 l 1
 400 -200 l 1
 300 -200 l 1
1500 770 m 1
 1500 800 l 1
 1370 800 l 1
 1270 700 l 1
 1430 700 l 1
 1500 770 l 1
1130 700 m 1
 1230 800 l 1
 1070 800 l 1
 970 700 l 1
 1130 700 l 1
830 700 m 1
 930 800 l 1
 770 800 l 1
 670 700 l 1
 830 700 l 1
530 700 m 1
 630 800 l 1
 470 800 l 1
 400 730 l 1
 400 700 l 1
 530 700 l 1
1500 500 m 1
 1500 600 l 1
 1470 600 l 1
 1370 500 l 1
 1500 500 l 1
1230 500 m 1
 1330 600 l 1
 1170 600 l 1
 1070 500 l 1
 1230 500 l 1
930 500 m 1
 1030 600 l 1
 870 600 l 1
 770 500 l 1
 930 500 l 1
630 500 m 1
 730 600 l 1
 570 600 l 1
 470 500 l 1
 630 500 l 1
400 570 m 1
 430 600 l 1
 400 600 l 1
 400 570 l 1
1500 330 m 1
 1470 300 l 1
 1500 300 l 1
 1500 330 l 1
1330 300 m 1
 1430 400 l 1
 1270 400 l 1
 1170 300 l 1
 1330 300 l 1
1030 300 m 1
 1130 400 l 1
 970 400 l 1
 870 300 l 1
 1030 300 l 1
730 300 m 1
 830 400 l 1
 670 400 l 1
 570 300 l 1
 730 300 l 1
430 300 m 1
 530 400 l 1
 400 400 l 1
 400 300 l 1
 430 300 l 1
1500 170 m 1
 1500 200 l 1
 1370 200 l 1
 1270 100 l 1
 1430 100 l 1
 1500 170 l 1
1130 100 m 1
 1230 200 l 1
 1070 200 l 1
 970 100 l 1
 1130 100 l 1
830 100 m 1
 930 200 l 1
 770 200 l 1
 670 100 l 1
 830 100 l 1
530 100 m 1
 630 200 l 1
 470 200 l 1
 400 130 l 1
 400 100 l 1
 530 100 l 1
EndSplineSet
EndChar

StartChar: uniE059
Encoding: 57433 57433 85
Width: 1900
VWidth: 0
Flags: HW
LayerCount: 2
Fore
SplineSet
300 900 m 1
 1600 900 l 1
 1600 0 l 1
 400 0 l 1
 400 -200 l 1
 300 -200 l 1
 300 900 l 1
1230 100 m 1
 530 800 l 1
 400 800 l 1
 400 770 l 1
 1070 100 l 1
 1230 100 l 1
1370 100 m 1
 1500 100 l 1
 1500 130 l 1
 830 800 l 1
 670 800 l 1
 1370 100 l 1
1500 270 m 1
 1500 430 l 1
 1130 800 l 1
 970 800 l 1
 1500 270 l 1
1500 570 m 1
 1500 730 l 1
 1430 800 l 1
 1270 800 l 1
 1500 570 l 1
930 100 m 1
 400 630 l 1
 400 470 l 1
 770 100 l 1
 930 100 l 1
630 100 m 1
 400 330 l 1
 400 170 l 1
 470 100 l 1
 630 100 l 1
EndSplineSet
EndChar

StartChar: uniE055
Encoding: 57429 57429 86
Width: 1900
VWidth: 0
Flags: HW
LayerCount: 2
Fore
SplineSet
300 900 m 1
 1600 900 l 1
 1600 0 l 1
 400 0 l 1
 400 -200 l 1
 300 -200 l 1
 300 900 l 1
1230 800 m 1
 1070 800 l 1
 400 130 l 1
 400 100 l 1
 530 100 l 1
 1230 800 l 1
1370 800 m 1
 670 100 l 1
 830 100 l 1
 1500 770 l 1
 1500 800 l 1
 1370 800 l 1
930 800 m 1
 770 800 l 1
 400 430 l 1
 400 270 l 1
 930 800 l 1
630 800 m 1
 470 800 l 1
 400 730 l 1
 400 570 l 1
 630 800 l 1
1500 630 m 1
 970 100 l 1
 1130 100 l 1
 1500 470 l 1
 1500 630 l 1
1500 330 m 1
 1270 100 l 1
 1430 100 l 1
 1500 170 l 1
 1500 330 l 1
EndSplineSet
EndChar

StartChar: uniE057
Encoding: 57431 57431 87
Width: 1900
VWidth: 0
Flags: HW
LayerCount: 2
Fore
SplineSet
1500 200 m 25
 400 200 l 25
 400 100 l 25
 1500 100 l 25
 1500 200 l 25
1500 400 m 25
 400 400 l 25
 400 300 l 25
 1500 300 l 25
 1500 400 l 25
1500 600 m 25
 400 600 l 25
 400 500 l 25
 1500 500 l 25
 1500 600 l 25
1500 800 m 25
 400 800 l 25
 400 700 l 25
 1500 700 l 25
 1500 800 l 25
300 900 m 25
 1600 900 l 25
 1600 0 l 25
 400 0 l 25
 400 -200 l 25
 300 -200 l 25
 300 900 l 25
EndSplineSet
EndChar

StartChar: uniE054
Encoding: 57428 57428 88
Width: 1900
VWidth: 0
Flags: HW
LayerCount: 2
Fore
SplineSet
300 -200 m 1
 300 900 l 1
 1600 900 l 1
 1600 0 l 1
 400 0 l 1
 400 -200 l 1
 300 -200 l 1
500 670 m 1
 500 800 l 1
 470 800 l 1
 400 730 l 1
 400 570 l 1
 500 670 l 1
500 370 m 1
 500 530 l 1
 400 430 l 1
 400 270 l 1
 500 370 l 1
500 230 m 1
 400 130 l 1
 400 100 l 1
 500 100 l 1
 500 230 l 1
700 570 m 1
 700 730 l 1
 600 630 l 1
 600 470 l 1
 700 570 l 1
700 130 m 1
 670 100 l 1
 700 100 l 1
 700 130 l 1
700 270 m 1
 700 430 l 1
 600 330 l 1
 600 170 l 1
 700 270 l 1
600 770 m 1
 630 800 l 1
 600 800 l 1
 600 770 l 1
900 770 m 1
 900 800 l 1
 800 800 l 1
 800 670 l 1
 900 770 l 1
900 170 m 1
 900 330 l 1
 800 230 l 1
 800 100 l 1
 830 100 l 1
 900 170 l 1
900 470 m 1
 900 630 l 1
 800 530 l 1
 800 370 l 1
 900 470 l 1
1100 230 m 1
 1000 130 l 1
 1000 100 l 1
 1100 100 l 1
 1100 230 l 1
1100 370 m 1
 1100 530 l 1
 1000 430 l 1
 1000 270 l 1
 1100 370 l 1
1100 670 m 1
 1100 800 l 1
 1070 800 l 1
 1000 730 l 1
 1000 570 l 1
 1100 670 l 1
1300 130 m 1
 1270 100 l 1
 1300 100 l 1
 1300 130 l 1
1300 270 m 1
 1300 430 l 1
 1200 330 l 1
 1200 170 l 1
 1300 270 l 1
1300 570 m 1
 1300 730 l 1
 1200 630 l 1
 1200 470 l 1
 1300 570 l 1
1200 770 m 1
 1230 800 l 1
 1200 800 l 1
 1200 770 l 1
1500 170 m 1
 1500 330 l 1
 1400 230 l 1
 1400 100 l 1
 1430 100 l 1
 1500 170 l 1
1500 470 m 1
 1500 630 l 1
 1400 530 l 1
 1400 370 l 1
 1500 470 l 1
1500 770 m 1
 1500 800 l 1
 1400 800 l 1
 1400 670 l 1
 1500 770 l 1
EndSplineSet
EndChar

StartChar: uniE058
Encoding: 57432 57432 89
Width: 1900
VWidth: 0
Flags: HW
LayerCount: 2
Fore
SplineSet
300 -200 m 1
 300 900 l 1
 1600 900 l 1
 1600 0 l 1
 400 0 l 1
 400 -200 l 1
 300 -200 l 1
1500 730 m 1
 1430 800 l 1
 1270 800 l 1
 1370 700 l 1
 1500 700 l 1
 1500 730 l 1
1070 700 m 1
 1230 700 l 1
 1130 800 l 1
 970 800 l 1
 1070 700 l 1
770 700 m 1
 930 700 l 1
 830 800 l 1
 670 800 l 1
 770 700 l 1
470 700 m 1
 630 700 l 1
 530 800 l 1
 400 800 l 1
 400 770 l 1
 470 700 l 1
1500 570 m 1
 1500 600 l 1
 1470 600 l 1
 1500 570 l 1
1270 500 m 1
 1430 500 l 1
 1330 600 l 1
 1170 600 l 1
 1270 500 l 1
970 500 m 1
 1130 500 l 1
 1030 600 l 1
 870 600 l 1
 970 500 l 1
530 500 m 1
 430 600 l 1
 400 600 l 1
 400 500 l 1
 530 500 l 1
670 500 m 1
 830 500 l 1
 730 600 l 1
 570 600 l 1
 670 500 l 1
1470 300 m 1
 1500 300 l 1
 1500 400 l 1
 1370 400 l 1
 1470 300 l 1
1170 300 m 1
 1330 300 l 1
 1230 400 l 1
 1070 400 l 1
 1170 300 l 1
430 300 m 1
 400 330 l 1
 400 300 l 1
 430 300 l 1
570 300 m 1
 730 300 l 1
 630 400 l 1
 470 400 l 1
 570 300 l 1
870 300 m 1
 1030 300 l 1
 930 400 l 1
 770 400 l 1
 870 300 l 1
1500 130 m 1
 1430 200 l 1
 1270 200 l 1
 1370 100 l 1
 1500 100 l 1
 1500 130 l 1
470 100 m 1
 630 100 l 1
 530 200 l 1
 400 200 l 1
 400 170 l 1
 470 100 l 1
770 100 m 1
 930 100 l 1
 830 200 l 1
 670 200 l 1
 770 100 l 1
1070 100 m 1
 1230 100 l 1
 1130 200 l 1
 970 200 l 1
 1070 100 l 1
EndSplineSet
EndChar

StartChar: uniE05A
Encoding: 57434 57434 90
Width: 1900
VWidth: 0
Flags: HW
LayerCount: 2
Fore
SplineSet
300 -200 m 1
 300 900 l 1
 1600 900 l 1
 1600 0 l 1
 400 0 l 1
 400 -200 l 1
 300 -200 l 1
500 230 m 1
 400 330 l 1
 400 170 l 1
 470 100 l 1
 500 100 l 1
 500 230 l 1
500 370 m 1
 500 530 l 1
 400 630 l 1
 400 470 l 1
 500 370 l 1
500 670 m 1
 500 800 l 1
 400 800 l 1
 400 770 l 1
 500 670 l 1
700 770 m 1
 700 800 l 1
 670 800 l 1
 700 770 l 1
700 170 m 1
 700 330 l 1
 600 430 l 1
 600 270 l 1
 700 170 l 1
700 470 m 1
 700 630 l 1
 600 730 l 1
 600 570 l 1
 700 470 l 1
630 100 m 1
 600 130 l 1
 600 100 l 1
 630 100 l 1
900 570 m 1
 900 730 l 1
 830 800 l 1
 800 800 l 1
 800 670 l 1
 900 570 l 1
900 130 m 1
 800 230 l 1
 800 100 l 1
 900 100 l 1
 900 130 l 1
900 270 m 1
 900 430 l 1
 800 530 l 1
 800 370 l 1
 900 270 l 1
1100 670 m 1
 1100 800 l 1
 1000 800 l 1
 1000 770 l 1
 1100 670 l 1
1100 370 m 1
 1100 530 l 1
 1000 630 l 1
 1000 470 l 1
 1100 370 l 1
1100 230 m 1
 1000 330 l 1
 1000 170 l 1
 1070 100 l 1
 1100 100 l 1
 1100 230 l 1
1300 770 m 1
 1300 800 l 1
 1270 800 l 1
 1300 770 l 1
1300 470 m 1
 1300 630 l 1
 1200 730 l 1
 1200 570 l 1
 1300 470 l 1
1300 170 m 1
 1300 330 l 1
 1200 430 l 1
 1200 270 l 1
 1300 170 l 1
1230 100 m 1
 1200 130 l 1
 1200 100 l 1
 1230 100 l 1
1500 730 m 1
 1430 800 l 1
 1400 800 l 1
 1400 670 l 1
 1500 570 l 1
 1500 730 l 1
1500 430 m 1
 1400 530 l 1
 1400 370 l 1
 1500 270 l 1
 1500 430 l 1
1500 130 m 1
 1400 230 l 1
 1400 100 l 1
 1500 100 l 1
 1500 130 l 1
EndSplineSet
EndChar

StartChar: uniE05F
Encoding: 57439 57439 91
Width: 1900
VWidth: 0
Flags: HW
LayerCount: 2
Fore
SplineSet
300 900 m 25
 1600 900 l 25
 1600 0 l 25
 400 0 l 25
 400 -200 l 25
 300 -200 l 25
 300 900 l 25
EndSplineSet
EndChar

StartChar: uniE05E
Encoding: 57438 57438 92
Width: 1900
VWidth: 0
Flags: HW
LayerCount: 2
Fore
SplineSet
300 -200 m 1
 300 900 l 1
 1600 900 l 1
 1600 0 l 1
 400 0 l 1
 400 -200 l 1
 300 -200 l 1
500 700 m 1
 500 800 l 1
 400 800 l 1
 400 700 l 1
 500 700 l 1
500 500 m 1
 500 600 l 1
 400 600 l 1
 400 500 l 1
 500 500 l 1
500 300 m 1
 500 400 l 1
 400 400 l 1
 400 300 l 1
 500 300 l 1
500 200 m 1
 400 200 l 1
 400 100 l 1
 500 100 l 1
 500 200 l 1
700 700 m 1
 700 800 l 1
 600 800 l 1
 600 700 l 1
 700 700 l 1
700 500 m 1
 700 600 l 1
 600 600 l 1
 600 500 l 1
 700 500 l 1
700 300 m 1
 700 400 l 1
 600 400 l 1
 600 300 l 1
 700 300 l 1
700 200 m 1
 600 200 l 1
 600 100 l 1
 700 100 l 1
 700 200 l 1
900 700 m 1
 900 800 l 1
 800 800 l 1
 800 700 l 1
 900 700 l 1
900 500 m 1
 900 600 l 1
 800 600 l 1
 800 500 l 1
 900 500 l 1
900 300 m 1
 900 400 l 1
 800 400 l 1
 800 300 l 1
 900 300 l 1
900 200 m 1
 800 200 l 1
 800 100 l 1
 900 100 l 1
 900 200 l 1
1100 700 m 1
 1100 800 l 1
 1000 800 l 1
 1000 700 l 1
 1100 700 l 1
1100 500 m 1
 1100 600 l 1
 1000 600 l 1
 1000 500 l 1
 1100 500 l 1
1100 300 m 1
 1100 400 l 1
 1000 400 l 1
 1000 300 l 1
 1100 300 l 1
1100 200 m 1
 1000 200 l 1
 1000 100 l 1
 1100 100 l 1
 1100 200 l 1
1300 700 m 1
 1300 800 l 1
 1200 800 l 1
 1200 700 l 1
 1300 700 l 1
1300 500 m 1
 1300 600 l 1
 1200 600 l 1
 1200 500 l 1
 1300 500 l 1
1300 300 m 1
 1300 400 l 1
 1200 400 l 1
 1200 300 l 1
 1300 300 l 1
1300 200 m 1
 1200 200 l 1
 1200 100 l 1
 1300 100 l 1
 1300 200 l 1
1500 700 m 1
 1500 800 l 1
 1400 800 l 1
 1400 700 l 1
 1500 700 l 1
1500 500 m 1
 1500 600 l 1
 1400 600 l 1
 1400 500 l 1
 1500 500 l 1
1500 300 m 1
 1500 400 l 1
 1400 400 l 1
 1400 300 l 1
 1500 300 l 1
1500 200 m 1
 1400 200 l 1
 1400 100 l 1
 1500 100 l 1
 1500 200 l 1
EndSplineSet
EndChar

StartChar: uniE05D
Encoding: 57437 57437 93
Width: 1900
VWidth: 0
Flags: HW
LayerCount: 2
Fore
SplineSet
1500 270 m 1
 1500 330 l 1
 1470 300 l 1
 1500 270 l 1
1480 150 m 1
 1400 230 l 1
 1320 150 l 1
 1370 100 l 1
 1430 100 l 1
 1480 150 l 1
1500 570 m 1
 1500 630 l 1
 1470 600 l 1
 1500 570 l 1
1400 370 m 1
 1480 450 l 1
 1400 530 l 1
 1320 450 l 1
 1400 370 l 1
1250 220 m 1
 1330 300 l 1
 1250 380 l 1
 1170 300 l 1
 1250 220 l 1
1180 150 m 1
 1100 230 l 1
 1020 150 l 1
 1070 100 l 1
 1130 100 l 1
 1180 150 l 1
430 600 m 1
 400 630 l 1
 400 570 l 1
 430 600 l 1
500 670 m 1
 580 750 l 1
 530 800 l 1
 470 800 l 1
 420 750 l 1
 500 670 l 1
800 670 m 1
 880 750 l 1
 830 800 l 1
 770 800 l 1
 720 750 l 1
 800 670 l 1
430 300 m 1
 400 330 l 1
 400 270 l 1
 430 300 l 1
500 370 m 1
 580 450 l 1
 500 530 l 1
 420 450 l 1
 500 370 l 1
650 520 m 1
 730 600 l 1
 650 680 l 1
 570 600 l 1
 650 520 l 1
1430 800 m 1
 1370 800 l 1
 1320 750 l 1
 1400 670 l 1
 1480 750 l 1
 1430 800 l 1
1250 520 m 1
 1330 600 l 1
 1250 680 l 1
 1170 600 l 1
 1250 520 l 1
1100 370 m 1
 1180 450 l 1
 1100 530 l 1
 1020 450 l 1
 1100 370 l 1
880 150 m 1
 800 230 l 1
 720 150 l 1
 770 100 l 1
 830 100 l 1
 880 150 l 1
950 220 m 1
 1030 300 l 1
 950 380 l 1
 870 300 l 1
 950 220 l 1
1100 670 m 1
 1180 750 l 1
 1130 800 l 1
 1070 800 l 1
 1020 750 l 1
 1100 670 l 1
950 520 m 1
 1030 600 l 1
 950 680 l 1
 870 600 l 1
 950 520 l 1
580 150 m 1
 500 230 l 1
 420 150 l 1
 470 100 l 1
 530 100 l 1
 580 150 l 1
650 220 m 1
 730 300 l 1
 650 380 l 1
 570 300 l 1
 650 220 l 1
800 370 m 1
 880 450 l 1
 800 530 l 1
 720 450 l 1
 800 370 l 1
300 -200 m 1
 300 900 l 1
 1600 900 l 1
 1600 0 l 1
 400 0 l 1
 400 -200 l 1
 300 -200 l 1
EndSplineSet
EndChar

StartChar: uniE05C
Encoding: 57436 57436 94
Width: 1900
VWidth: 0
Flags: HW
LayerCount: 2
Fore
SplineSet
1100 250 m 0
 1100 277.6 1122.4 300 1150 300 c 0
 1177.6 300 1200 277.6 1200 250 c 0
 1200 222.4 1177.6 200 1150 200 c 0
 1122.4 200 1100 222.4 1100 250 c 0
700 250 m 0
 700 277.6 722.4 300 750 300 c 0
 777.6 300 800 277.6 800 250 c 0
 800 222.4 777.6 200 750 200 c 0
 722.4 200 700 222.4 700 250 c 0
1100 250 m 0
 1100 277.6 1122.4 300 1150 300 c 0
 1177.6 300 1200 277.6 1200 250 c 0
 1200 222.4 1177.6 200 1150 200 c 0
 1122.4 200 1100 222.4 1100 250 c 0
700 250 m 0
 700 277.6 722.4 300 750 300 c 0
 777.6 300 800 277.6 800 250 c 0
 800 222.4 777.6 200 750 200 c 0
 722.4 200 700 222.4 700 250 c 0
1300 250 m 0
 1300 277.6 1322.4 300 1350 300 c 0
 1377.6 300 1400 277.6 1400 250 c 0
 1400 222.4 1377.6 200 1350 200 c 0
 1322.4 200 1300 222.4 1300 250 c 0
900 250 m 0
 900 277.6 922.4 300 950 300 c 0
 977.6 300 1000 277.6 1000 250 c 0
 1000 222.4 977.6 200 950 200 c 0
 922.4 200 900 222.4 900 250 c 0
500 250 m 0
 500 277.6 522.4 300 550 300 c 0
 577.6 300 600 277.6 600 250 c 0
 600 222.4 577.6 200 550 200 c 0
 522.4 200 500 222.4 500 250 c 0
1300 250 m 0
 1300 277.6 1322.4 300 1350 300 c 0
 1377.6 300 1400 277.6 1400 250 c 0
 1400 222.4 1377.6 200 1350 200 c 0
 1322.4 200 1300 222.4 1300 250 c 0
900 250 m 0
 900 277.6 922.4 300 950 300 c 0
 977.6 300 1000 277.6 1000 250 c 0
 1000 222.4 977.6 200 950 200 c 0
 922.4 200 900 222.4 900 250 c 0
500 250 m 0
 500 277.6 522.4 300 550 300 c 0
 577.6 300 600 277.6 600 250 c 0
 600 222.4 577.6 200 550 200 c 0
 522.4 200 500 222.4 500 250 c 0
1100 450 m 0
 1100 477.6 1122.4 500 1150 500 c 0
 1177.6 500 1200 477.6 1200 450 c 0
 1200 422.4 1177.6 400 1150 400 c 0
 1122.4 400 1100 422.4 1100 450 c 0
700 450 m 0
 700 477.6 722.4 500 750 500 c 0
 777.6 500 800 477.6 800 450 c 0
 800 422.4 777.6 400 750 400 c 0
 722.4 400 700 422.4 700 450 c 0
1100 450 m 0
 1100 477.6 1122.4 500 1150 500 c 0
 1177.6 500 1200 477.6 1200 450 c 0
 1200 422.4 1177.6 400 1150 400 c 0
 1122.4 400 1100 422.4 1100 450 c 0
700 450 m 0
 700 477.6 722.4 500 750 500 c 0
 777.6 500 800 477.6 800 450 c 0
 800 422.4 777.6 400 750 400 c 0
 722.4 400 700 422.4 700 450 c 0
1300 450 m 0
 1300 477.6 1322.4 500 1350 500 c 0
 1377.6 500 1400 477.6 1400 450 c 0
 1400 422.4 1377.6 400 1350 400 c 0
 1322.4 400 1300 422.4 1300 450 c 0
900 450 m 0
 900 477.6 922.4 500 950 500 c 0
 977.6 500 1000 477.6 1000 450 c 0
 1000 422.4 977.6 400 950 400 c 0
 922.4 400 900 422.4 900 450 c 0
500 450 m 0
 500 477.6 522.4 500 550 500 c 0
 577.6 500 600 477.6 600 450 c 0
 600 422.4 577.6 400 550 400 c 0
 522.4 400 500 422.4 500 450 c 0
1300 450 m 0
 1300 477.6 1322.4 500 1350 500 c 0
 1377.6 500 1400 477.6 1400 450 c 0
 1400 422.4 1377.6 400 1350 400 c 0
 1322.4 400 1300 422.4 1300 450 c 0
900 450 m 0
 900 477.6 922.4 500 950 500 c 0
 977.6 500 1000 477.6 1000 450 c 0
 1000 422.4 977.6 400 950 400 c 0
 922.4 400 900 422.4 900 450 c 0
500 450 m 0
 500 477.6 522.4 500 550 500 c 0
 577.6 500 600 477.6 600 450 c 0
 600 422.4 577.6 400 550 400 c 0
 522.4 400 500 422.4 500 450 c 0
1100 650 m 0
 1100 677.6 1122.4 700 1150 700 c 0
 1177.6 700 1200 677.6 1200 650 c 0
 1200 622.4 1177.6 600 1150 600 c 0
 1122.4 600 1100 622.4 1100 650 c 0
700 650 m 0
 700 677.6 722.4 700 750 700 c 0
 777.6 700 800 677.6 800 650 c 0
 800 622.4 777.6 600 750 600 c 0
 722.4 600 700 622.4 700 650 c 0
1100 650 m 0
 1100 677.6 1122.4 700 1150 700 c 0
 1177.6 700 1200 677.6 1200 650 c 0
 1200 622.4 1177.6 600 1150 600 c 0
 1122.4 600 1100 622.4 1100 650 c 0
700 650 m 0
 700 677.6 722.4 700 750 700 c 0
 777.6 700 800 677.6 800 650 c 0
 800 622.4 777.6 600 750 600 c 0
 722.4 600 700 622.4 700 650 c 0
1300 650 m 0
 1300 677.6 1322.4 700 1350 700 c 0
 1377.6 700 1400 677.6 1400 650 c 0
 1400 622.4 1377.6 600 1350 600 c 0
 1322.4 600 1300 622.4 1300 650 c 0
900 650 m 0
 900 677.6 922.4 700 950 700 c 0
 977.6 700 1000 677.6 1000 650 c 0
 1000 622.4 977.6 600 950 600 c 0
 922.4 600 900 622.4 900 650 c 0
500 650 m 0
 500 677.6 522.4 700 550 700 c 0
 577.6 700 600 677.6 600 650 c 0
 600 622.4 577.6 600 550 600 c 0
 522.4 600 500 622.4 500 650 c 0
1300 650 m 0
 1300 677.6 1322.4 700 1350 700 c 0
 1377.6 700 1400 677.6 1400 650 c 0
 1400 622.4 1377.6 600 1350 600 c 0
 1322.4 600 1300 622.4 1300 650 c 0
900 650 m 0
 900 677.6 922.4 700 950 700 c 0
 977.6 700 1000 677.6 1000 650 c 0
 1000 622.4 977.6 600 950 600 c 0
 922.4 600 900 622.4 900 650 c 0
500 650 m 0
 500 677.6 522.4 700 550 700 c 0
 577.6 700 600 677.6 600 650 c 0
 600 622.4 577.6 600 550 600 c 0
 522.4 600 500 622.4 500 650 c 0
1500 800 m 25
 400 800 l 25
 400 100 l 25
 1500 100 l 25
 1500 800 l 25
300 900 m 25
 1600 900 l 25
 1600 0 l 25
 400 0 l 25
 400 -200 l 25
 300 -200 l 25
 300 900 l 25
EndSplineSet
EndChar

StartChar: uniE05B
Encoding: 57435 57435 95
Width: 1900
VWidth: 0
Flags: HW
LayerCount: 2
Fore
SplineSet
300 900 m 1
 1600 900 l 1
 1600 0 l 1
 400 0 l 1
 400 -200 l 1
 300 -200 l 1
 300 900 l 1
1200 100 m 1
 1200 200 l 1
 1000 200 l 1
 1000 400 l 1
 800 400 l 1
 800 600 l 1
 600 600 l 1
 600 800 l 1
 400 800 l 1
 400 700 l 1
 500 700 l 1
 500 500 l 1
 700 500 l 1
 700 300 l 1
 900 300 l 1
 900 100 l 1
 1200 100 l 1
1300 100 m 1
 1500 100 l 1
 1500 200 l 1
 1400 200 l 1
 1400 400 l 1
 1200 400 l 1
 1200 600 l 1
 1000 600 l 1
 1000 800 l 1
 700 800 l 1
 700 700 l 1
 900 700 l 1
 900 500 l 1
 1100 500 l 1
 1100 300 l 1
 1300 300 l 1
 1300 100 l 1
1500 500 m 1
 1500 600 l 1
 1400 600 l 1
 1400 800 l 1
 1100 800 l 1
 1100 700 l 1
 1300 700 l 1
 1300 500 l 1
 1500 500 l 1
400 400 m 1
 400 300 l 1
 500 300 l 1
 500 100 l 1
 800 100 l 1
 800 200 l 1
 600 200 l 1
 600 400 l 1
 400 400 l 1
EndSplineSet
EndChar

StartChar: two
Encoding: 50 50 96
Width: 1900
VWidth: 0
Flags: HW
LayerCount: 2
Fore
SplineSet
1600 800 m 25
 500 800 l 25
 500 100 l 25
 1600 100 l 25
 1600 800 l 25
1400 1000 m 25
 300 1000 l 25
 300 300 l 25
 400 300 l 25
 400 900 l 25
 1400 900 l 25
 1400 1000 l 25
200 1100 m 25
 1500 1100 l 25
 1500 900 l 25
 1700 900 l 25
 1700 0 l 25
 500 0 l 25
 500 -200 l 25
 400 -200 l 25
 400 200 l 25
 300 200 l 25
 300 0 l 25
 200 0 l 25
 200 1100 l 25
EndSplineSet
EndChar

StartChar: slash
Encoding: 47 47 97
Width: 1900
VWidth: 0
Flags: HW
LayerCount: 2
Fore
SplineSet
1180 1022 m 1
 1270 978 l 1
 1231 900 l 1
 1600 900 l 1
 1600 0 l 1
 781 0 l 1
 720 -122 l 1
 630 -78 l 1
 669 0 l 1
 400 0 l 1
 400 -200 l 1
 300 -200 l 1
 300 900 l 1
 1119 900 l 1
 1180 1022 l 1
719 100 m 1
 1069 800 l 1
 400 800 l 1
 400 100 l 1
 719 100 l 1
831 100 m 1
 1500 100 l 1
 1500 800 l 1
 1181 800 l 1
 831 100 l 1
EndSplineSet
EndChar

StartChar: h
Encoding: 104 104 98
Width: 1900
VWidth: 0
Flags: HW
LayerCount: 2
Fore
SplineSet
1219 800 m 1
 1600 800 l 1
 1600 -100 l 1
 769 -100 l 1
 1219 800 l 1
300 900 m 1
 1131 900 l 1
 681 0 l 1
 400 0 l 1
 400 -200 l 1
 300 -200 l 1
 300 900 l 1
619 100 m 1
 969 800 l 1
 400 800 l 1
 400 100 l 1
 619 100 l 1
1281 700 m 1
 931 0 l 1
 1500 0 l 1
 1500 700 l 1
 1281 700 l 1
EndSplineSet
EndChar

StartChar: x
Encoding: 120 120 99
Width: 1900
VWidth: 0
Flags: HW
LayerCount: 2
Fore
SplineSet
1465 1035 m 1
 1535 965 l 1
 1470 900 l 1
 1600 900 l 1
 1600 0 l 1
 1470 0 l 1
 1535 -65 l 1
 1465 -135 l 1
 1330 0 l 1
 570 0 l 1
 435 -135 l 1
 400 -100 l 1
 400 -200 l 1
 300 -200 l 1
 300 900 l 1
 430 900 l 1
 365 965 l 1
 435 1035 l 1
 570 900 l 1
 1330 900 l 1
 1465 1035 l 1
1230 800 m 1
 670 800 l 1
 950 520 l 1
 1230 800 l 1
400 -30 m 1
 430 0 l 1
 400 0 l 1
 400 -30 l 1
530 100 m 1
 880 450 l 1
 530 800 l 1
 400 800 l 1
 400 100 l 1
 530 100 l 1
670 100 m 1
 1230 100 l 1
 950 380 l 1
 670 100 l 1
1370 800 m 1
 1020 450 l 1
 1370 100 l 1
 1500 100 l 1
 1500 800 l 1
 1370 800 l 1
EndSplineSet
EndChar

StartChar: f
Encoding: 102 102 100
Width: 1900
VWidth: 0
Flags: HW
LayerCount: 2
Fore
SplineSet
1500 800 m 25
 400 800 l 25
 400 100 l 25
 1500 100 l 25
 1500 800 l 25
300 900 m 25
 1600 900 l 25
 1600 0 l 25
 400 0 l 25
 400 -200 l 25
 300 -200 l 25
 300 900 l 25
EndSplineSet
EndChar

StartChar: p
Encoding: 112 112 101
Width: 1900
VWidth: 0
Flags: HW
LayerCount: 2
Fore
SplineSet
300 900 m 25
 1600 900 l 25
 1600 800 l 25
 400 800 l 25
 400 100 l 25
 1600 100 l 25
 1600 0 l 25
 400 0 l 25
 400 -200 l 25
 300 -200 l 25
 300 900 l 25
EndSplineSet
EndChar

StartChar: question
Encoding: 63 63 102
Width: 1900
VWidth: 0
Flags: HW
LayerCount: 2
Fore
SplineSet
924.294 269.893 m 1
 991.163 269.893 l 1
 991.163 200 l 1
 924.294 200 l 1
 924.294 269.893 l 1
852.05 655.813 m 128
 879.38 685.271 916.902 700 964.617 700 c 0
 1008.75 700 1044.09 687.399 1070.63 662.197 c 128
 1097.18 636.996 1110.45 604.794 1110.45 565.592 c 0
 1110.45 541.846 1105.58 522.581 1095.83 507.796 c 128
 1086.09 493.011 1066.43 471.281 1036.86 442.607 c 0
 1015.36 421.774 1001.41 404.133 995.027 389.685 c 128
 988.643 375.235 985.45 353.897 985.45 325.672 c 1
 925.639 325.672 l 1
 925.639 357.706 929.446 383.523 937.063 403.125 c 128
 944.68 422.727 961.369 445.184 987.13 470.497 c 2
 1014.01 497.043 l 1
 1022.08 504.659 1028.57 512.612 1033.5 520.9 c 0
 1042.46 535.462 1046.94 550.582 1046.94 566.264 c 0
 1046.94 588.217 1040.39 607.258 1027.29 623.387 c 128
 1014.18 639.517 992.507 647.581 962.265 647.581 c 0
 924.854 647.581 898.98 633.691 884.644 605.914 c 0
 876.579 590.457 871.987 568.168 870.867 539.046 c 1
 811.055 539.046 l 1
 811.055 587.433 824.72 626.355 852.05 655.813 c 128
1500 800 m 25
 400 800 l 25
 400 100 l 25
 1500 100 l 25
 1500 800 l 25
300 900 m 25
 1600 900 l 25
 1600 0 l 25
 400 0 l 25
 400 -200 l 25
 300 -200 l 25
 300 900 l 25
EndSplineSet
EndChar

StartChar: r
Encoding: 114 114 103
Width: 1900
VWidth: 0
Flags: HW
LayerCount: 2
Fore
SplineSet
100 900 m 1
 1400 900 l 1
 1400 500 l 5
 1630 500 l 5
 1465 665 l 5
 1535 735 l 5
 1820 450 l 5
 1535 165 l 5
 1465 235 l 5
 1630 400 l 5
 1400 400 l 5
 1400 0 l 1
 200 0 l 1
 200 -200 l 1
 100 -200 l 1
 100 900 l 1
1300 800 m 1
 200 800 l 1
 200 100 l 1
 1300 100 l 1
 1300 400 l 1
 700 400 l 1
 700 500 l 1
 1300 500 l 1
 1300 800 l 1
EndSplineSet
EndChar

StartChar: q
Encoding: 113 113 104
Width: 1900
VWidth: 0
Flags: HW
LayerCount: 2
Fore
SplineSet
1500 800 m 25
 400 800 l 25
 400 100 l 25
 1500 100 l 25
 1500 800 l 25
300 900 m 25
 1600 900 l 25
 1600 -200 l 25
 1500 -200 l 25
 1500 0 l 25
 300 0 l 25
 300 900 l 25
EndSplineSet
EndChar

StartChar: equal
Encoding: 61 61 105
Width: 1900
VWidth: 0
Flags: HW
LayerCount: 2
Fore
SplineSet
300 100 m 1
 300 200 l 1
 819 200 l 1
 969 500 l 1
 470 500 l 1
 635 335 l 1
 565 265 l 1
 280 550 l 1
 565 835 l 1
 635 765 l 1
 470 600 l 1
 1019 600 l 1
 1180 922 l 1
 1270 878 l 1
 1131 600 l 1
 1600 600 l 1
 1600 500 l 1
 1081 500 l 1
 931 200 l 1
 1430 200 l 1
 1265 365 l 1
 1335 435 l 1
 1620 150 l 1
 1335 -135 l 1
 1265 -65 l 1
 1430 100 l 1
 881 100 l 1
 720 -222 l 1
 630 -178 l 1
 769 100 l 1
 300 100 l 1
EndSplineSet
EndChar

StartChar: v
Encoding: 118 118 106
Width: 1900
VWidth: 0
Flags: HW
LayerCount: 2
Fore
SplineSet
1675.19 800.04 m 1
 1734.06 800.04 l 5
 1792.77 708.047 1831.39 638.973 1849.92 592.818 c 0
 1879.12 520.291 1893.72 437.56 1893.72 344.624 c 0
 1893.72 319.82 1891.99 293.761 1888.54 266.445 c 0
 1881.63 213.698 1869.38 164.091 1851.8 117.622 c 0
 1838.93 83.7139 1827 56.8691 1816.01 37.0889 c 128
 1805.02 17.3086 1776.61 -28.374 1730.77 -99.96 c 1
 1673.78 -99.96 l 1
 1719.93 -12.6758 1750.86 54.2002 1766.56 100.668 c 0
 1791.99 176.021 1804.71 259.224 1804.71 350.275 c 0
 1804.71 440.386 1793.56 519.82 1771.27 588.58 c 0
 1756.51 633.792 1724.49 704.278 1675.19 800.04 c 1
224.804 800.04 m 1
 175.51 704.278 143.485 633.792 128.729 588.58 c 0
 106.437 519.82 95.29 440.386 95.29 350.275 c 0
 95.29 259.224 108.006 176.021 133.438 100.668 c 0
 149.137 54.2002 180.062 -12.6758 226.217 -99.96 c 1
 169.23 -99.96 l 1
 123.391 -28.374 94.9766 17.3086 83.9873 37.0889 c 128
 72.998 56.8691 61.0674 83.7139 48.1943 117.622 c 0
 30.6123 164.091 18.3672 213.698 11.46 266.445 c 0
 8.00586 293.761 6.2793 319.82 6.2793 344.624 c 0
 6.2793 437.56 20.8789 520.291 50.0781 592.818 c 0
 68.6025 638.973 107.222 708.047 165.934 800.04 c 1
 224.804 800.04 l 1
1500 800 m 25
 400 800 l 25
 400 100 l 25
 1500 100 l 25
 1500 800 l 25
300 900 m 25
 1600 900 l 25
 1600 0 l 25
 400 0 l 25
 400 -200 l 25
 300 -200 l 25
 300 900 l 25
EndSplineSet
EndChar

StartChar: a
Encoding: 97 97 107
Width: 1900
VWidth: 0
Flags: HW
LayerCount: 2
Fore
SplineSet
1600 800 m 25
 500 800 l 25
 500 100 l 25
 1600 100 l 25
 1600 800 l 25
1400 1000 m 25
 300 1000 l 25
 300 300 l 25
 400 300 l 25
 400 900 l 25
 1400 900 l 25
 1400 1000 l 25
200 1100 m 25
 1500 1100 l 25
 1500 900 l 25
 1700 900 l 25
 1700 0 l 25
 500 0 l 25
 500 -200 l 25
 400 -200 l 25
 400 200 l 25
 300 200 l 25
 300 0 l 25
 200 0 l 25
 200 1100 l 25
EndSplineSet
EndChar

StartChar: d
Encoding: 100 100 108
Width: 1900
VWidth: 0
Flags: HW
LayerCount: 2
Fore
SplineSet
1180 1022 m 1
 1270 978 l 1
 1231 900 l 1
 1600 900 l 1
 1600 0 l 1
 781 0 l 1
 720 -122 l 1
 630 -78 l 1
 669 0 l 1
 400 0 l 1
 400 -200 l 1
 300 -200 l 1
 300 900 l 1
 1119 900 l 1
 1180 1022 l 1
719 100 m 1
 1069 800 l 1
 400 800 l 1
 400 100 l 1
 719 100 l 1
831 100 m 1
 1500 100 l 1
 1500 800 l 1
 1181 800 l 1
 831 100 l 1
EndSplineSet
EndChar

StartChar: c
Encoding: 99 99 109
Width: 1900
VWidth: 0
Flags: HW
LayerCount: 2
Fore
SplineSet
924.294 269.893 m 1
 991.163 269.893 l 1
 991.163 200 l 1
 924.294 200 l 1
 924.294 269.893 l 1
852.05 655.813 m 128
 879.38 685.271 916.902 700 964.617 700 c 0
 1008.75 700 1044.09 687.399 1070.63 662.197 c 128
 1097.18 636.996 1110.45 604.794 1110.45 565.592 c 0
 1110.45 541.846 1105.58 522.581 1095.83 507.796 c 128
 1086.09 493.011 1066.43 471.281 1036.86 442.607 c 0
 1015.36 421.774 1001.41 404.133 995.027 389.685 c 128
 988.643 375.235 985.45 353.897 985.45 325.672 c 1
 925.639 325.672 l 1
 925.639 357.706 929.446 383.523 937.063 403.125 c 128
 944.68 422.727 961.369 445.184 987.13 470.497 c 2
 1014.01 497.043 l 1
 1022.08 504.659 1028.57 512.612 1033.5 520.9 c 0
 1042.46 535.462 1046.94 550.582 1046.94 566.264 c 0
 1046.94 588.217 1040.39 607.258 1027.29 623.387 c 128
 1014.18 639.517 992.507 647.581 962.265 647.581 c 0
 924.854 647.581 898.98 633.691 884.644 605.914 c 0
 876.579 590.457 871.987 568.168 870.867 539.046 c 1
 811.055 539.046 l 1
 811.055 587.433 824.72 626.355 852.05 655.813 c 128
1500 800 m 25
 400 800 l 25
 400 100 l 25
 1500 100 l 25
 1500 800 l 25
300 900 m 25
 1600 900 l 25
 1600 0 l 25
 400 0 l 25
 400 -200 l 25
 300 -200 l 25
 300 900 l 25
EndSplineSet
EndChar

StartChar: t
Encoding: 116 116 110
Width: 1900
VWidth: 0
Flags: HW
LayerCount: 2
Fore
SplineSet
300 100 m 1
 300 200 l 1
 819 200 l 1
 969 500 l 1
 470 500 l 1
 635 335 l 1
 565 265 l 1
 280 550 l 1
 565 835 l 1
 635 765 l 1
 470 600 l 1
 1019 600 l 1
 1180 922 l 1
 1270 878 l 1
 1131 600 l 1
 1600 600 l 1
 1600 500 l 1
 1081 500 l 1
 931 200 l 1
 1430 200 l 1
 1265 365 l 1
 1335 435 l 1
 1620 150 l 1
 1335 -135 l 1
 1265 -65 l 1
 1430 100 l 1
 881 100 l 1
 720 -222 l 1
 630 -178 l 1
 769 100 l 1
 300 100 l 1
EndSplineSet
EndChar

StartChar: l
Encoding: 108 108 111
Width: 1500
VWidth: 0
Flags: HW
LayerCount: 2
Fore
SplineSet
1100 1200 m 25
 400 1200 l 25
 400 100 l 25
 1100 100 l 25
 1100 1200 l 25
700 1400 m 25
 800 1400 l 25
 800 1300 l 25
 1200 1300 l 25
 1200 0 l 25
 800 0 l 25
 800 -400 l 25
 700 -400 l 25
 700 0 l 25
 300 0 l 25
 300 1300 l 25
 700 1300 l 25
 700 1400 l 25
EndSplineSet
EndChar

StartChar: W
Encoding: 87 87 112
Width: 1900
VWidth: 0
Flags: HW
LayerCount: 2
Fore
SplineSet
1500 800 m 25
 400 800 l 25
 400 100 l 25
 1500 100 l 25
 1500 800 l 25
300 900 m 25
 1600 900 l 25
 1600 0 l 25
 400 0 l 25
 400 -200 l 25
 300 -200 l 25
 300 900 l 25
EndSplineSet
EndChar

StartChar: Y
Encoding: 89 89 113
Width: 1900
VWidth: 0
Flags: HW
LayerCount: 2
Fore
SplineSet
1300 250 m 0
 1300 277.6 1322.4 300 1350 300 c 0
 1377.6 300 1400 277.6 1400 250 c 0
 1400 222.4 1377.6 200 1350 200 c 0
 1322.4 200 1300 222.4 1300 250 c 0
900 250 m 0
 900 277.6 922.4 300 950 300 c 0
 977.6 300 1000 277.6 1000 250 c 0
 1000 222.4 977.6 200 950 200 c 0
 922.4 200 900 222.4 900 250 c 0
500 250 m 0
 500 277.6 522.4 300 550 300 c 0
 577.6 300 600 277.6 600 250 c 0
 600 222.4 577.6 200 550 200 c 0
 522.4 200 500 222.4 500 250 c 0
1300 250 m 0
 1300 277.6 1322.4 300 1350 300 c 0
 1377.6 300 1400 277.6 1400 250 c 0
 1400 222.4 1377.6 200 1350 200 c 0
 1322.4 200 1300 222.4 1300 250 c 0
900 250 m 0
 900 277.6 922.4 300 950 300 c 0
 977.6 300 1000 277.6 1000 250 c 0
 1000 222.4 977.6 200 950 200 c 0
 922.4 200 900 222.4 900 250 c 0
500 250 m 0
 500 277.6 522.4 300 550 300 c 0
 577.6 300 600 277.6 600 250 c 0
 600 222.4 577.6 200 550 200 c 0
 522.4 200 500 222.4 500 250 c 0
1100 450 m 0
 1100 477.6 1122.4 500 1150 500 c 0
 1177.6 500 1200 477.6 1200 450 c 0
 1200 422.4 1177.6 400 1150 400 c 0
 1122.4 400 1100 422.4 1100 450 c 0
700 450 m 0
 700 477.6 722.4 500 750 500 c 0
 777.6 500 800 477.6 800 450 c 0
 800 422.4 777.6 400 750 400 c 0
 722.4 400 700 422.4 700 450 c 0
1100 450 m 0
 1100 477.6 1122.4 500 1150 500 c 0
 1177.6 500 1200 477.6 1200 450 c 0
 1200 422.4 1177.6 400 1150 400 c 0
 1122.4 400 1100 422.4 1100 450 c 0
700 450 m 0
 700 477.6 722.4 500 750 500 c 0
 777.6 500 800 477.6 800 450 c 0
 800 422.4 777.6 400 750 400 c 0
 722.4 400 700 422.4 700 450 c 0
1300 650 m 0
 1300 677.6 1322.4 700 1350 700 c 0
 1377.6 700 1400 677.6 1400 650 c 0
 1400 622.4 1377.6 600 1350 600 c 0
 1322.4 600 1300 622.4 1300 650 c 0
900 650 m 0
 900 677.6 922.4 700 950 700 c 0
 977.6 700 1000 677.6 1000 650 c 0
 1000 622.4 977.6 600 950 600 c 0
 922.4 600 900 622.4 900 650 c 0
500 650 m 0
 500 677.6 522.4 700 550 700 c 0
 577.6 700 600 677.6 600 650 c 0
 600 622.4 577.6 600 550 600 c 0
 522.4 600 500 622.4 500 650 c 0
1300 650 m 0
 1300 677.6 1322.4 700 1350 700 c 0
 1377.6 700 1400 677.6 1400 650 c 0
 1400 622.4 1377.6 600 1350 600 c 0
 1322.4 600 1300 622.4 1300 650 c 0
900 650 m 0
 900 677.6 922.4 700 950 700 c 0
 977.6 700 1000 677.6 1000 650 c 0
 1000 622.4 977.6 600 950 600 c 0
 922.4 600 900 622.4 900 650 c 0
500 650 m 0
 500 677.6 522.4 700 550 700 c 0
 577.6 700 600 677.6 600 650 c 0
 600 622.4 577.6 600 550 600 c 0
 522.4 600 500 622.4 500 650 c 0
1500 800 m 25
 400 800 l 25
 400 100 l 25
 1500 100 l 25
 1500 800 l 25
300 900 m 25
 1600 900 l 25
 1600 0 l 25
 400 0 l 25
 400 -200 l 25
 300 -200 l 25
 300 900 l 25
EndSplineSet
EndChar

StartChar: O
Encoding: 79 79 114
Width: 1900
VWidth: 0
Flags: HW
LayerCount: 2
Fore
SplineSet
300 900 m 1
 1600 900 l 1
 1600 0 l 1
 400 0 l 1
 400 -200 l 1
 300 -200 l 1
 300 900 l 1
550 600 m 0
 522.4 600 500 622.4 500 650 c 0
 500 677.6 522.4 700 550 700 c 0
 577.6 700 600 677.6 600 650 c 0
 600 622.4 577.6 600 550 600 c 0
950 600 m 0
 922.4 600 900 622.4 900 650 c 0
 900 677.6 922.4 700 950 700 c 0
 977.6 700 1000 677.6 1000 650 c 0
 1000 622.4 977.6 600 950 600 c 0
1350 600 m 0
 1322.4 600 1300 622.4 1300 650 c 0
 1300 677.6 1322.4 700 1350 700 c 0
 1377.6 700 1400 677.6 1400 650 c 0
 1400 622.4 1377.6 600 1350 600 c 0
550 400 m 0
 522.4 400 500 422.4 500 450 c 0
 500 477.6 522.4 500 550 500 c 0
 577.6 500 600 477.6 600 450 c 0
 600 422.4 577.6 400 550 400 c 0
950 400 m 0
 922.4 400 900 422.4 900 450 c 0
 900 477.6 922.4 500 950 500 c 0
 977.6 500 1000 477.6 1000 450 c 0
 1000 422.4 977.6 400 950 400 c 0
550 200 m 0
 522.4 200 500 222.4 500 250 c 0
 500 277.6 522.4 300 550 300 c 0
 577.6 300 600 277.6 600 250 c 0
 600 222.4 577.6 200 550 200 c 0
950 200 m 0
 922.4 200 900 222.4 900 250 c 0
 900 277.6 922.4 300 950 300 c 0
 977.6 300 1000 277.6 1000 250 c 0
 1000 222.4 977.6 200 950 200 c 0
1350 200 m 0
 1322.4 200 1300 222.4 1300 250 c 0
 1300 277.6 1322.4 300 1350 300 c 0
 1377.6 300 1400 277.6 1400 250 c 0
 1400 222.4 1377.6 200 1350 200 c 0
1350 400 m 0
 1322.4 400 1300 422.4 1300 450 c 0
 1300 477.6 1322.4 500 1350 500 c 0
 1377.6 500 1400 477.6 1400 450 c 0
 1400 422.4 1377.6 400 1350 400 c 0
700 100 m 1
 700 800 l 1
 400 800 l 1
 400 100 l 1
 700 100 l 1
800 100 m 1
 1100 100 l 1
 1100 800 l 1
 800 800 l 1
 800 100 l 1
1200 100 m 1
 1500 100 l 1
 1500 800 l 1
 1200 800 l 1
 1200 100 l 1
EndSplineSet
EndChar

StartChar: R
Encoding: 82 82 115
Width: 1900
VWidth: 0
Flags: HW
LayerCount: 2
Fore
SplineSet
1500 800 m 25
 1400 800 l 25
 1400 100 l 25
 1500 100 l 25
 1500 800 l 25
1300 800 m 25
 1200 800 l 25
 1200 100 l 25
 1300 100 l 25
 1300 800 l 25
1100 800 m 25
 1000 800 l 25
 1000 100 l 25
 1100 100 l 25
 1100 800 l 25
900 800 m 25
 800 800 l 25
 800 100 l 25
 900 100 l 25
 900 800 l 25
700 800 m 25
 600 800 l 25
 600 100 l 25
 700 100 l 25
 700 800 l 25
500 800 m 25
 400 800 l 25
 400 100 l 25
 500 100 l 25
 500 800 l 25
300 900 m 25
 1600 900 l 25
 1600 0 l 25
 400 0 l 25
 400 -200 l 25
 300 -200 l 25
 300 900 l 25
EndSplineSet
EndChar

StartChar: P
Encoding: 80 80 116
Width: 1900
VWidth: 0
Flags: HW
LayerCount: 2
Fore
SplineSet
300 900 m 1
 1600 900 l 1
 1600 0 l 1
 400 0 l 1
 400 -200 l 1
 300 -200 l 1
 300 900 l 1
1230 800 m 1
 1070 800 l 1
 400 130 l 1
 400 100 l 1
 530 100 l 1
 1230 800 l 1
1370 800 m 1
 670 100 l 1
 830 100 l 1
 1500 770 l 1
 1500 800 l 1
 1370 800 l 1
930 800 m 1
 770 800 l 1
 400 430 l 1
 400 270 l 1
 930 800 l 1
630 800 m 1
 470 800 l 1
 400 730 l 1
 400 570 l 1
 630 800 l 1
1500 630 m 1
 970 100 l 1
 1130 100 l 1
 1500 470 l 1
 1500 630 l 1
1500 330 m 1
 1270 100 l 1
 1430 100 l 1
 1500 170 l 1
 1500 330 l 1
EndSplineSet
EndChar

StartChar: B
Encoding: 66 66 117
Width: 1900
VWidth: 0
Flags: HW
LayerCount: 2
Fore
SplineSet
1500 200 m 25
 400 200 l 25
 400 100 l 25
 1500 100 l 25
 1500 200 l 25
1500 400 m 25
 400 400 l 25
 400 300 l 25
 1500 300 l 25
 1500 400 l 25
1500 600 m 25
 400 600 l 25
 400 500 l 25
 1500 500 l 25
 1500 600 l 25
1500 800 m 25
 400 800 l 25
 400 700 l 25
 1500 700 l 25
 1500 800 l 25
300 900 m 25
 1600 900 l 25
 1600 0 l 25
 400 0 l 25
 400 -200 l 25
 300 -200 l 25
 300 900 l 25
EndSplineSet
EndChar

StartChar: V
Encoding: 86 86 118
Width: 1900
VWidth: 0
Flags: HW
LayerCount: 2
Fore
SplineSet
300 900 m 1
 1600 900 l 1
 1600 0 l 1
 400 0 l 1
 400 -200 l 1
 300 -200 l 1
 300 900 l 1
1230 100 m 1
 530 800 l 1
 400 800 l 1
 400 770 l 1
 1070 100 l 1
 1230 100 l 1
1370 100 m 1
 1500 100 l 1
 1500 130 l 1
 830 800 l 1
 670 800 l 1
 1370 100 l 1
1500 270 m 1
 1500 430 l 1
 1130 800 l 1
 970 800 l 1
 1500 270 l 1
1500 570 m 1
 1500 730 l 1
 1430 800 l 1
 1270 800 l 1
 1500 570 l 1
930 100 m 1
 400 630 l 1
 400 470 l 1
 770 100 l 1
 930 100 l 1
630 100 m 1
 400 330 l 1
 400 170 l 1
 470 100 l 1
 630 100 l 1
EndSplineSet
EndChar

StartChar: N
Encoding: 78 78 119
Width: 1900
VWidth: 0
Flags: HW
LayerCount: 2
Fore
SplineSet
300 -200 m 1
 300 900 l 1
 1600 900 l 1
 1600 0 l 1
 400 0 l 1
 400 -200 l 1
 300 -200 l 1
500 700 m 1
 500 800 l 1
 400 800 l 1
 400 700 l 1
 500 700 l 1
500 500 m 1
 500 600 l 1
 400 600 l 1
 400 500 l 1
 500 500 l 1
500 300 m 1
 500 400 l 1
 400 400 l 1
 400 300 l 1
 500 300 l 1
500 200 m 1
 400 200 l 1
 400 100 l 1
 500 100 l 1
 500 200 l 1
700 700 m 1
 700 800 l 1
 600 800 l 1
 600 700 l 1
 700 700 l 1
700 500 m 1
 700 600 l 1
 600 600 l 1
 600 500 l 1
 700 500 l 1
700 300 m 1
 700 400 l 1
 600 400 l 1
 600 300 l 1
 700 300 l 1
700 200 m 1
 600 200 l 1
 600 100 l 1
 700 100 l 1
 700 200 l 1
900 700 m 1
 900 800 l 1
 800 800 l 1
 800 700 l 1
 900 700 l 1
900 500 m 1
 900 600 l 1
 800 600 l 1
 800 500 l 1
 900 500 l 1
900 300 m 1
 900 400 l 1
 800 400 l 1
 800 300 l 1
 900 300 l 1
900 200 m 1
 800 200 l 1
 800 100 l 1
 900 100 l 1
 900 200 l 1
1100 700 m 1
 1100 800 l 1
 1000 800 l 1
 1000 700 l 1
 1100 700 l 1
1100 500 m 1
 1100 600 l 1
 1000 600 l 1
 1000 500 l 1
 1100 500 l 1
1100 300 m 1
 1100 400 l 1
 1000 400 l 1
 1000 300 l 1
 1100 300 l 1
1100 200 m 1
 1000 200 l 1
 1000 100 l 1
 1100 100 l 1
 1100 200 l 1
1300 700 m 1
 1300 800 l 1
 1200 800 l 1
 1200 700 l 1
 1300 700 l 1
1300 500 m 1
 1300 600 l 1
 1200 600 l 1
 1200 500 l 1
 1300 500 l 1
1300 300 m 1
 1300 400 l 1
 1200 400 l 1
 1200 300 l 1
 1300 300 l 1
1300 200 m 1
 1200 200 l 1
 1200 100 l 1
 1300 100 l 1
 1300 200 l 1
1500 700 m 1
 1500 800 l 1
 1400 800 l 1
 1400 700 l 1
 1500 700 l 1
1500 500 m 1
 1500 600 l 1
 1400 600 l 1
 1400 500 l 1
 1500 500 l 1
1500 300 m 1
 1500 400 l 1
 1400 400 l 1
 1400 300 l 1
 1500 300 l 1
1500 200 m 1
 1400 200 l 1
 1400 100 l 1
 1500 100 l 1
 1500 200 l 1
EndSplineSet
EndChar

StartChar: X
Encoding: 88 88 120
Width: 1900
VWidth: 0
Flags: HW
LayerCount: 2
Fore
SplineSet
1500 270 m 1
 1500 330 l 1
 1470 300 l 1
 1500 270 l 1
1480 150 m 1
 1400 230 l 1
 1320 150 l 1
 1370 100 l 1
 1430 100 l 1
 1480 150 l 1
1500 570 m 1
 1500 630 l 1
 1470 600 l 1
 1500 570 l 1
1400 370 m 1
 1480 450 l 1
 1400 530 l 1
 1320 450 l 1
 1400 370 l 1
1250 220 m 1
 1330 300 l 1
 1250 380 l 1
 1170 300 l 1
 1250 220 l 1
1180 150 m 1
 1100 230 l 1
 1020 150 l 1
 1070 100 l 1
 1130 100 l 1
 1180 150 l 1
430 600 m 1
 400 630 l 1
 400 570 l 1
 430 600 l 1
500 670 m 1
 580 750 l 1
 530 800 l 1
 470 800 l 1
 420 750 l 1
 500 670 l 1
800 670 m 1
 880 750 l 1
 830 800 l 1
 770 800 l 1
 720 750 l 1
 800 670 l 1
430 300 m 1
 400 330 l 1
 400 270 l 1
 430 300 l 1
500 370 m 1
 580 450 l 1
 500 530 l 1
 420 450 l 1
 500 370 l 1
650 520 m 1
 730 600 l 1
 650 680 l 1
 570 600 l 1
 650 520 l 1
1430 800 m 1
 1370 800 l 1
 1320 750 l 1
 1400 670 l 1
 1480 750 l 1
 1430 800 l 1
1250 520 m 1
 1330 600 l 1
 1250 680 l 1
 1170 600 l 1
 1250 520 l 1
1100 370 m 1
 1180 450 l 1
 1100 530 l 1
 1020 450 l 1
 1100 370 l 1
880 150 m 1
 800 230 l 1
 720 150 l 1
 770 100 l 1
 830 100 l 1
 880 150 l 1
950 220 m 1
 1030 300 l 1
 950 380 l 1
 870 300 l 1
 950 220 l 1
1100 670 m 1
 1180 750 l 1
 1130 800 l 1
 1070 800 l 1
 1020 750 l 1
 1100 670 l 1
950 520 m 1
 1030 600 l 1
 950 680 l 1
 870 600 l 1
 950 520 l 1
580 150 m 1
 500 230 l 1
 420 150 l 1
 470 100 l 1
 530 100 l 1
 580 150 l 1
650 220 m 1
 730 300 l 1
 650 380 l 1
 570 300 l 1
 650 220 l 1
800 370 m 1
 880 450 l 1
 800 530 l 1
 720 450 l 1
 800 370 l 1
300 -200 m 1
 300 900 l 1
 1600 900 l 1
 1600 0 l 1
 400 0 l 1
 400 -200 l 1
 300 -200 l 1
EndSplineSet
EndChar

StartChar: K
Encoding: 75 75 121
Width: 1900
VWidth: 0
Flags: HW
LayerCount: 2
Fore
SplineSet
300 900 m 25
 1600 900 l 25
 1600 0 l 25
 400 0 l 25
 400 -200 l 25
 300 -200 l 25
 300 900 l 25
EndSplineSet
EndChar

StartChar: G
Encoding: 71 71 122
Width: 1900
VWidth: 0
Flags: HW
LayerCount: 2
Fore
SplineSet
300 -200 m 1
 300 900 l 1
 1600 900 l 1
 1600 0 l 1
 400 0 l 1
 400 -200 l 1
 300 -200 l 1
1500 770 m 1
 1500 800 l 1
 1370 800 l 1
 1270 700 l 1
 1430 700 l 1
 1500 770 l 1
1130 700 m 1
 1230 800 l 1
 1070 800 l 1
 970 700 l 1
 1130 700 l 1
830 700 m 1
 930 800 l 1
 770 800 l 1
 670 700 l 1
 830 700 l 1
530 700 m 1
 630 800 l 1
 470 800 l 1
 400 730 l 1
 400 700 l 1
 530 700 l 1
1500 500 m 1
 1500 600 l 1
 1470 600 l 1
 1370 500 l 1
 1500 500 l 1
1230 500 m 1
 1330 600 l 1
 1170 600 l 1
 1070 500 l 1
 1230 500 l 1
930 500 m 1
 1030 600 l 1
 870 600 l 1
 770 500 l 1
 930 500 l 1
630 500 m 1
 730 600 l 1
 570 600 l 1
 470 500 l 1
 630 500 l 1
400 570 m 1
 430 600 l 1
 400 600 l 1
 400 570 l 1
1500 330 m 1
 1470 300 l 1
 1500 300 l 1
 1500 330 l 1
1330 300 m 1
 1430 400 l 1
 1270 400 l 1
 1170 300 l 1
 1330 300 l 1
1030 300 m 1
 1130 400 l 1
 970 400 l 1
 870 300 l 1
 1030 300 l 1
730 300 m 1
 830 400 l 1
 670 400 l 1
 570 300 l 1
 730 300 l 1
430 300 m 1
 530 400 l 1
 400 400 l 1
 400 300 l 1
 430 300 l 1
1500 170 m 1
 1500 200 l 1
 1370 200 l 1
 1270 100 l 1
 1430 100 l 1
 1500 170 l 1
1130 100 m 1
 1230 200 l 1
 1070 200 l 1
 970 100 l 1
 1130 100 l 1
830 100 m 1
 930 200 l 1
 770 200 l 1
 670 100 l 1
 830 100 l 1
530 100 m 1
 630 200 l 1
 470 200 l 1
 400 130 l 1
 400 100 l 1
 530 100 l 1
EndSplineSet
EndChar

StartChar: M
Encoding: 77 77 123
Width: 1900
VWidth: 0
Flags: HW
LayerCount: 2
Fore
SplineSet
300 -200 m 1
 300 900 l 1
 1600 900 l 1
 1600 0 l 1
 400 0 l 1
 400 -200 l 1
 300 -200 l 1
1500 730 m 1
 1430 800 l 1
 1270 800 l 1
 1370 700 l 1
 1500 700 l 1
 1500 730 l 1
1070 700 m 1
 1230 700 l 1
 1130 800 l 1
 970 800 l 1
 1070 700 l 1
770 700 m 1
 930 700 l 1
 830 800 l 1
 670 800 l 1
 770 700 l 1
470 700 m 1
 630 700 l 1
 530 800 l 1
 400 800 l 1
 400 770 l 1
 470 700 l 1
1500 570 m 1
 1500 600 l 1
 1470 600 l 1
 1500 570 l 1
1270 500 m 1
 1430 500 l 1
 1330 600 l 1
 1170 600 l 1
 1270 500 l 1
970 500 m 1
 1130 500 l 1
 1030 600 l 1
 870 600 l 1
 970 500 l 1
530 500 m 1
 430 600 l 1
 400 600 l 1
 400 500 l 1
 530 500 l 1
670 500 m 1
 830 500 l 1
 730 600 l 1
 570 600 l 1
 670 500 l 1
1470 300 m 1
 1500 300 l 1
 1500 400 l 1
 1370 400 l 1
 1470 300 l 1
1170 300 m 1
 1330 300 l 1
 1230 400 l 1
 1070 400 l 1
 1170 300 l 1
430 300 m 1
 400 330 l 1
 400 300 l 1
 430 300 l 1
570 300 m 1
 730 300 l 1
 630 400 l 1
 470 400 l 1
 570 300 l 1
870 300 m 1
 1030 300 l 1
 930 400 l 1
 770 400 l 1
 870 300 l 1
1500 130 m 1
 1430 200 l 1
 1270 200 l 1
 1370 100 l 1
 1500 100 l 1
 1500 130 l 1
470 100 m 1
 630 100 l 1
 530 200 l 1
 400 200 l 1
 400 170 l 1
 470 100 l 1
770 100 m 1
 930 100 l 1
 830 200 l 1
 670 200 l 1
 770 100 l 1
1070 100 m 1
 1230 100 l 1
 1130 200 l 1
 970 200 l 1
 1070 100 l 1
EndSplineSet
EndChar

StartChar: Q
Encoding: 81 81 124
Width: 1900
VWidth: 0
Flags: HW
LayerCount: 2
Fore
SplineSet
300 -200 m 1
 300 900 l 1
 1600 900 l 1
 1600 0 l 1
 400 0 l 1
 400 -200 l 1
 300 -200 l 1
500 670 m 1
 500 800 l 1
 470 800 l 1
 400 730 l 1
 400 570 l 1
 500 670 l 1
500 370 m 1
 500 530 l 1
 400 430 l 1
 400 270 l 1
 500 370 l 1
500 230 m 1
 400 130 l 1
 400 100 l 1
 500 100 l 1
 500 230 l 1
700 570 m 1
 700 730 l 1
 600 630 l 1
 600 470 l 1
 700 570 l 1
700 130 m 1
 670 100 l 1
 700 100 l 1
 700 130 l 1
700 270 m 1
 700 430 l 1
 600 330 l 1
 600 170 l 1
 700 270 l 1
600 770 m 1
 630 800 l 1
 600 800 l 1
 600 770 l 1
900 770 m 1
 900 800 l 1
 800 800 l 1
 800 670 l 1
 900 770 l 1
900 170 m 1
 900 330 l 1
 800 230 l 1
 800 100 l 1
 830 100 l 1
 900 170 l 1
900 470 m 1
 900 630 l 1
 800 530 l 1
 800 370 l 1
 900 470 l 1
1100 230 m 1
 1000 130 l 1
 1000 100 l 1
 1100 100 l 1
 1100 230 l 1
1100 370 m 1
 1100 530 l 1
 1000 430 l 1
 1000 270 l 1
 1100 370 l 1
1100 670 m 1
 1100 800 l 1
 1070 800 l 1
 1000 730 l 1
 1000 570 l 1
 1100 670 l 1
1300 130 m 1
 1270 100 l 1
 1300 100 l 1
 1300 130 l 1
1300 270 m 1
 1300 430 l 1
 1200 330 l 1
 1200 170 l 1
 1300 270 l 1
1300 570 m 1
 1300 730 l 1
 1200 630 l 1
 1200 470 l 1
 1300 570 l 1
1200 770 m 1
 1230 800 l 1
 1200 800 l 1
 1200 770 l 1
1500 170 m 1
 1500 330 l 1
 1400 230 l 1
 1400 100 l 1
 1430 100 l 1
 1500 170 l 1
1500 470 m 1
 1500 630 l 1
 1400 530 l 1
 1400 370 l 1
 1500 470 l 1
1500 770 m 1
 1500 800 l 1
 1400 800 l 1
 1400 670 l 1
 1500 770 l 1
EndSplineSet
EndChar

StartChar: U
Encoding: 85 85 125
Width: 1900
VWidth: 0
Flags: HW
LayerCount: 2
Fore
SplineSet
300 -200 m 1
 300 900 l 1
 1600 900 l 1
 1600 0 l 1
 400 0 l 1
 400 -200 l 1
 300 -200 l 1
500 230 m 1
 400 330 l 1
 400 170 l 1
 470 100 l 1
 500 100 l 1
 500 230 l 1
500 370 m 1
 500 530 l 1
 400 630 l 1
 400 470 l 1
 500 370 l 1
500 670 m 1
 500 800 l 1
 400 800 l 1
 400 770 l 1
 500 670 l 1
700 770 m 1
 700 800 l 1
 670 800 l 1
 700 770 l 1
700 170 m 1
 700 330 l 1
 600 430 l 1
 600 270 l 1
 700 170 l 1
700 470 m 1
 700 630 l 1
 600 730 l 1
 600 570 l 1
 700 470 l 1
630 100 m 1
 600 130 l 1
 600 100 l 1
 630 100 l 1
900 570 m 1
 900 730 l 1
 830 800 l 1
 800 800 l 1
 800 670 l 1
 900 570 l 1
900 130 m 1
 800 230 l 1
 800 100 l 1
 900 100 l 1
 900 130 l 1
900 270 m 1
 900 430 l 1
 800 530 l 1
 800 370 l 1
 900 270 l 1
1100 670 m 1
 1100 800 l 1
 1000 800 l 1
 1000 770 l 1
 1100 670 l 1
1100 370 m 1
 1100 530 l 1
 1000 630 l 1
 1000 470 l 1
 1100 370 l 1
1100 230 m 1
 1000 330 l 1
 1000 170 l 1
 1070 100 l 1
 1100 100 l 1
 1100 230 l 1
1300 770 m 1
 1300 800 l 1
 1270 800 l 1
 1300 770 l 1
1300 470 m 1
 1300 630 l 1
 1200 730 l 1
 1200 570 l 1
 1300 470 l 1
1300 170 m 1
 1300 330 l 1
 1200 430 l 1
 1200 270 l 1
 1300 170 l 1
1230 100 m 1
 1200 130 l 1
 1200 100 l 1
 1230 100 l 1
1500 730 m 1
 1430 800 l 1
 1400 800 l 1
 1400 670 l 1
 1500 570 l 1
 1500 730 l 1
1500 430 m 1
 1400 530 l 1
 1400 370 l 1
 1500 270 l 1
 1500 430 l 1
1500 130 m 1
 1400 230 l 1
 1400 100 l 1
 1500 100 l 1
 1500 130 l 1
EndSplineSet
EndChar

StartChar: Z
Encoding: 90 90 126
Width: 1900
VWidth: 0
Flags: HW
LayerCount: 2
Fore
SplineSet
1100 250 m 0
 1100 277.6 1122.4 300 1150 300 c 0
 1177.6 300 1200 277.6 1200 250 c 0
 1200 222.4 1177.6 200 1150 200 c 0
 1122.4 200 1100 222.4 1100 250 c 0
700 250 m 0
 700 277.6 722.4 300 750 300 c 0
 777.6 300 800 277.6 800 250 c 0
 800 222.4 777.6 200 750 200 c 0
 722.4 200 700 222.4 700 250 c 0
1100 250 m 0
 1100 277.6 1122.4 300 1150 300 c 0
 1177.6 300 1200 277.6 1200 250 c 0
 1200 222.4 1177.6 200 1150 200 c 0
 1122.4 200 1100 222.4 1100 250 c 0
700 250 m 0
 700 277.6 722.4 300 750 300 c 0
 777.6 300 800 277.6 800 250 c 0
 800 222.4 777.6 200 750 200 c 0
 722.4 200 700 222.4 700 250 c 0
1300 250 m 0
 1300 277.6 1322.4 300 1350 300 c 0
 1377.6 300 1400 277.6 1400 250 c 0
 1400 222.4 1377.6 200 1350 200 c 0
 1322.4 200 1300 222.4 1300 250 c 0
900 250 m 0
 900 277.6 922.4 300 950 300 c 0
 977.6 300 1000 277.6 1000 250 c 0
 1000 222.4 977.6 200 950 200 c 0
 922.4 200 900 222.4 900 250 c 0
500 250 m 0
 500 277.6 522.4 300 550 300 c 0
 577.6 300 600 277.6 600 250 c 0
 600 222.4 577.6 200 550 200 c 0
 522.4 200 500 222.4 500 250 c 0
1300 250 m 0
 1300 277.6 1322.4 300 1350 300 c 0
 1377.6 300 1400 277.6 1400 250 c 0
 1400 222.4 1377.6 200 1350 200 c 0
 1322.4 200 1300 222.4 1300 250 c 0
900 250 m 0
 900 277.6 922.4 300 950 300 c 0
 977.6 300 1000 277.6 1000 250 c 0
 1000 222.4 977.6 200 950 200 c 0
 922.4 200 900 222.4 900 250 c 0
500 250 m 0
 500 277.6 522.4 300 550 300 c 0
 577.6 300 600 277.6 600 250 c 0
 600 222.4 577.6 200 550 200 c 0
 522.4 200 500 222.4 500 250 c 0
1100 450 m 0
 1100 477.6 1122.4 500 1150 500 c 0
 1177.6 500 1200 477.6 1200 450 c 0
 1200 422.4 1177.6 400 1150 400 c 0
 1122.4 400 1100 422.4 1100 450 c 0
700 450 m 0
 700 477.6 722.4 500 750 500 c 0
 777.6 500 800 477.6 800 450 c 0
 800 422.4 777.6 400 750 400 c 0
 722.4 400 700 422.4 700 450 c 0
1100 450 m 0
 1100 477.6 1122.4 500 1150 500 c 0
 1177.6 500 1200 477.6 1200 450 c 0
 1200 422.4 1177.6 400 1150 400 c 0
 1122.4 400 1100 422.4 1100 450 c 0
700 450 m 0
 700 477.6 722.4 500 750 500 c 0
 777.6 500 800 477.6 800 450 c 0
 800 422.4 777.6 400 750 400 c 0
 722.4 400 700 422.4 700 450 c 0
1300 450 m 0
 1300 477.6 1322.4 500 1350 500 c 0
 1377.6 500 1400 477.6 1400 450 c 0
 1400 422.4 1377.6 400 1350 400 c 0
 1322.4 400 1300 422.4 1300 450 c 0
900 450 m 0
 900 477.6 922.4 500 950 500 c 0
 977.6 500 1000 477.6 1000 450 c 0
 1000 422.4 977.6 400 950 400 c 0
 922.4 400 900 422.4 900 450 c 0
500 450 m 0
 500 477.6 522.4 500 550 500 c 0
 577.6 500 600 477.6 600 450 c 0
 600 422.4 577.6 400 550 400 c 0
 522.4 400 500 422.4 500 450 c 0
1300 450 m 0
 1300 477.6 1322.4 500 1350 500 c 0
 1377.6 500 1400 477.6 1400 450 c 0
 1400 422.4 1377.6 400 1350 400 c 0
 1322.4 400 1300 422.4 1300 450 c 0
900 450 m 0
 900 477.6 922.4 500 950 500 c 0
 977.6 500 1000 477.6 1000 450 c 0
 1000 422.4 977.6 400 950 400 c 0
 922.4 400 900 422.4 900 450 c 0
500 450 m 0
 500 477.6 522.4 500 550 500 c 0
 577.6 500 600 477.6 600 450 c 0
 600 422.4 577.6 400 550 400 c 0
 522.4 400 500 422.4 500 450 c 0
1100 650 m 0
 1100 677.6 1122.4 700 1150 700 c 0
 1177.6 700 1200 677.6 1200 650 c 0
 1200 622.4 1177.6 600 1150 600 c 0
 1122.4 600 1100 622.4 1100 650 c 0
700 650 m 0
 700 677.6 722.4 700 750 700 c 0
 777.6 700 800 677.6 800 650 c 0
 800 622.4 777.6 600 750 600 c 0
 722.4 600 700 622.4 700 650 c 0
1100 650 m 0
 1100 677.6 1122.4 700 1150 700 c 0
 1177.6 700 1200 677.6 1200 650 c 0
 1200 622.4 1177.6 600 1150 600 c 0
 1122.4 600 1100 622.4 1100 650 c 0
700 650 m 0
 700 677.6 722.4 700 750 700 c 0
 777.6 700 800 677.6 800 650 c 0
 800 622.4 777.6 600 750 600 c 0
 722.4 600 700 622.4 700 650 c 0
1300 650 m 0
 1300 677.6 1322.4 700 1350 700 c 0
 1377.6 700 1400 677.6 1400 650 c 0
 1400 622.4 1377.6 600 1350 600 c 0
 1322.4 600 1300 622.4 1300 650 c 0
900 650 m 0
 900 677.6 922.4 700 950 700 c 0
 977.6 700 1000 677.6 1000 650 c 0
 1000 622.4 977.6 600 950 600 c 0
 922.4 600 900 622.4 900 650 c 0
500 650 m 0
 500 677.6 522.4 700 550 700 c 0
 577.6 700 600 677.6 600 650 c 0
 600 622.4 577.6 600 550 600 c 0
 522.4 600 500 622.4 500 650 c 0
1300 650 m 0
 1300 677.6 1322.4 700 1350 700 c 0
 1377.6 700 1400 677.6 1400 650 c 0
 1400 622.4 1377.6 600 1350 600 c 0
 1322.4 600 1300 622.4 1300 650 c 0
900 650 m 0
 900 677.6 922.4 700 950 700 c 0
 977.6 700 1000 677.6 1000 650 c 0
 1000 622.4 977.6 600 950 600 c 0
 922.4 600 900 622.4 900 650 c 0
500 650 m 0
 500 677.6 522.4 700 550 700 c 0
 577.6 700 600 677.6 600 650 c 0
 600 622.4 577.6 600 550 600 c 0
 522.4 600 500 622.4 500 650 c 0
1500 800 m 25
 400 800 l 25
 400 100 l 25
 1500 100 l 25
 1500 800 l 25
300 900 m 25
 1600 900 l 25
 1600 0 l 25
 400 0 l 25
 400 -200 l 25
 300 -200 l 25
 300 900 l 25
EndSplineSet
EndChar

StartChar: A
Encoding: 65 65 127
Width: 1900
VWidth: 0
Flags: HW
LayerCount: 2
Fore
SplineSet
300 900 m 1
 1600 900 l 1
 1600 0 l 1
 400 0 l 1
 400 -200 l 1
 300 -200 l 1
 300 900 l 1
1200 100 m 1
 1200 200 l 1
 1000 200 l 1
 1000 400 l 1
 800 400 l 1
 800 600 l 1
 600 600 l 1
 600 800 l 1
 400 800 l 1
 400 700 l 1
 500 700 l 1
 500 500 l 1
 700 500 l 1
 700 300 l 1
 900 300 l 1
 900 100 l 1
 1200 100 l 1
1300 100 m 1
 1500 100 l 1
 1500 200 l 1
 1400 200 l 1
 1400 400 l 1
 1200 400 l 1
 1200 600 l 1
 1000 600 l 1
 1000 800 l 1
 700 800 l 1
 700 700 l 1
 900 700 l 1
 900 500 l 1
 1100 500 l 1
 1100 300 l 1
 1300 300 l 1
 1300 100 l 1
1500 500 m 1
 1500 600 l 1
 1400 600 l 1
 1400 800 l 1
 1100 800 l 1
 1100 700 l 1
 1300 700 l 1
 1300 500 l 1
 1500 500 l 1
400 400 m 1
 400 300 l 1
 500 300 l 1
 500 100 l 1
 800 100 l 1
 800 200 l 1
 600 200 l 1
 600 400 l 1
 400 400 l 1
EndSplineSet
EndChar

StartChar: one
Encoding: 49 49 128
Width: 1900
VWidth: 0
Flags: HW
LayerCount: 2
Fore
SplineSet
1500 800 m 25
 400 800 l 25
 400 100 l 25
 1500 100 l 25
 1500 800 l 25
300 900 m 25
 1600 900 l 25
 1600 0 l 25
 400 0 l 25
 400 -200 l 25
 300 -200 l 25
 300 900 l 25
EndSplineSet
EndChar

StartChar: zero
Encoding: 48 48 129
Width: 2000
VWidth: 0
Flags: HW
LayerCount: 2
Fore
SplineSet
0 600 m 25
 600 600 l 25
 600 1100 l 25
 700 1100 l 25
 700 600 l 25
 1300 600 l 25
 1300 1100 l 25
 1400 1100 l 25
 1400 600 l 25
 2000 600 l 25
 2000 500 l 25
 1400 500 l 25
 1400 0 l 25
 1300 0 l 25
 1300 500 l 25
 700 500 l 25
 700 0 l 25
 600 0 l 25
 600 500 l 25
 0 500 l 25
 0 600 l 25
EndSplineSet
EndChar

StartChar: three
Encoding: 51 51 130
Width: 2000
VWidth: 0
Flags: HW
LayerCount: 2
Fore
SplineSet
1500 200 m 0
 1500 310.4 1589.6 400 1700 400 c 0
 1810.4 400 1900 310.4 1900 200 c 0
 1900 89.6 1810.4 0 1700 0 c 0
 1589.6 0 1500 89.6 1500 200 c 0
0 600 m 25
 600 600 l 25
 600 1100 l 25
 700 1100 l 25
 700 600 l 25
 1300 600 l 25
 1300 1100 l 25
 1400 1100 l 25
 1400 600 l 25
 2000 600 l 25
 2000 500 l 25
 1400 500 l 25
 1400 0 l 25
 1300 0 l 25
 1300 500 l 25
 700 500 l 25
 700 0 l 25
 600 0 l 25
 600 500 l 25
 0 500 l 25
 0 600 l 25
EndSplineSet
EndChar

StartChar: four
Encoding: 52 52 131
Width: 2000
VWidth: 0
Flags: HW
LayerCount: 2
Fore
SplineSet
800 200 m 0
 800 310.4 889.6 400 1000 400 c 0
 1110.4 400 1200 310.4 1200 200 c 0
 1200 89.6 1110.4 0 1000 0 c 0
 889.6 0 800 89.6 800 200 c 0
0 600 m 25
 600 600 l 25
 600 1100 l 25
 700 1100 l 25
 700 600 l 25
 1300 600 l 25
 1300 1100 l 25
 1400 1100 l 25
 1400 600 l 25
 2000 600 l 25
 2000 500 l 25
 1400 500 l 25
 1400 0 l 25
 1300 0 l 25
 1300 500 l 25
 700 500 l 25
 700 0 l 25
 600 0 l 25
 600 500 l 25
 0 500 l 25
 0 600 l 25
EndSplineSet
EndChar

StartChar: five
Encoding: 53 53 132
Width: 2000
VWidth: 0
Flags: HW
LayerCount: 2
Fore
SplineSet
100 200 m 0
 100 310.4 189.6 400 300 400 c 0
 410.4 400 500 310.4 500 200 c 0
 500 89.6 410.4 0 300 0 c 0
 189.6 0 100 89.6 100 200 c 0
0 600 m 25
 600 600 l 25
 600 1100 l 25
 700 1100 l 25
 700 600 l 25
 1300 600 l 25
 1300 1100 l 25
 1400 1100 l 25
 1400 600 l 25
 2000 600 l 25
 2000 500 l 25
 1400 500 l 25
 1400 0 l 25
 1300 0 l 25
 1300 500 l 25
 700 500 l 25
 700 0 l 25
 600 0 l 25
 600 500 l 25
 0 500 l 25
 0 600 l 25
EndSplineSet
EndChar

StartChar: six
Encoding: 54 54 133
Width: 2000
VWidth: 0
Flags: HW
LayerCount: 2
Fore
SplineSet
1500 900 m 4
 1500 1010.4 1589.6 1100 1700 1100 c 4
 1810.4 1100 1900 1010.4 1900 900 c 4
 1900 789.6 1810.4 700 1700 700 c 4
 1589.6 700 1500 789.6 1500 900 c 4
0 600 m 25
 600 600 l 25
 600 1100 l 25
 700 1100 l 25
 700 600 l 25
 1300 600 l 25
 1300 1100 l 25
 1400 1100 l 25
 1400 600 l 25
 2000 600 l 25
 2000 500 l 25
 1400 500 l 25
 1400 0 l 25
 1300 0 l 25
 1300 500 l 25
 700 500 l 25
 700 0 l 25
 600 0 l 25
 600 500 l 25
 0 500 l 25
 0 600 l 25
EndSplineSet
EndChar

StartChar: seven
Encoding: 55 55 134
Width: 2000
VWidth: 0
Flags: HW
LayerCount: 2
Fore
SplineSet
800 900 m 4
 800 1010.4 889.6 1100 1000 1100 c 4
 1110.4 1100 1200 1010.4 1200 900 c 4
 1200 789.6 1110.4 700 1000 700 c 4
 889.6 700 800 789.6 800 900 c 4
0 600 m 25
 600 600 l 25
 600 1100 l 25
 700 1100 l 25
 700 600 l 25
 1300 600 l 25
 1300 1100 l 25
 1400 1100 l 25
 1400 600 l 25
 2000 600 l 25
 2000 500 l 25
 1400 500 l 25
 1400 0 l 25
 1300 0 l 25
 1300 500 l 25
 700 500 l 25
 700 0 l 25
 600 0 l 25
 600 500 l 25
 0 500 l 25
 0 600 l 25
EndSplineSet
EndChar

StartChar: eight
Encoding: 56 56 135
Width: 2000
VWidth: 0
Flags: HW
LayerCount: 2
Fore
SplineSet
100 900 m 4
 100 1010.4 189.6 1100 300 1100 c 4
 410.4 1100 500 1010.4 500 900 c 4
 500 789.6 410.4 700 300 700 c 4
 189.6 700 100 789.6 100 900 c 4
0 600 m 25
 600 600 l 25
 600 1100 l 25
 700 1100 l 25
 700 600 l 25
 1300 600 l 25
 1300 1100 l 25
 1400 1100 l 25
 1400 600 l 25
 2000 600 l 25
 2000 500 l 25
 1400 500 l 25
 1400 0 l 25
 1300 0 l 25
 1300 500 l 25
 700 500 l 25
 700 0 l 25
 600 0 l 25
 600 500 l 25
 0 500 l 25
 0 600 l 25
EndSplineSet
EndChar

StartChar: nine
Encoding: 57 57 136
Width: 2000
VWidth: 0
Flags: HW
LayerCount: 2
Fore
SplineSet
800 200 m 0
 800 310.4 889.6 400 1000 400 c 0
 1110.4 400 1200 310.4 1200 200 c 0
 1200 89.6 1110.4 0 1000 0 c 0
 889.6 0 800 89.6 800 200 c 0
1500 200 m 0
 1500 310.4 1589.6 400 1700 400 c 0
 1810.4 400 1900 310.4 1900 200 c 0
 1900 89.6 1810.4 0 1700 0 c 0
 1589.6 0 1500 89.6 1500 200 c 0
0 600 m 25
 600 600 l 25
 600 1100 l 25
 700 1100 l 25
 700 600 l 25
 1300 600 l 25
 1300 1100 l 25
 1400 1100 l 25
 1400 600 l 25
 2000 600 l 25
 2000 500 l 25
 1400 500 l 25
 1400 0 l 25
 1300 0 l 25
 1300 500 l 25
 700 500 l 25
 700 0 l 25
 600 0 l 25
 600 500 l 25
 0 500 l 25
 0 600 l 25
100 200 m 0
 100 310.4 189.6 400 300 400 c 0
 410.4 400 500 310.4 500 200 c 0
 500 89.6 410.4 0 300 0 c 0
 189.6 0 100 89.6 100 200 c 0
1500 900 m 4
 1500 1010.4 1589.6 1100 1700 1100 c 4
 1810.4 1100 1900 1010.4 1900 900 c 4
 1900 789.6 1810.4 700 1700 700 c 4
 1589.6 700 1500 789.6 1500 900 c 4
800 900 m 4
 800 1010.4 889.6 1100 1000 1100 c 4
 1110.4 1100 1200 1010.4 1200 900 c 4
 1200 789.6 1110.4 700 1000 700 c 4
 889.6 700 800 789.6 800 900 c 4
100 900 m 4
 100 1010.4 189.6 1100 300 1100 c 4
 410.4 1100 500 1010.4 500 900 c 4
 500 789.6 410.4 700 300 700 c 4
 189.6 700 100 789.6 100 900 c 4
EndSplineSet
EndChar

StartChar: bar
Encoding: 124 124 137
Width: 1500
VWidth: 0
Flags: HW
LayerCount: 2
Fore
SplineSet
1100 1200 m 25
 400 1200 l 25
 400 100 l 25
 1100 100 l 25
 1100 1200 l 25
700 1400 m 25
 800 1400 l 25
 800 1300 l 25
 1200 1300 l 25
 1200 0 l 25
 800 0 l 25
 800 -400 l 25
 700 -400 l 25
 700 0 l 25
 300 0 l 25
 300 1300 l 25
 700 1300 l 25
 700 1400 l 25
EndSplineSet
EndChar

StartChar: o
Encoding: 111 111 138
Width: 1500
VWidth: 0
Flags: HW
LayerCount: 2
Fore
SplineSet
600 450 m 0
 600 367.2 667.2 300 750 300 c 0
 832.8 300 900 367.2 900 450 c 0
 900 532.8 832.8 600 750 600 c 0
 667.2 600 600 532.8 600 450 c 0
500 450 m 0
 500 588 612 700 750 700 c 0
 888 700 1000 588 1000 450 c 0
 1000 312 888 200 750 200 c 0
 612 200 500 312 500 450 c 0
400 450 m 0
 400 256.8 556.8 100 750 100 c 0
 943.2 100 1100 256.8 1100 450 c 0
 1100 643.2 943.2 800 750 800 c 0
 556.8 800 400 643.2 400 450 c 0
300 450 m 0
 300 698.4 501.6 900 750 900 c 0
 998.4 900 1200 698.4 1200 450 c 0
 1200 201.6 998.4 0 750 0 c 0
 501.6 0 300 201.6 300 450 c 0
EndSplineSet
EndChar

StartChar: uniE200
Encoding: 57856 57856 139
Width: 2000
VWidth: 0
Flags: HW
LayerCount: 2
Fore
SplineSet
0 900 m 1
 600 900 l 1
 600 1400 l 1
 700 1400 l 1
 700 900 l 1
 1300 900 l 1
 1300 1400 l 1
 1400 1400 l 1
 1400 900 l 1
 2000 900 l 1
 2000 800 l 1
 1400 800 l 1
 1400 200 l 1
 2000 200 l 1
 2000 100 l 1
 1400 100 l 1
 1400 -400 l 1
 1300 -400 l 1
 1300 100 l 1
 700 100 l 1
 700 -400 l 1
 600 -400 l 1
 600 100 l 1
 0 100 l 1
 0 200 l 1
 600 200 l 1
 600 800 l 1
 0 800 l 1
 0 900 l 1
1300 200 m 1
 1300 800 l 1
 700 800 l 1
 700 200 l 1
 1300 200 l 1
EndSplineSet
EndChar

StartChar: uniE201
Encoding: 57857 57857 140
Width: 2000
VWidth: 0
Flags: HW
LayerCount: 2
Fore
SplineSet
0 900 m 1
 600 900 l 1
 600 1400 l 1
 700 1400 l 1
 700 900 l 1
 1300 900 l 1
 1300 1400 l 1
 1400 1400 l 1
 1400 900 l 1
 2000 900 l 1
 2000 800 l 1
 1400 800 l 1
 1400 200 l 1
 2000 200 l 1
 2000 100 l 1
 1400 100 l 1
 1400 -400 l 1
 1300 -400 l 1
 1300 100 l 1
 700 100 l 1
 700 -400 l 1
 600 -400 l 1
 600 100 l 1
 0 100 l 1
 0 200 l 1
 600 200 l 1
 600 800 l 1
 0 800 l 1
 0 900 l 1
1500 -200 m 0
 1500 -89.5996 1589.6 0 1700 0 c 0
 1810.4 0 1900 -89.5996 1900 -200 c 0
 1900 -310.4 1810.4 -400 1700 -400 c 0
 1589.6 -400 1500 -310.4 1500 -200 c 0
1300 200 m 1
 1300 800 l 1
 700 800 l 1
 700 200 l 1
 1300 200 l 1
EndSplineSet
EndChar

StartChar: uniE202
Encoding: 57858 57858 141
Width: 2000
VWidth: 0
Flags: HW
LayerCount: 2
Fore
SplineSet
0 900 m 1
 600 900 l 1
 600 1400 l 1
 700 1400 l 1
 700 900 l 1
 1300 900 l 1
 1300 1400 l 1
 1400 1400 l 1
 1400 900 l 1
 2000 900 l 1
 2000 800 l 1
 1400 800 l 1
 1400 200 l 1
 2000 200 l 1
 2000 100 l 1
 1400 100 l 1
 1400 -400 l 1
 1300 -400 l 1
 1300 100 l 1
 700 100 l 1
 700 -400 l 1
 600 -400 l 1
 600 100 l 1
 0 100 l 1
 0 200 l 1
 600 200 l 1
 600 800 l 1
 0 800 l 1
 0 900 l 1
800 -200 m 0
 800 -89.5996 889.6 0 1000 0 c 0
 1110.4 0 1200 -89.5996 1200 -200 c 0
 1200 -310.4 1110.4 -400 1000 -400 c 0
 889.6 -400 800 -310.4 800 -200 c 0
1300 200 m 1
 1300 800 l 1
 700 800 l 1
 700 200 l 1
 1300 200 l 1
EndSplineSet
EndChar

StartChar: uniE203
Encoding: 57859 57859 142
Width: 2000
VWidth: 0
Flags: HW
LayerCount: 2
Fore
SplineSet
800 -200 m 0
 800 -89.5996 889.6 0 1000 0 c 0
 1110.4 0 1200 -89.5996 1200 -200 c 0
 1200 -310.4 1110.4 -400 1000 -400 c 0
 889.6 -400 800 -310.4 800 -200 c 0
0 900 m 1
 600 900 l 1
 600 1400 l 1
 700 1400 l 1
 700 900 l 1
 1300 900 l 1
 1300 1400 l 1
 1400 1400 l 1
 1400 900 l 1
 2000 900 l 1
 2000 800 l 1
 1400 800 l 1
 1400 200 l 1
 2000 200 l 1
 2000 100 l 1
 1400 100 l 1
 1400 -400 l 1
 1300 -400 l 1
 1300 100 l 1
 700 100 l 1
 700 -400 l 1
 600 -400 l 1
 600 100 l 1
 0 100 l 1
 0 200 l 1
 600 200 l 1
 600 800 l 1
 0 800 l 1
 0 900 l 1
1500 -200 m 0
 1500 -89.5996 1589.6 0 1700 0 c 0
 1810.4 0 1900 -89.5996 1900 -200 c 0
 1900 -310.4 1810.4 -400 1700 -400 c 0
 1589.6 -400 1500 -310.4 1500 -200 c 0
1300 200 m 1
 1300 800 l 1
 700 800 l 1
 700 200 l 1
 1300 200 l 1
EndSplineSet
EndChar

StartChar: uniE204
Encoding: 57860 57860 143
Width: 2000
VWidth: 0
Flags: HW
LayerCount: 2
Fore
SplineSet
100 -200 m 0
 100 -89.5996 189.6 0 300 0 c 0
 410.4 0 500 -89.5996 500 -200 c 0
 500 -310.4 410.4 -400 300 -400 c 0
 189.6 -400 100 -310.4 100 -200 c 0
0 900 m 1
 600 900 l 1
 600 1400 l 1
 700 1400 l 1
 700 900 l 1
 1300 900 l 1
 1300 1400 l 1
 1400 1400 l 1
 1400 900 l 1
 2000 900 l 1
 2000 800 l 1
 1400 800 l 1
 1400 200 l 1
 2000 200 l 1
 2000 100 l 1
 1400 100 l 1
 1400 -400 l 1
 1300 -400 l 1
 1300 100 l 1
 700 100 l 1
 700 -400 l 1
 600 -400 l 1
 600 100 l 1
 0 100 l 1
 0 200 l 1
 600 200 l 1
 600 800 l 1
 0 800 l 1
 0 900 l 1
1300 200 m 1
 1300 800 l 1
 700 800 l 1
 700 200 l 1
 1300 200 l 1
EndSplineSet
EndChar

StartChar: uniE205
Encoding: 57861 57861 144
Width: 2000
VWidth: 0
Flags: HW
LayerCount: 2
Fore
SplineSet
100 -200 m 0
 100 -89.5996 189.6 0 300 0 c 0
 410.4 0 500 -89.5996 500 -200 c 0
 500 -310.4 410.4 -400 300 -400 c 0
 189.6 -400 100 -310.4 100 -200 c 0
0 900 m 1
 600 900 l 1
 600 1400 l 1
 700 1400 l 1
 700 900 l 1
 1300 900 l 1
 1300 1400 l 1
 1400 1400 l 1
 1400 900 l 1
 2000 900 l 1
 2000 800 l 1
 1400 800 l 1
 1400 200 l 1
 2000 200 l 1
 2000 100 l 1
 1400 100 l 1
 1400 -400 l 1
 1300 -400 l 1
 1300 100 l 1
 700 100 l 1
 700 -400 l 1
 600 -400 l 1
 600 100 l 1
 0 100 l 1
 0 200 l 1
 600 200 l 1
 600 800 l 1
 0 800 l 1
 0 900 l 1
1500 -200 m 0
 1500 -89.5996 1589.6 0 1700 0 c 0
 1810.4 0 1900 -89.5996 1900 -200 c 0
 1900 -310.4 1810.4 -400 1700 -400 c 0
 1589.6 -400 1500 -310.4 1500 -200 c 0
1300 200 m 1
 1300 800 l 1
 700 800 l 1
 700 200 l 1
 1300 200 l 1
EndSplineSet
EndChar

StartChar: uniE206
Encoding: 57862 57862 145
Width: 2000
VWidth: 0
Flags: HW
LayerCount: 2
Fore
SplineSet
100 -200 m 0
 100 -89.5996 189.6 0 300 0 c 0
 410.4 0 500 -89.5996 500 -200 c 0
 500 -310.4 410.4 -400 300 -400 c 0
 189.6 -400 100 -310.4 100 -200 c 0
0 900 m 1
 600 900 l 1
 600 1400 l 1
 700 1400 l 1
 700 900 l 1
 1300 900 l 1
 1300 1400 l 1
 1400 1400 l 1
 1400 900 l 1
 2000 900 l 1
 2000 800 l 1
 1400 800 l 1
 1400 200 l 1
 2000 200 l 1
 2000 100 l 1
 1400 100 l 1
 1400 -400 l 1
 1300 -400 l 1
 1300 100 l 1
 700 100 l 1
 700 -400 l 1
 600 -400 l 1
 600 100 l 1
 0 100 l 1
 0 200 l 1
 600 200 l 1
 600 800 l 1
 0 800 l 1
 0 900 l 1
800 -200 m 0
 800 -89.5996 889.6 0 1000 0 c 0
 1110.4 0 1200 -89.5996 1200 -200 c 0
 1200 -310.4 1110.4 -400 1000 -400 c 0
 889.6 -400 800 -310.4 800 -200 c 0
1300 200 m 1
 1300 800 l 1
 700 800 l 1
 700 200 l 1
 1300 200 l 1
EndSplineSet
EndChar

StartChar: uniE207
Encoding: 57863 57863 146
Width: 2000
VWidth: 0
Flags: HW
LayerCount: 2
Fore
SplineSet
100 -200 m 0
 100 -89.5996 189.6 0 300 0 c 0
 410.4 0 500 -89.5996 500 -200 c 0
 500 -310.4 410.4 -400 300 -400 c 0
 189.6 -400 100 -310.4 100 -200 c 0
800 -200 m 0
 800 -89.5996 889.6 0 1000 0 c 0
 1110.4 0 1200 -89.5996 1200 -200 c 0
 1200 -310.4 1110.4 -400 1000 -400 c 0
 889.6 -400 800 -310.4 800 -200 c 0
0 900 m 1
 600 900 l 1
 600 1400 l 1
 700 1400 l 1
 700 900 l 1
 1300 900 l 1
 1300 1400 l 1
 1400 1400 l 1
 1400 900 l 1
 2000 900 l 1
 2000 800 l 1
 1400 800 l 1
 1400 200 l 1
 2000 200 l 1
 2000 100 l 1
 1400 100 l 1
 1400 -400 l 1
 1300 -400 l 1
 1300 100 l 1
 700 100 l 1
 700 -400 l 1
 600 -400 l 1
 600 100 l 1
 0 100 l 1
 0 200 l 1
 600 200 l 1
 600 800 l 1
 0 800 l 1
 0 900 l 1
1500 -200 m 0
 1500 -89.5996 1589.6 0 1700 0 c 0
 1810.4 0 1900 -89.5996 1900 -200 c 0
 1900 -310.4 1810.4 -400 1700 -400 c 0
 1589.6 -400 1500 -310.4 1500 -200 c 0
1300 200 m 1
 1300 800 l 1
 700 800 l 1
 700 200 l 1
 1300 200 l 1
EndSplineSet
EndChar

StartChar: uniE208
Encoding: 57864 57864 147
Width: 2000
VWidth: 0
Flags: HW
LayerCount: 2
Fore
SplineSet
1500 500 m 0
 1500 610.4 1589.6 700 1700 700 c 0
 1810.4 700 1900 610.4 1900 500 c 0
 1900 389.6 1810.4 300 1700 300 c 0
 1589.6 300 1500 389.6 1500 500 c 0
0 900 m 1
 600 900 l 1
 600 1400 l 1
 700 1400 l 1
 700 900 l 1
 1300 900 l 1
 1300 1400 l 1
 1400 1400 l 1
 1400 900 l 1
 2000 900 l 1
 2000 800 l 1
 1400 800 l 1
 1400 200 l 1
 2000 200 l 1
 2000 100 l 1
 1400 100 l 1
 1400 -400 l 1
 1300 -400 l 1
 1300 100 l 1
 700 100 l 1
 700 -400 l 1
 600 -400 l 1
 600 100 l 1
 0 100 l 1
 0 200 l 1
 600 200 l 1
 600 800 l 1
 0 800 l 1
 0 900 l 1
1300 200 m 1
 1300 800 l 1
 700 800 l 1
 700 200 l 1
 1300 200 l 1
EndSplineSet
EndChar

StartChar: uniE209
Encoding: 57865 57865 148
Width: 2000
VWidth: 0
Flags: HW
LayerCount: 2
Fore
SplineSet
0 900 m 1
 600 900 l 1
 600 1400 l 1
 700 1400 l 1
 700 900 l 1
 1300 900 l 1
 1300 1400 l 1
 1400 1400 l 1
 1400 900 l 1
 2000 900 l 1
 2000 800 l 1
 1400 800 l 1
 1400 200 l 1
 2000 200 l 1
 2000 100 l 1
 1400 100 l 1
 1400 -400 l 1
 1300 -400 l 1
 1300 100 l 1
 700 100 l 1
 700 -400 l 1
 600 -400 l 1
 600 100 l 1
 0 100 l 1
 0 200 l 1
 600 200 l 1
 600 800 l 1
 0 800 l 1
 0 900 l 1
1500 -200 m 0
 1500 -89.5996 1589.6 0 1700 0 c 0
 1810.4 0 1900 -89.5996 1900 -200 c 0
 1900 -310.4 1810.4 -400 1700 -400 c 0
 1589.6 -400 1500 -310.4 1500 -200 c 0
1300 200 m 1
 1300 800 l 1
 700 800 l 1
 700 200 l 1
 1300 200 l 1
1500 500 m 4
 1500 610.4 1589.6 700 1700 700 c 4
 1810.4 700 1900 610.4 1900 500 c 4
 1900 389.6 1810.4 300 1700 300 c 4
 1589.6 300 1500 389.6 1500 500 c 4
EndSplineSet
EndChar

StartChar: uniE20A
Encoding: 57866 57866 149
Width: 2000
VWidth: 0
Flags: HW
LayerCount: 2
Fore
SplineSet
0 900 m 1
 600 900 l 1
 600 1400 l 1
 700 1400 l 1
 700 900 l 1
 1300 900 l 1
 1300 1400 l 1
 1400 1400 l 1
 1400 900 l 1
 2000 900 l 1
 2000 800 l 1
 1400 800 l 1
 1400 200 l 1
 2000 200 l 1
 2000 100 l 1
 1400 100 l 1
 1400 -400 l 1
 1300 -400 l 1
 1300 100 l 1
 700 100 l 1
 700 -400 l 1
 600 -400 l 1
 600 100 l 1
 0 100 l 1
 0 200 l 1
 600 200 l 1
 600 800 l 1
 0 800 l 1
 0 900 l 1
800 -200 m 0
 800 -89.5996 889.6 0 1000 0 c 0
 1110.4 0 1200 -89.5996 1200 -200 c 0
 1200 -310.4 1110.4 -400 1000 -400 c 0
 889.6 -400 800 -310.4 800 -200 c 0
1300 200 m 1
 1300 800 l 1
 700 800 l 1
 700 200 l 1
 1300 200 l 1
1500 500 m 4
 1500 610.4 1589.6 700 1700 700 c 4
 1810.4 700 1900 610.4 1900 500 c 4
 1900 389.6 1810.4 300 1700 300 c 4
 1589.6 300 1500 389.6 1500 500 c 4
EndSplineSet
EndChar

StartChar: uniE20B
Encoding: 57867 57867 150
Width: 2000
VWidth: 0
Flags: HW
LayerCount: 2
Fore
SplineSet
800 -200 m 0
 800 -89.5996 889.6 0 1000 0 c 0
 1110.4 0 1200 -89.5996 1200 -200 c 0
 1200 -310.4 1110.4 -400 1000 -400 c 0
 889.6 -400 800 -310.4 800 -200 c 0
0 900 m 1
 600 900 l 1
 600 1400 l 1
 700 1400 l 1
 700 900 l 1
 1300 900 l 1
 1300 1400 l 1
 1400 1400 l 1
 1400 900 l 1
 2000 900 l 1
 2000 800 l 1
 1400 800 l 1
 1400 200 l 1
 2000 200 l 1
 2000 100 l 1
 1400 100 l 1
 1400 -400 l 1
 1300 -400 l 1
 1300 100 l 1
 700 100 l 1
 700 -400 l 1
 600 -400 l 1
 600 100 l 1
 0 100 l 1
 0 200 l 1
 600 200 l 1
 600 800 l 1
 0 800 l 1
 0 900 l 1
1500 -200 m 0
 1500 -89.5996 1589.6 0 1700 0 c 0
 1810.4 0 1900 -89.5996 1900 -200 c 0
 1900 -310.4 1810.4 -400 1700 -400 c 0
 1589.6 -400 1500 -310.4 1500 -200 c 0
1300 200 m 1
 1300 800 l 1
 700 800 l 1
 700 200 l 1
 1300 200 l 1
1500 500 m 4
 1500 610.4 1589.6 700 1700 700 c 4
 1810.4 700 1900 610.4 1900 500 c 4
 1900 389.6 1810.4 300 1700 300 c 4
 1589.6 300 1500 389.6 1500 500 c 4
EndSplineSet
EndChar

StartChar: uniE20C
Encoding: 57868 57868 151
Width: 2000
VWidth: 0
Flags: HW
LayerCount: 2
Fore
SplineSet
100 -200 m 0
 100 -89.5996 189.6 0 300 0 c 0
 410.4 0 500 -89.5996 500 -200 c 0
 500 -310.4 410.4 -400 300 -400 c 0
 189.6 -400 100 -310.4 100 -200 c 0
0 900 m 1
 600 900 l 1
 600 1400 l 1
 700 1400 l 1
 700 900 l 1
 1300 900 l 1
 1300 1400 l 1
 1400 1400 l 1
 1400 900 l 1
 2000 900 l 1
 2000 800 l 1
 1400 800 l 1
 1400 200 l 1
 2000 200 l 1
 2000 100 l 1
 1400 100 l 1
 1400 -400 l 1
 1300 -400 l 1
 1300 100 l 1
 700 100 l 1
 700 -400 l 1
 600 -400 l 1
 600 100 l 1
 0 100 l 1
 0 200 l 1
 600 200 l 1
 600 800 l 1
 0 800 l 1
 0 900 l 1
1300 200 m 1
 1300 800 l 1
 700 800 l 1
 700 200 l 1
 1300 200 l 1
1500 500 m 4
 1500 610.4 1589.6 700 1700 700 c 4
 1810.4 700 1900 610.4 1900 500 c 4
 1900 389.6 1810.4 300 1700 300 c 4
 1589.6 300 1500 389.6 1500 500 c 4
EndSplineSet
EndChar

StartChar: uniE20D
Encoding: 57869 57869 152
Width: 2000
VWidth: 0
Flags: HW
LayerCount: 2
Fore
SplineSet
100 -200 m 0
 100 -89.5996 189.6 0 300 0 c 0
 410.4 0 500 -89.5996 500 -200 c 0
 500 -310.4 410.4 -400 300 -400 c 0
 189.6 -400 100 -310.4 100 -200 c 0
0 900 m 1
 600 900 l 1
 600 1400 l 1
 700 1400 l 1
 700 900 l 1
 1300 900 l 1
 1300 1400 l 1
 1400 1400 l 1
 1400 900 l 1
 2000 900 l 1
 2000 800 l 1
 1400 800 l 1
 1400 200 l 1
 2000 200 l 1
 2000 100 l 1
 1400 100 l 1
 1400 -400 l 1
 1300 -400 l 1
 1300 100 l 1
 700 100 l 1
 700 -400 l 1
 600 -400 l 1
 600 100 l 1
 0 100 l 1
 0 200 l 1
 600 200 l 1
 600 800 l 1
 0 800 l 1
 0 900 l 1
1500 -200 m 0
 1500 -89.5996 1589.6 0 1700 0 c 0
 1810.4 0 1900 -89.5996 1900 -200 c 0
 1900 -310.4 1810.4 -400 1700 -400 c 0
 1589.6 -400 1500 -310.4 1500 -200 c 0
1300 200 m 1
 1300 800 l 1
 700 800 l 1
 700 200 l 1
 1300 200 l 1
1500 500 m 4
 1500 610.4 1589.6 700 1700 700 c 4
 1810.4 700 1900 610.4 1900 500 c 4
 1900 389.6 1810.4 300 1700 300 c 4
 1589.6 300 1500 389.6 1500 500 c 4
EndSplineSet
EndChar

StartChar: uniE20E
Encoding: 57870 57870 153
Width: 2000
VWidth: 0
Flags: HW
LayerCount: 2
Fore
SplineSet
100 -200 m 0
 100 -89.5996 189.6 0 300 0 c 0
 410.4 0 500 -89.5996 500 -200 c 0
 500 -310.4 410.4 -400 300 -400 c 0
 189.6 -400 100 -310.4 100 -200 c 0
0 900 m 1
 600 900 l 1
 600 1400 l 1
 700 1400 l 1
 700 900 l 1
 1300 900 l 1
 1300 1400 l 1
 1400 1400 l 1
 1400 900 l 1
 2000 900 l 1
 2000 800 l 1
 1400 800 l 1
 1400 200 l 1
 2000 200 l 1
 2000 100 l 1
 1400 100 l 1
 1400 -400 l 1
 1300 -400 l 1
 1300 100 l 1
 700 100 l 1
 700 -400 l 1
 600 -400 l 1
 600 100 l 1
 0 100 l 1
 0 200 l 1
 600 200 l 1
 600 800 l 1
 0 800 l 1
 0 900 l 1
800 -200 m 0
 800 -89.5996 889.6 0 1000 0 c 0
 1110.4 0 1200 -89.5996 1200 -200 c 0
 1200 -310.4 1110.4 -400 1000 -400 c 0
 889.6 -400 800 -310.4 800 -200 c 0
1300 200 m 1
 1300 800 l 1
 700 800 l 1
 700 200 l 1
 1300 200 l 1
1500 500 m 4
 1500 610.4 1589.6 700 1700 700 c 4
 1810.4 700 1900 610.4 1900 500 c 4
 1900 389.6 1810.4 300 1700 300 c 4
 1589.6 300 1500 389.6 1500 500 c 4
EndSplineSet
EndChar

StartChar: uniE20F
Encoding: 57871 57871 154
Width: 2000
VWidth: 0
Flags: HW
LayerCount: 2
Fore
SplineSet
100 -200 m 0
 100 -89.5996 189.6 0 300 0 c 0
 410.4 0 500 -89.5996 500 -200 c 0
 500 -310.4 410.4 -400 300 -400 c 0
 189.6 -400 100 -310.4 100 -200 c 0
800 -200 m 0
 800 -89.5996 889.6 0 1000 0 c 0
 1110.4 0 1200 -89.5996 1200 -200 c 0
 1200 -310.4 1110.4 -400 1000 -400 c 0
 889.6 -400 800 -310.4 800 -200 c 0
0 900 m 1
 600 900 l 1
 600 1400 l 1
 700 1400 l 1
 700 900 l 1
 1300 900 l 1
 1300 1400 l 1
 1400 1400 l 1
 1400 900 l 1
 2000 900 l 1
 2000 800 l 1
 1400 800 l 1
 1400 200 l 1
 2000 200 l 1
 2000 100 l 1
 1400 100 l 1
 1400 -400 l 1
 1300 -400 l 1
 1300 100 l 1
 700 100 l 1
 700 -400 l 1
 600 -400 l 1
 600 100 l 1
 0 100 l 1
 0 200 l 1
 600 200 l 1
 600 800 l 1
 0 800 l 1
 0 900 l 1
1500 -200 m 0
 1500 -89.5996 1589.6 0 1700 0 c 0
 1810.4 0 1900 -89.5996 1900 -200 c 0
 1900 -310.4 1810.4 -400 1700 -400 c 0
 1589.6 -400 1500 -310.4 1500 -200 c 0
1300 200 m 1
 1300 800 l 1
 700 800 l 1
 700 200 l 1
 1300 200 l 1
1500 500 m 4
 1500 610.4 1589.6 700 1700 700 c 4
 1810.4 700 1900 610.4 1900 500 c 4
 1900 389.6 1810.4 300 1700 300 c 4
 1589.6 300 1500 389.6 1500 500 c 4
EndSplineSet
EndChar

StartChar: uniE210
Encoding: 57872 57872 155
Width: 2000
VWidth: 0
Flags: HW
LayerCount: 2
Fore
SplineSet
800 500 m 0
 800 610.4 889.6 700 1000 700 c 0
 1110.4 700 1200 610.4 1200 500 c 0
 1200 389.6 1110.4 300 1000 300 c 0
 889.6 300 800 389.6 800 500 c 0
0 900 m 1
 600 900 l 1
 600 1400 l 1
 700 1400 l 1
 700 900 l 1
 1300 900 l 1
 1300 1400 l 1
 1400 1400 l 1
 1400 900 l 1
 2000 900 l 1
 2000 800 l 1
 1400 800 l 1
 1400 200 l 1
 2000 200 l 1
 2000 100 l 1
 1400 100 l 1
 1400 -400 l 1
 1300 -400 l 1
 1300 100 l 1
 700 100 l 1
 700 -400 l 1
 600 -400 l 1
 600 100 l 1
 0 100 l 1
 0 200 l 1
 600 200 l 1
 600 800 l 1
 0 800 l 1
 0 900 l 1
1300 200 m 1
 1300 800 l 1
 700 800 l 1
 700 200 l 1
 1300 200 l 1
EndSplineSet
EndChar

StartChar: uniE211
Encoding: 57873 57873 156
Width: 2000
VWidth: 0
Flags: HW
LayerCount: 2
Fore
SplineSet
0 900 m 1
 600 900 l 1
 600 1400 l 1
 700 1400 l 1
 700 900 l 1
 1300 900 l 1
 1300 1400 l 1
 1400 1400 l 1
 1400 900 l 1
 2000 900 l 1
 2000 800 l 1
 1400 800 l 1
 1400 200 l 1
 2000 200 l 1
 2000 100 l 1
 1400 100 l 1
 1400 -400 l 1
 1300 -400 l 1
 1300 100 l 1
 700 100 l 1
 700 -400 l 1
 600 -400 l 1
 600 100 l 1
 0 100 l 1
 0 200 l 1
 600 200 l 1
 600 800 l 1
 0 800 l 1
 0 900 l 1
1500 -200 m 0
 1500 -89.5996 1589.6 0 1700 0 c 0
 1810.4 0 1900 -89.5996 1900 -200 c 0
 1900 -310.4 1810.4 -400 1700 -400 c 0
 1589.6 -400 1500 -310.4 1500 -200 c 0
1300 200 m 1
 1300 800 l 1
 700 800 l 1
 700 200 l 1
 1300 200 l 1
800 500 m 4
 800 610.4 889.6 700 1000 700 c 4
 1110.4 700 1200 610.4 1200 500 c 4
 1200 389.6 1110.4 300 1000 300 c 4
 889.6 300 800 389.6 800 500 c 4
EndSplineSet
EndChar

StartChar: uniE212
Encoding: 57874 57874 157
Width: 2000
VWidth: 0
Flags: HW
LayerCount: 2
Fore
SplineSet
0 900 m 1
 600 900 l 1
 600 1400 l 1
 700 1400 l 1
 700 900 l 1
 1300 900 l 1
 1300 1400 l 1
 1400 1400 l 1
 1400 900 l 1
 2000 900 l 1
 2000 800 l 1
 1400 800 l 1
 1400 200 l 1
 2000 200 l 1
 2000 100 l 1
 1400 100 l 1
 1400 -400 l 1
 1300 -400 l 1
 1300 100 l 1
 700 100 l 1
 700 -400 l 1
 600 -400 l 1
 600 100 l 1
 0 100 l 1
 0 200 l 1
 600 200 l 1
 600 800 l 1
 0 800 l 1
 0 900 l 1
800 -200 m 0
 800 -89.5996 889.6 0 1000 0 c 0
 1110.4 0 1200 -89.5996 1200 -200 c 0
 1200 -310.4 1110.4 -400 1000 -400 c 0
 889.6 -400 800 -310.4 800 -200 c 0
1300 200 m 1
 1300 800 l 1
 700 800 l 1
 700 200 l 1
 1300 200 l 1
800 500 m 4
 800 610.4 889.6 700 1000 700 c 4
 1110.4 700 1200 610.4 1200 500 c 4
 1200 389.6 1110.4 300 1000 300 c 4
 889.6 300 800 389.6 800 500 c 4
EndSplineSet
EndChar

StartChar: uniE213
Encoding: 57875 57875 158
Width: 2000
VWidth: 0
Flags: HW
LayerCount: 2
Fore
SplineSet
800 -200 m 0
 800 -89.5996 889.6 0 1000 0 c 0
 1110.4 0 1200 -89.5996 1200 -200 c 0
 1200 -310.4 1110.4 -400 1000 -400 c 0
 889.6 -400 800 -310.4 800 -200 c 0
0 900 m 1
 600 900 l 1
 600 1400 l 1
 700 1400 l 1
 700 900 l 1
 1300 900 l 1
 1300 1400 l 1
 1400 1400 l 1
 1400 900 l 1
 2000 900 l 1
 2000 800 l 1
 1400 800 l 1
 1400 200 l 1
 2000 200 l 1
 2000 100 l 1
 1400 100 l 1
 1400 -400 l 1
 1300 -400 l 1
 1300 100 l 1
 700 100 l 1
 700 -400 l 1
 600 -400 l 1
 600 100 l 1
 0 100 l 1
 0 200 l 1
 600 200 l 1
 600 800 l 1
 0 800 l 1
 0 900 l 1
1500 -200 m 0
 1500 -89.5996 1589.6 0 1700 0 c 0
 1810.4 0 1900 -89.5996 1900 -200 c 0
 1900 -310.4 1810.4 -400 1700 -400 c 0
 1589.6 -400 1500 -310.4 1500 -200 c 0
1300 200 m 1
 1300 800 l 1
 700 800 l 1
 700 200 l 1
 1300 200 l 1
800 500 m 4
 800 610.4 889.6 700 1000 700 c 4
 1110.4 700 1200 610.4 1200 500 c 4
 1200 389.6 1110.4 300 1000 300 c 4
 889.6 300 800 389.6 800 500 c 4
EndSplineSet
EndChar

StartChar: uniE214
Encoding: 57876 57876 159
Width: 2000
VWidth: 0
Flags: HW
LayerCount: 2
Fore
SplineSet
100 -200 m 0
 100 -89.5996 189.6 0 300 0 c 0
 410.4 0 500 -89.5996 500 -200 c 0
 500 -310.4 410.4 -400 300 -400 c 0
 189.6 -400 100 -310.4 100 -200 c 0
0 900 m 1
 600 900 l 1
 600 1400 l 1
 700 1400 l 1
 700 900 l 1
 1300 900 l 1
 1300 1400 l 1
 1400 1400 l 1
 1400 900 l 1
 2000 900 l 1
 2000 800 l 1
 1400 800 l 1
 1400 200 l 1
 2000 200 l 1
 2000 100 l 1
 1400 100 l 1
 1400 -400 l 1
 1300 -400 l 1
 1300 100 l 1
 700 100 l 1
 700 -400 l 1
 600 -400 l 1
 600 100 l 1
 0 100 l 1
 0 200 l 1
 600 200 l 1
 600 800 l 1
 0 800 l 1
 0 900 l 1
1300 200 m 1
 1300 800 l 1
 700 800 l 1
 700 200 l 1
 1300 200 l 1
800 500 m 4
 800 610.4 889.6 700 1000 700 c 4
 1110.4 700 1200 610.4 1200 500 c 4
 1200 389.6 1110.4 300 1000 300 c 4
 889.6 300 800 389.6 800 500 c 4
EndSplineSet
EndChar

StartChar: uniE215
Encoding: 57877 57877 160
Width: 2000
VWidth: 0
Flags: HW
LayerCount: 2
Fore
SplineSet
100 -200 m 0
 100 -89.5996 189.6 0 300 0 c 0
 410.4 0 500 -89.5996 500 -200 c 0
 500 -310.4 410.4 -400 300 -400 c 0
 189.6 -400 100 -310.4 100 -200 c 0
0 900 m 1
 600 900 l 1
 600 1400 l 1
 700 1400 l 1
 700 900 l 1
 1300 900 l 1
 1300 1400 l 1
 1400 1400 l 1
 1400 900 l 1
 2000 900 l 1
 2000 800 l 1
 1400 800 l 1
 1400 200 l 1
 2000 200 l 1
 2000 100 l 1
 1400 100 l 1
 1400 -400 l 1
 1300 -400 l 1
 1300 100 l 1
 700 100 l 1
 700 -400 l 1
 600 -400 l 1
 600 100 l 1
 0 100 l 1
 0 200 l 1
 600 200 l 1
 600 800 l 1
 0 800 l 1
 0 900 l 1
1500 -200 m 0
 1500 -89.5996 1589.6 0 1700 0 c 0
 1810.4 0 1900 -89.5996 1900 -200 c 0
 1900 -310.4 1810.4 -400 1700 -400 c 0
 1589.6 -400 1500 -310.4 1500 -200 c 0
1300 200 m 1
 1300 800 l 1
 700 800 l 1
 700 200 l 1
 1300 200 l 1
800 500 m 4
 800 610.4 889.6 700 1000 700 c 4
 1110.4 700 1200 610.4 1200 500 c 4
 1200 389.6 1110.4 300 1000 300 c 4
 889.6 300 800 389.6 800 500 c 4
EndSplineSet
EndChar

StartChar: uniE216
Encoding: 57878 57878 161
Width: 2000
VWidth: 0
Flags: HW
LayerCount: 2
Fore
SplineSet
100 -200 m 0
 100 -89.5996 189.6 0 300 0 c 0
 410.4 0 500 -89.5996 500 -200 c 0
 500 -310.4 410.4 -400 300 -400 c 0
 189.6 -400 100 -310.4 100 -200 c 0
0 900 m 1
 600 900 l 1
 600 1400 l 1
 700 1400 l 1
 700 900 l 1
 1300 900 l 1
 1300 1400 l 1
 1400 1400 l 1
 1400 900 l 1
 2000 900 l 1
 2000 800 l 1
 1400 800 l 1
 1400 200 l 1
 2000 200 l 1
 2000 100 l 1
 1400 100 l 1
 1400 -400 l 1
 1300 -400 l 1
 1300 100 l 1
 700 100 l 1
 700 -400 l 1
 600 -400 l 1
 600 100 l 1
 0 100 l 1
 0 200 l 1
 600 200 l 1
 600 800 l 1
 0 800 l 1
 0 900 l 1
800 -200 m 0
 800 -89.5996 889.6 0 1000 0 c 0
 1110.4 0 1200 -89.5996 1200 -200 c 0
 1200 -310.4 1110.4 -400 1000 -400 c 0
 889.6 -400 800 -310.4 800 -200 c 0
1300 200 m 1
 1300 800 l 1
 700 800 l 1
 700 200 l 1
 1300 200 l 1
800 500 m 4
 800 610.4 889.6 700 1000 700 c 4
 1110.4 700 1200 610.4 1200 500 c 4
 1200 389.6 1110.4 300 1000 300 c 4
 889.6 300 800 389.6 800 500 c 4
EndSplineSet
EndChar

StartChar: uniE217
Encoding: 57879 57879 162
Width: 2000
VWidth: 0
Flags: HW
LayerCount: 2
Fore
SplineSet
100 -200 m 0
 100 -89.5996 189.6 0 300 0 c 0
 410.4 0 500 -89.5996 500 -200 c 0
 500 -310.4 410.4 -400 300 -400 c 0
 189.6 -400 100 -310.4 100 -200 c 0
800 -200 m 0
 800 -89.5996 889.6 0 1000 0 c 0
 1110.4 0 1200 -89.5996 1200 -200 c 0
 1200 -310.4 1110.4 -400 1000 -400 c 0
 889.6 -400 800 -310.4 800 -200 c 0
0 900 m 1
 600 900 l 1
 600 1400 l 1
 700 1400 l 1
 700 900 l 1
 1300 900 l 1
 1300 1400 l 1
 1400 1400 l 1
 1400 900 l 1
 2000 900 l 1
 2000 800 l 1
 1400 800 l 1
 1400 200 l 1
 2000 200 l 1
 2000 100 l 1
 1400 100 l 1
 1400 -400 l 1
 1300 -400 l 1
 1300 100 l 1
 700 100 l 1
 700 -400 l 1
 600 -400 l 1
 600 100 l 1
 0 100 l 1
 0 200 l 1
 600 200 l 1
 600 800 l 1
 0 800 l 1
 0 900 l 1
1500 -200 m 0
 1500 -89.5996 1589.6 0 1700 0 c 0
 1810.4 0 1900 -89.5996 1900 -200 c 0
 1900 -310.4 1810.4 -400 1700 -400 c 0
 1589.6 -400 1500 -310.4 1500 -200 c 0
1300 200 m 1
 1300 800 l 1
 700 800 l 1
 700 200 l 1
 1300 200 l 1
800 500 m 4
 800 610.4 889.6 700 1000 700 c 4
 1110.4 700 1200 610.4 1200 500 c 4
 1200 389.6 1110.4 300 1000 300 c 4
 889.6 300 800 389.6 800 500 c 4
EndSplineSet
EndChar

StartChar: uniE218
Encoding: 57880 57880 163
Width: 2000
VWidth: 0
Flags: HW
LayerCount: 2
Fore
SplineSet
1500 500 m 0
 1500 610.4 1589.6 700 1700 700 c 0
 1810.4 700 1900 610.4 1900 500 c 0
 1900 389.6 1810.4 300 1700 300 c 0
 1589.6 300 1500 389.6 1500 500 c 0
0 900 m 1
 600 900 l 1
 600 1400 l 1
 700 1400 l 1
 700 900 l 1
 1300 900 l 1
 1300 1400 l 1
 1400 1400 l 1
 1400 900 l 1
 2000 900 l 1
 2000 800 l 1
 1400 800 l 1
 1400 200 l 1
 2000 200 l 1
 2000 100 l 1
 1400 100 l 1
 1400 -400 l 1
 1300 -400 l 1
 1300 100 l 1
 700 100 l 1
 700 -400 l 1
 600 -400 l 1
 600 100 l 1
 0 100 l 1
 0 200 l 1
 600 200 l 1
 600 800 l 1
 0 800 l 1
 0 900 l 1
1300 200 m 1
 1300 800 l 1
 700 800 l 1
 700 200 l 1
 1300 200 l 1
800 500 m 4
 800 610.4 889.6 700 1000 700 c 4
 1110.4 700 1200 610.4 1200 500 c 4
 1200 389.6 1110.4 300 1000 300 c 4
 889.6 300 800 389.6 800 500 c 4
EndSplineSet
EndChar

StartChar: uniE219
Encoding: 57881 57881 164
Width: 2000
VWidth: 0
Flags: HW
LayerCount: 2
Fore
SplineSet
0 900 m 1
 600 900 l 1
 600 1400 l 1
 700 1400 l 1
 700 900 l 1
 1300 900 l 1
 1300 1400 l 1
 1400 1400 l 1
 1400 900 l 1
 2000 900 l 1
 2000 800 l 1
 1400 800 l 1
 1400 200 l 1
 2000 200 l 1
 2000 100 l 1
 1400 100 l 1
 1400 -400 l 1
 1300 -400 l 1
 1300 100 l 1
 700 100 l 1
 700 -400 l 1
 600 -400 l 1
 600 100 l 1
 0 100 l 1
 0 200 l 1
 600 200 l 1
 600 800 l 1
 0 800 l 1
 0 900 l 1
1500 -200 m 0
 1500 -89.5996 1589.6 0 1700 0 c 0
 1810.4 0 1900 -89.5996 1900 -200 c 0
 1900 -310.4 1810.4 -400 1700 -400 c 0
 1589.6 -400 1500 -310.4 1500 -200 c 0
1300 200 m 1
 1300 800 l 1
 700 800 l 1
 700 200 l 1
 1300 200 l 1
1500 500 m 4
 1500 610.4 1589.6 700 1700 700 c 4
 1810.4 700 1900 610.4 1900 500 c 4
 1900 389.6 1810.4 300 1700 300 c 4
 1589.6 300 1500 389.6 1500 500 c 4
800 500 m 4
 800 610.4 889.6 700 1000 700 c 4
 1110.4 700 1200 610.4 1200 500 c 4
 1200 389.6 1110.4 300 1000 300 c 4
 889.6 300 800 389.6 800 500 c 4
EndSplineSet
EndChar

StartChar: uniE21A
Encoding: 57882 57882 165
Width: 2000
VWidth: 0
Flags: HW
LayerCount: 2
Fore
SplineSet
0 900 m 1
 600 900 l 1
 600 1400 l 1
 700 1400 l 1
 700 900 l 1
 1300 900 l 1
 1300 1400 l 1
 1400 1400 l 1
 1400 900 l 1
 2000 900 l 1
 2000 800 l 1
 1400 800 l 1
 1400 200 l 1
 2000 200 l 1
 2000 100 l 1
 1400 100 l 1
 1400 -400 l 1
 1300 -400 l 1
 1300 100 l 1
 700 100 l 1
 700 -400 l 1
 600 -400 l 1
 600 100 l 1
 0 100 l 1
 0 200 l 1
 600 200 l 1
 600 800 l 1
 0 800 l 1
 0 900 l 1
800 -200 m 0
 800 -89.5996 889.6 0 1000 0 c 0
 1110.4 0 1200 -89.5996 1200 -200 c 0
 1200 -310.4 1110.4 -400 1000 -400 c 0
 889.6 -400 800 -310.4 800 -200 c 0
1300 200 m 1
 1300 800 l 1
 700 800 l 1
 700 200 l 1
 1300 200 l 1
1500 500 m 4
 1500 610.4 1589.6 700 1700 700 c 4
 1810.4 700 1900 610.4 1900 500 c 4
 1900 389.6 1810.4 300 1700 300 c 4
 1589.6 300 1500 389.6 1500 500 c 4
800 500 m 4
 800 610.4 889.6 700 1000 700 c 4
 1110.4 700 1200 610.4 1200 500 c 4
 1200 389.6 1110.4 300 1000 300 c 4
 889.6 300 800 389.6 800 500 c 4
EndSplineSet
EndChar

StartChar: uniE21B
Encoding: 57883 57883 166
Width: 2000
VWidth: 0
Flags: HW
LayerCount: 2
Fore
SplineSet
800 -200 m 0
 800 -89.5996 889.6 0 1000 0 c 0
 1110.4 0 1200 -89.5996 1200 -200 c 0
 1200 -310.4 1110.4 -400 1000 -400 c 0
 889.6 -400 800 -310.4 800 -200 c 0
0 900 m 1
 600 900 l 1
 600 1400 l 1
 700 1400 l 1
 700 900 l 1
 1300 900 l 1
 1300 1400 l 1
 1400 1400 l 1
 1400 900 l 1
 2000 900 l 1
 2000 800 l 1
 1400 800 l 1
 1400 200 l 1
 2000 200 l 1
 2000 100 l 1
 1400 100 l 1
 1400 -400 l 1
 1300 -400 l 1
 1300 100 l 1
 700 100 l 1
 700 -400 l 1
 600 -400 l 1
 600 100 l 1
 0 100 l 1
 0 200 l 1
 600 200 l 1
 600 800 l 1
 0 800 l 1
 0 900 l 1
1500 -200 m 0
 1500 -89.5996 1589.6 0 1700 0 c 0
 1810.4 0 1900 -89.5996 1900 -200 c 0
 1900 -310.4 1810.4 -400 1700 -400 c 0
 1589.6 -400 1500 -310.4 1500 -200 c 0
1300 200 m 1
 1300 800 l 1
 700 800 l 1
 700 200 l 1
 1300 200 l 1
1500 500 m 4
 1500 610.4 1589.6 700 1700 700 c 4
 1810.4 700 1900 610.4 1900 500 c 4
 1900 389.6 1810.4 300 1700 300 c 4
 1589.6 300 1500 389.6 1500 500 c 4
800 500 m 4
 800 610.4 889.6 700 1000 700 c 4
 1110.4 700 1200 610.4 1200 500 c 4
 1200 389.6 1110.4 300 1000 300 c 4
 889.6 300 800 389.6 800 500 c 4
EndSplineSet
EndChar

StartChar: uniE21C
Encoding: 57884 57884 167
Width: 2000
VWidth: 0
Flags: HW
LayerCount: 2
Fore
SplineSet
100 -200 m 0
 100 -89.5996 189.6 0 300 0 c 0
 410.4 0 500 -89.5996 500 -200 c 0
 500 -310.4 410.4 -400 300 -400 c 0
 189.6 -400 100 -310.4 100 -200 c 0
0 900 m 1
 600 900 l 1
 600 1400 l 1
 700 1400 l 1
 700 900 l 1
 1300 900 l 1
 1300 1400 l 1
 1400 1400 l 1
 1400 900 l 1
 2000 900 l 1
 2000 800 l 1
 1400 800 l 1
 1400 200 l 1
 2000 200 l 1
 2000 100 l 1
 1400 100 l 1
 1400 -400 l 1
 1300 -400 l 1
 1300 100 l 1
 700 100 l 1
 700 -400 l 1
 600 -400 l 1
 600 100 l 1
 0 100 l 1
 0 200 l 1
 600 200 l 1
 600 800 l 1
 0 800 l 1
 0 900 l 1
1300 200 m 1
 1300 800 l 1
 700 800 l 1
 700 200 l 1
 1300 200 l 1
1500 500 m 4
 1500 610.4 1589.6 700 1700 700 c 4
 1810.4 700 1900 610.4 1900 500 c 4
 1900 389.6 1810.4 300 1700 300 c 4
 1589.6 300 1500 389.6 1500 500 c 4
800 500 m 4
 800 610.4 889.6 700 1000 700 c 4
 1110.4 700 1200 610.4 1200 500 c 4
 1200 389.6 1110.4 300 1000 300 c 4
 889.6 300 800 389.6 800 500 c 4
EndSplineSet
EndChar

StartChar: uniE21D
Encoding: 57885 57885 168
Width: 2000
VWidth: 0
Flags: HW
LayerCount: 2
Fore
SplineSet
100 -200 m 0
 100 -89.5996 189.6 0 300 0 c 0
 410.4 0 500 -89.5996 500 -200 c 0
 500 -310.4 410.4 -400 300 -400 c 0
 189.6 -400 100 -310.4 100 -200 c 0
0 900 m 1
 600 900 l 1
 600 1400 l 1
 700 1400 l 1
 700 900 l 1
 1300 900 l 1
 1300 1400 l 1
 1400 1400 l 1
 1400 900 l 1
 2000 900 l 1
 2000 800 l 1
 1400 800 l 1
 1400 200 l 1
 2000 200 l 1
 2000 100 l 1
 1400 100 l 1
 1400 -400 l 1
 1300 -400 l 1
 1300 100 l 1
 700 100 l 1
 700 -400 l 1
 600 -400 l 1
 600 100 l 1
 0 100 l 1
 0 200 l 1
 600 200 l 1
 600 800 l 1
 0 800 l 1
 0 900 l 1
1500 -200 m 0
 1500 -89.5996 1589.6 0 1700 0 c 0
 1810.4 0 1900 -89.5996 1900 -200 c 0
 1900 -310.4 1810.4 -400 1700 -400 c 0
 1589.6 -400 1500 -310.4 1500 -200 c 0
1300 200 m 1
 1300 800 l 1
 700 800 l 1
 700 200 l 1
 1300 200 l 1
1500 500 m 4
 1500 610.4 1589.6 700 1700 700 c 4
 1810.4 700 1900 610.4 1900 500 c 4
 1900 389.6 1810.4 300 1700 300 c 4
 1589.6 300 1500 389.6 1500 500 c 4
800 500 m 4
 800 610.4 889.6 700 1000 700 c 4
 1110.4 700 1200 610.4 1200 500 c 4
 1200 389.6 1110.4 300 1000 300 c 4
 889.6 300 800 389.6 800 500 c 4
EndSplineSet
EndChar

StartChar: uniE21E
Encoding: 57886 57886 169
Width: 2000
VWidth: 0
Flags: HW
LayerCount: 2
Fore
SplineSet
100 -200 m 0
 100 -89.5996 189.6 0 300 0 c 0
 410.4 0 500 -89.5996 500 -200 c 0
 500 -310.4 410.4 -400 300 -400 c 0
 189.6 -400 100 -310.4 100 -200 c 0
0 900 m 1
 600 900 l 1
 600 1400 l 1
 700 1400 l 1
 700 900 l 1
 1300 900 l 1
 1300 1400 l 1
 1400 1400 l 1
 1400 900 l 1
 2000 900 l 1
 2000 800 l 1
 1400 800 l 1
 1400 200 l 1
 2000 200 l 1
 2000 100 l 1
 1400 100 l 1
 1400 -400 l 1
 1300 -400 l 1
 1300 100 l 1
 700 100 l 1
 700 -400 l 1
 600 -400 l 1
 600 100 l 1
 0 100 l 1
 0 200 l 1
 600 200 l 1
 600 800 l 1
 0 800 l 1
 0 900 l 1
800 -200 m 0
 800 -89.5996 889.6 0 1000 0 c 0
 1110.4 0 1200 -89.5996 1200 -200 c 0
 1200 -310.4 1110.4 -400 1000 -400 c 0
 889.6 -400 800 -310.4 800 -200 c 0
1300 200 m 1
 1300 800 l 1
 700 800 l 1
 700 200 l 1
 1300 200 l 1
1500 500 m 4
 1500 610.4 1589.6 700 1700 700 c 4
 1810.4 700 1900 610.4 1900 500 c 4
 1900 389.6 1810.4 300 1700 300 c 4
 1589.6 300 1500 389.6 1500 500 c 4
800 500 m 4
 800 610.4 889.6 700 1000 700 c 4
 1110.4 700 1200 610.4 1200 500 c 4
 1200 389.6 1110.4 300 1000 300 c 4
 889.6 300 800 389.6 800 500 c 4
EndSplineSet
EndChar

StartChar: uniE21F
Encoding: 57887 57887 170
Width: 2000
VWidth: 0
Flags: HW
LayerCount: 2
Fore
SplineSet
100 -200 m 0
 100 -89.5996 189.6 0 300 0 c 0
 410.4 0 500 -89.5996 500 -200 c 0
 500 -310.4 410.4 -400 300 -400 c 0
 189.6 -400 100 -310.4 100 -200 c 0
800 -200 m 0
 800 -89.5996 889.6 0 1000 0 c 0
 1110.4 0 1200 -89.5996 1200 -200 c 0
 1200 -310.4 1110.4 -400 1000 -400 c 0
 889.6 -400 800 -310.4 800 -200 c 0
0 900 m 1
 600 900 l 1
 600 1400 l 1
 700 1400 l 1
 700 900 l 1
 1300 900 l 1
 1300 1400 l 1
 1400 1400 l 1
 1400 900 l 1
 2000 900 l 1
 2000 800 l 1
 1400 800 l 1
 1400 200 l 1
 2000 200 l 1
 2000 100 l 1
 1400 100 l 1
 1400 -400 l 1
 1300 -400 l 1
 1300 100 l 1
 700 100 l 1
 700 -400 l 1
 600 -400 l 1
 600 100 l 1
 0 100 l 1
 0 200 l 1
 600 200 l 1
 600 800 l 1
 0 800 l 1
 0 900 l 1
1500 -200 m 0
 1500 -89.5996 1589.6 0 1700 0 c 0
 1810.4 0 1900 -89.5996 1900 -200 c 0
 1900 -310.4 1810.4 -400 1700 -400 c 0
 1589.6 -400 1500 -310.4 1500 -200 c 0
1300 200 m 1
 1300 800 l 1
 700 800 l 1
 700 200 l 1
 1300 200 l 1
1500 500 m 4
 1500 610.4 1589.6 700 1700 700 c 4
 1810.4 700 1900 610.4 1900 500 c 4
 1900 389.6 1810.4 300 1700 300 c 4
 1589.6 300 1500 389.6 1500 500 c 4
800 500 m 4
 800 610.4 889.6 700 1000 700 c 4
 1110.4 700 1200 610.4 1200 500 c 4
 1200 389.6 1110.4 300 1000 300 c 4
 889.6 300 800 389.6 800 500 c 4
EndSplineSet
EndChar

StartChar: uniE220
Encoding: 57888 57888 171
Width: 2000
VWidth: 0
Flags: HW
LayerCount: 2
Fore
SplineSet
100 500 m 0
 100 610.4 189.6 700 300 700 c 0
 410.4 700 500 610.4 500 500 c 0
 500 389.6 410.4 300 300 300 c 0
 189.6 300 100 389.6 100 500 c 0
0 900 m 1
 600 900 l 1
 600 1400 l 1
 700 1400 l 1
 700 900 l 1
 1300 900 l 1
 1300 1400 l 1
 1400 1400 l 1
 1400 900 l 1
 2000 900 l 1
 2000 800 l 1
 1400 800 l 1
 1400 200 l 1
 2000 200 l 1
 2000 100 l 1
 1400 100 l 1
 1400 -400 l 1
 1300 -400 l 1
 1300 100 l 1
 700 100 l 1
 700 -400 l 1
 600 -400 l 1
 600 100 l 1
 0 100 l 1
 0 200 l 1
 600 200 l 1
 600 800 l 1
 0 800 l 1
 0 900 l 1
1300 200 m 1
 1300 800 l 1
 700 800 l 1
 700 200 l 1
 1300 200 l 1
EndSplineSet
EndChar

StartChar: uniE221
Encoding: 57889 57889 172
Width: 2000
VWidth: 0
Flags: HW
LayerCount: 2
Fore
SplineSet
0 900 m 1
 600 900 l 1
 600 1400 l 1
 700 1400 l 1
 700 900 l 1
 1300 900 l 1
 1300 1400 l 1
 1400 1400 l 1
 1400 900 l 1
 2000 900 l 1
 2000 800 l 1
 1400 800 l 1
 1400 200 l 1
 2000 200 l 1
 2000 100 l 1
 1400 100 l 1
 1400 -400 l 1
 1300 -400 l 1
 1300 100 l 1
 700 100 l 1
 700 -400 l 1
 600 -400 l 1
 600 100 l 1
 0 100 l 1
 0 200 l 1
 600 200 l 1
 600 800 l 1
 0 800 l 1
 0 900 l 1
1500 -200 m 0
 1500 -89.5996 1589.6 0 1700 0 c 0
 1810.4 0 1900 -89.5996 1900 -200 c 0
 1900 -310.4 1810.4 -400 1700 -400 c 0
 1589.6 -400 1500 -310.4 1500 -200 c 0
1300 200 m 1
 1300 800 l 1
 700 800 l 1
 700 200 l 1
 1300 200 l 1
100 500 m 4
 100 610.4 189.6 700 300 700 c 4
 410.4 700 500 610.4 500 500 c 4
 500 389.6 410.4 300 300 300 c 4
 189.6 300 100 389.6 100 500 c 4
EndSplineSet
EndChar

StartChar: uniE222
Encoding: 57890 57890 173
Width: 2000
VWidth: 0
Flags: HW
LayerCount: 2
Fore
SplineSet
0 900 m 1
 600 900 l 1
 600 1400 l 1
 700 1400 l 1
 700 900 l 1
 1300 900 l 1
 1300 1400 l 1
 1400 1400 l 1
 1400 900 l 1
 2000 900 l 1
 2000 800 l 1
 1400 800 l 1
 1400 200 l 1
 2000 200 l 1
 2000 100 l 1
 1400 100 l 1
 1400 -400 l 1
 1300 -400 l 1
 1300 100 l 1
 700 100 l 1
 700 -400 l 1
 600 -400 l 1
 600 100 l 1
 0 100 l 1
 0 200 l 1
 600 200 l 1
 600 800 l 1
 0 800 l 1
 0 900 l 1
800 -200 m 0
 800 -89.5996 889.6 0 1000 0 c 0
 1110.4 0 1200 -89.5996 1200 -200 c 0
 1200 -310.4 1110.4 -400 1000 -400 c 0
 889.6 -400 800 -310.4 800 -200 c 0
1300 200 m 1
 1300 800 l 1
 700 800 l 1
 700 200 l 1
 1300 200 l 1
100 500 m 4
 100 610.4 189.6 700 300 700 c 4
 410.4 700 500 610.4 500 500 c 4
 500 389.6 410.4 300 300 300 c 4
 189.6 300 100 389.6 100 500 c 4
EndSplineSet
EndChar

StartChar: uniE223
Encoding: 57891 57891 174
Width: 2000
VWidth: 0
Flags: HW
LayerCount: 2
Fore
SplineSet
800 -200 m 0
 800 -89.5996 889.6 0 1000 0 c 0
 1110.4 0 1200 -89.5996 1200 -200 c 0
 1200 -310.4 1110.4 -400 1000 -400 c 0
 889.6 -400 800 -310.4 800 -200 c 0
0 900 m 1
 600 900 l 1
 600 1400 l 1
 700 1400 l 1
 700 900 l 1
 1300 900 l 1
 1300 1400 l 1
 1400 1400 l 1
 1400 900 l 1
 2000 900 l 1
 2000 800 l 1
 1400 800 l 1
 1400 200 l 1
 2000 200 l 1
 2000 100 l 1
 1400 100 l 1
 1400 -400 l 1
 1300 -400 l 1
 1300 100 l 1
 700 100 l 1
 700 -400 l 1
 600 -400 l 1
 600 100 l 1
 0 100 l 1
 0 200 l 1
 600 200 l 1
 600 800 l 1
 0 800 l 1
 0 900 l 1
1500 -200 m 0
 1500 -89.5996 1589.6 0 1700 0 c 0
 1810.4 0 1900 -89.5996 1900 -200 c 0
 1900 -310.4 1810.4 -400 1700 -400 c 0
 1589.6 -400 1500 -310.4 1500 -200 c 0
1300 200 m 1
 1300 800 l 1
 700 800 l 1
 700 200 l 1
 1300 200 l 1
100 500 m 4
 100 610.4 189.6 700 300 700 c 4
 410.4 700 500 610.4 500 500 c 4
 500 389.6 410.4 300 300 300 c 4
 189.6 300 100 389.6 100 500 c 4
EndSplineSet
EndChar

StartChar: uniE224
Encoding: 57892 57892 175
Width: 2000
VWidth: 0
Flags: HW
LayerCount: 2
Fore
SplineSet
100 -200 m 0
 100 -89.5996 189.6 0 300 0 c 0
 410.4 0 500 -89.5996 500 -200 c 0
 500 -310.4 410.4 -400 300 -400 c 0
 189.6 -400 100 -310.4 100 -200 c 0
0 900 m 1
 600 900 l 1
 600 1400 l 1
 700 1400 l 1
 700 900 l 1
 1300 900 l 1
 1300 1400 l 1
 1400 1400 l 1
 1400 900 l 1
 2000 900 l 1
 2000 800 l 1
 1400 800 l 1
 1400 200 l 1
 2000 200 l 1
 2000 100 l 1
 1400 100 l 1
 1400 -400 l 1
 1300 -400 l 1
 1300 100 l 1
 700 100 l 1
 700 -400 l 1
 600 -400 l 1
 600 100 l 1
 0 100 l 1
 0 200 l 1
 600 200 l 1
 600 800 l 1
 0 800 l 1
 0 900 l 1
1300 200 m 1
 1300 800 l 1
 700 800 l 1
 700 200 l 1
 1300 200 l 1
100 500 m 4
 100 610.4 189.6 700 300 700 c 4
 410.4 700 500 610.4 500 500 c 4
 500 389.6 410.4 300 300 300 c 4
 189.6 300 100 389.6 100 500 c 4
EndSplineSet
EndChar

StartChar: uniE225
Encoding: 57893 57893 176
Width: 2000
VWidth: 0
Flags: HW
LayerCount: 2
Fore
SplineSet
100 -200 m 0
 100 -89.5996 189.6 0 300 0 c 0
 410.4 0 500 -89.5996 500 -200 c 0
 500 -310.4 410.4 -400 300 -400 c 0
 189.6 -400 100 -310.4 100 -200 c 0
0 900 m 1
 600 900 l 1
 600 1400 l 1
 700 1400 l 1
 700 900 l 1
 1300 900 l 1
 1300 1400 l 1
 1400 1400 l 1
 1400 900 l 1
 2000 900 l 1
 2000 800 l 1
 1400 800 l 1
 1400 200 l 1
 2000 200 l 1
 2000 100 l 1
 1400 100 l 1
 1400 -400 l 1
 1300 -400 l 1
 1300 100 l 1
 700 100 l 1
 700 -400 l 1
 600 -400 l 1
 600 100 l 1
 0 100 l 1
 0 200 l 1
 600 200 l 1
 600 800 l 1
 0 800 l 1
 0 900 l 1
1500 -200 m 0
 1500 -89.5996 1589.6 0 1700 0 c 0
 1810.4 0 1900 -89.5996 1900 -200 c 0
 1900 -310.4 1810.4 -400 1700 -400 c 0
 1589.6 -400 1500 -310.4 1500 -200 c 0
1300 200 m 1
 1300 800 l 1
 700 800 l 1
 700 200 l 1
 1300 200 l 1
100 500 m 4
 100 610.4 189.6 700 300 700 c 4
 410.4 700 500 610.4 500 500 c 4
 500 389.6 410.4 300 300 300 c 4
 189.6 300 100 389.6 100 500 c 4
EndSplineSet
EndChar

StartChar: uniE226
Encoding: 57894 57894 177
Width: 2000
VWidth: 0
Flags: HW
LayerCount: 2
Fore
SplineSet
100 -200 m 0
 100 -89.5996 189.6 0 300 0 c 0
 410.4 0 500 -89.5996 500 -200 c 0
 500 -310.4 410.4 -400 300 -400 c 0
 189.6 -400 100 -310.4 100 -200 c 0
0 900 m 1
 600 900 l 1
 600 1400 l 1
 700 1400 l 1
 700 900 l 1
 1300 900 l 1
 1300 1400 l 1
 1400 1400 l 1
 1400 900 l 1
 2000 900 l 1
 2000 800 l 1
 1400 800 l 1
 1400 200 l 1
 2000 200 l 1
 2000 100 l 1
 1400 100 l 1
 1400 -400 l 1
 1300 -400 l 1
 1300 100 l 1
 700 100 l 1
 700 -400 l 1
 600 -400 l 1
 600 100 l 1
 0 100 l 1
 0 200 l 1
 600 200 l 1
 600 800 l 1
 0 800 l 1
 0 900 l 1
800 -200 m 0
 800 -89.5996 889.6 0 1000 0 c 0
 1110.4 0 1200 -89.5996 1200 -200 c 0
 1200 -310.4 1110.4 -400 1000 -400 c 0
 889.6 -400 800 -310.4 800 -200 c 0
1300 200 m 1
 1300 800 l 1
 700 800 l 1
 700 200 l 1
 1300 200 l 1
100 500 m 4
 100 610.4 189.6 700 300 700 c 4
 410.4 700 500 610.4 500 500 c 4
 500 389.6 410.4 300 300 300 c 4
 189.6 300 100 389.6 100 500 c 4
EndSplineSet
EndChar

StartChar: uniE227
Encoding: 57895 57895 178
Width: 2000
VWidth: 0
Flags: HW
LayerCount: 2
Fore
SplineSet
100 -200 m 0
 100 -89.5996 189.6 0 300 0 c 0
 410.4 0 500 -89.5996 500 -200 c 0
 500 -310.4 410.4 -400 300 -400 c 0
 189.6 -400 100 -310.4 100 -200 c 0
800 -200 m 0
 800 -89.5996 889.6 0 1000 0 c 0
 1110.4 0 1200 -89.5996 1200 -200 c 0
 1200 -310.4 1110.4 -400 1000 -400 c 0
 889.6 -400 800 -310.4 800 -200 c 0
0 900 m 1
 600 900 l 1
 600 1400 l 1
 700 1400 l 1
 700 900 l 1
 1300 900 l 1
 1300 1400 l 1
 1400 1400 l 1
 1400 900 l 1
 2000 900 l 1
 2000 800 l 1
 1400 800 l 1
 1400 200 l 1
 2000 200 l 1
 2000 100 l 1
 1400 100 l 1
 1400 -400 l 1
 1300 -400 l 1
 1300 100 l 1
 700 100 l 1
 700 -400 l 1
 600 -400 l 1
 600 100 l 1
 0 100 l 1
 0 200 l 1
 600 200 l 1
 600 800 l 1
 0 800 l 1
 0 900 l 1
1500 -200 m 0
 1500 -89.5996 1589.6 0 1700 0 c 0
 1810.4 0 1900 -89.5996 1900 -200 c 0
 1900 -310.4 1810.4 -400 1700 -400 c 0
 1589.6 -400 1500 -310.4 1500 -200 c 0
1300 200 m 1
 1300 800 l 1
 700 800 l 1
 700 200 l 1
 1300 200 l 1
100 500 m 4
 100 610.4 189.6 700 300 700 c 4
 410.4 700 500 610.4 500 500 c 4
 500 389.6 410.4 300 300 300 c 4
 189.6 300 100 389.6 100 500 c 4
EndSplineSet
EndChar

StartChar: uniE228
Encoding: 57896 57896 179
Width: 2000
VWidth: 0
Flags: HW
LayerCount: 2
Fore
SplineSet
1500 500 m 0
 1500 610.4 1589.6 700 1700 700 c 0
 1810.4 700 1900 610.4 1900 500 c 0
 1900 389.6 1810.4 300 1700 300 c 0
 1589.6 300 1500 389.6 1500 500 c 0
0 900 m 1
 600 900 l 1
 600 1400 l 1
 700 1400 l 1
 700 900 l 1
 1300 900 l 1
 1300 1400 l 1
 1400 1400 l 1
 1400 900 l 1
 2000 900 l 1
 2000 800 l 1
 1400 800 l 1
 1400 200 l 1
 2000 200 l 1
 2000 100 l 1
 1400 100 l 1
 1400 -400 l 1
 1300 -400 l 1
 1300 100 l 1
 700 100 l 1
 700 -400 l 1
 600 -400 l 1
 600 100 l 1
 0 100 l 1
 0 200 l 1
 600 200 l 1
 600 800 l 1
 0 800 l 1
 0 900 l 1
1300 200 m 1
 1300 800 l 1
 700 800 l 1
 700 200 l 1
 1300 200 l 1
100 500 m 4
 100 610.4 189.6 700 300 700 c 4
 410.4 700 500 610.4 500 500 c 4
 500 389.6 410.4 300 300 300 c 4
 189.6 300 100 389.6 100 500 c 4
EndSplineSet
EndChar

StartChar: uniE229
Encoding: 57897 57897 180
Width: 2000
VWidth: 0
Flags: HW
LayerCount: 2
Fore
SplineSet
0 900 m 1
 600 900 l 1
 600 1400 l 1
 700 1400 l 1
 700 900 l 1
 1300 900 l 1
 1300 1400 l 1
 1400 1400 l 1
 1400 900 l 1
 2000 900 l 1
 2000 800 l 1
 1400 800 l 1
 1400 200 l 1
 2000 200 l 1
 2000 100 l 1
 1400 100 l 1
 1400 -400 l 1
 1300 -400 l 1
 1300 100 l 1
 700 100 l 1
 700 -400 l 1
 600 -400 l 1
 600 100 l 1
 0 100 l 1
 0 200 l 1
 600 200 l 1
 600 800 l 1
 0 800 l 1
 0 900 l 1
1500 -200 m 0
 1500 -89.5996 1589.6 0 1700 0 c 0
 1810.4 0 1900 -89.5996 1900 -200 c 0
 1900 -310.4 1810.4 -400 1700 -400 c 0
 1589.6 -400 1500 -310.4 1500 -200 c 0
1300 200 m 1
 1300 800 l 1
 700 800 l 1
 700 200 l 1
 1300 200 l 1
1500 500 m 4
 1500 610.4 1589.6 700 1700 700 c 4
 1810.4 700 1900 610.4 1900 500 c 4
 1900 389.6 1810.4 300 1700 300 c 4
 1589.6 300 1500 389.6 1500 500 c 4
100 500 m 4
 100 610.4 189.6 700 300 700 c 4
 410.4 700 500 610.4 500 500 c 4
 500 389.6 410.4 300 300 300 c 4
 189.6 300 100 389.6 100 500 c 4
EndSplineSet
EndChar

StartChar: uniE22A
Encoding: 57898 57898 181
Width: 2000
VWidth: 0
Flags: HW
LayerCount: 2
Fore
SplineSet
0 900 m 1
 600 900 l 1
 600 1400 l 1
 700 1400 l 1
 700 900 l 1
 1300 900 l 1
 1300 1400 l 1
 1400 1400 l 1
 1400 900 l 1
 2000 900 l 1
 2000 800 l 1
 1400 800 l 1
 1400 200 l 1
 2000 200 l 1
 2000 100 l 1
 1400 100 l 1
 1400 -400 l 1
 1300 -400 l 1
 1300 100 l 1
 700 100 l 1
 700 -400 l 1
 600 -400 l 1
 600 100 l 1
 0 100 l 1
 0 200 l 1
 600 200 l 1
 600 800 l 1
 0 800 l 1
 0 900 l 1
800 -200 m 0
 800 -89.5996 889.6 0 1000 0 c 0
 1110.4 0 1200 -89.5996 1200 -200 c 0
 1200 -310.4 1110.4 -400 1000 -400 c 0
 889.6 -400 800 -310.4 800 -200 c 0
1300 200 m 1
 1300 800 l 1
 700 800 l 1
 700 200 l 1
 1300 200 l 1
1500 500 m 4
 1500 610.4 1589.6 700 1700 700 c 4
 1810.4 700 1900 610.4 1900 500 c 4
 1900 389.6 1810.4 300 1700 300 c 4
 1589.6 300 1500 389.6 1500 500 c 4
100 500 m 4
 100 610.4 189.6 700 300 700 c 4
 410.4 700 500 610.4 500 500 c 4
 500 389.6 410.4 300 300 300 c 4
 189.6 300 100 389.6 100 500 c 4
EndSplineSet
EndChar

StartChar: uniE22B
Encoding: 57899 57899 182
Width: 2000
VWidth: 0
Flags: HW
LayerCount: 2
Fore
SplineSet
800 -200 m 0
 800 -89.5996 889.6 0 1000 0 c 0
 1110.4 0 1200 -89.5996 1200 -200 c 0
 1200 -310.4 1110.4 -400 1000 -400 c 0
 889.6 -400 800 -310.4 800 -200 c 0
0 900 m 1
 600 900 l 1
 600 1400 l 1
 700 1400 l 1
 700 900 l 1
 1300 900 l 1
 1300 1400 l 1
 1400 1400 l 1
 1400 900 l 1
 2000 900 l 1
 2000 800 l 1
 1400 800 l 1
 1400 200 l 1
 2000 200 l 1
 2000 100 l 1
 1400 100 l 1
 1400 -400 l 1
 1300 -400 l 1
 1300 100 l 1
 700 100 l 1
 700 -400 l 1
 600 -400 l 1
 600 100 l 1
 0 100 l 1
 0 200 l 1
 600 200 l 1
 600 800 l 1
 0 800 l 1
 0 900 l 1
1500 -200 m 0
 1500 -89.5996 1589.6 0 1700 0 c 0
 1810.4 0 1900 -89.5996 1900 -200 c 0
 1900 -310.4 1810.4 -400 1700 -400 c 0
 1589.6 -400 1500 -310.4 1500 -200 c 0
1300 200 m 1
 1300 800 l 1
 700 800 l 1
 700 200 l 1
 1300 200 l 1
1500 500 m 4
 1500 610.4 1589.6 700 1700 700 c 4
 1810.4 700 1900 610.4 1900 500 c 4
 1900 389.6 1810.4 300 1700 300 c 4
 1589.6 300 1500 389.6 1500 500 c 4
100 500 m 4
 100 610.4 189.6 700 300 700 c 4
 410.4 700 500 610.4 500 500 c 4
 500 389.6 410.4 300 300 300 c 4
 189.6 300 100 389.6 100 500 c 4
EndSplineSet
EndChar

StartChar: uniE22C
Encoding: 57900 57900 183
Width: 2000
VWidth: 0
Flags: HW
LayerCount: 2
Fore
SplineSet
100 -200 m 0
 100 -89.5996 189.6 0 300 0 c 0
 410.4 0 500 -89.5996 500 -200 c 0
 500 -310.4 410.4 -400 300 -400 c 0
 189.6 -400 100 -310.4 100 -200 c 0
0 900 m 1
 600 900 l 1
 600 1400 l 1
 700 1400 l 1
 700 900 l 1
 1300 900 l 1
 1300 1400 l 1
 1400 1400 l 1
 1400 900 l 1
 2000 900 l 1
 2000 800 l 1
 1400 800 l 1
 1400 200 l 1
 2000 200 l 1
 2000 100 l 1
 1400 100 l 1
 1400 -400 l 1
 1300 -400 l 1
 1300 100 l 1
 700 100 l 1
 700 -400 l 1
 600 -400 l 1
 600 100 l 1
 0 100 l 1
 0 200 l 1
 600 200 l 1
 600 800 l 1
 0 800 l 1
 0 900 l 1
1300 200 m 1
 1300 800 l 1
 700 800 l 1
 700 200 l 1
 1300 200 l 1
1500 500 m 4
 1500 610.4 1589.6 700 1700 700 c 4
 1810.4 700 1900 610.4 1900 500 c 4
 1900 389.6 1810.4 300 1700 300 c 4
 1589.6 300 1500 389.6 1500 500 c 4
100 500 m 4
 100 610.4 189.6 700 300 700 c 4
 410.4 700 500 610.4 500 500 c 4
 500 389.6 410.4 300 300 300 c 4
 189.6 300 100 389.6 100 500 c 4
EndSplineSet
EndChar

StartChar: uniE22D
Encoding: 57901 57901 184
Width: 2000
VWidth: 0
Flags: HW
LayerCount: 2
Fore
SplineSet
100 -200 m 0
 100 -89.5996 189.6 0 300 0 c 0
 410.4 0 500 -89.5996 500 -200 c 0
 500 -310.4 410.4 -400 300 -400 c 0
 189.6 -400 100 -310.4 100 -200 c 0
0 900 m 1
 600 900 l 1
 600 1400 l 1
 700 1400 l 1
 700 900 l 1
 1300 900 l 1
 1300 1400 l 1
 1400 1400 l 1
 1400 900 l 1
 2000 900 l 1
 2000 800 l 1
 1400 800 l 1
 1400 200 l 1
 2000 200 l 1
 2000 100 l 1
 1400 100 l 1
 1400 -400 l 1
 1300 -400 l 1
 1300 100 l 1
 700 100 l 1
 700 -400 l 1
 600 -400 l 1
 600 100 l 1
 0 100 l 1
 0 200 l 1
 600 200 l 1
 600 800 l 1
 0 800 l 1
 0 900 l 1
1500 -200 m 0
 1500 -89.5996 1589.6 0 1700 0 c 0
 1810.4 0 1900 -89.5996 1900 -200 c 0
 1900 -310.4 1810.4 -400 1700 -400 c 0
 1589.6 -400 1500 -310.4 1500 -200 c 0
1300 200 m 1
 1300 800 l 1
 700 800 l 1
 700 200 l 1
 1300 200 l 1
1500 500 m 4
 1500 610.4 1589.6 700 1700 700 c 4
 1810.4 700 1900 610.4 1900 500 c 4
 1900 389.6 1810.4 300 1700 300 c 4
 1589.6 300 1500 389.6 1500 500 c 4
100 500 m 4
 100 610.4 189.6 700 300 700 c 4
 410.4 700 500 610.4 500 500 c 4
 500 389.6 410.4 300 300 300 c 4
 189.6 300 100 389.6 100 500 c 4
EndSplineSet
EndChar

StartChar: uniE22E
Encoding: 57902 57902 185
Width: 2000
VWidth: 0
Flags: HW
LayerCount: 2
Fore
SplineSet
100 -200 m 0
 100 -89.5996 189.6 0 300 0 c 0
 410.4 0 500 -89.5996 500 -200 c 0
 500 -310.4 410.4 -400 300 -400 c 0
 189.6 -400 100 -310.4 100 -200 c 0
0 900 m 1
 600 900 l 1
 600 1400 l 1
 700 1400 l 1
 700 900 l 1
 1300 900 l 1
 1300 1400 l 1
 1400 1400 l 1
 1400 900 l 1
 2000 900 l 1
 2000 800 l 1
 1400 800 l 1
 1400 200 l 1
 2000 200 l 1
 2000 100 l 1
 1400 100 l 1
 1400 -400 l 1
 1300 -400 l 1
 1300 100 l 1
 700 100 l 1
 700 -400 l 1
 600 -400 l 1
 600 100 l 1
 0 100 l 1
 0 200 l 1
 600 200 l 1
 600 800 l 1
 0 800 l 1
 0 900 l 1
800 -200 m 0
 800 -89.5996 889.6 0 1000 0 c 0
 1110.4 0 1200 -89.5996 1200 -200 c 0
 1200 -310.4 1110.4 -400 1000 -400 c 0
 889.6 -400 800 -310.4 800 -200 c 0
1300 200 m 1
 1300 800 l 1
 700 800 l 1
 700 200 l 1
 1300 200 l 1
1500 500 m 4
 1500 610.4 1589.6 700 1700 700 c 4
 1810.4 700 1900 610.4 1900 500 c 4
 1900 389.6 1810.4 300 1700 300 c 4
 1589.6 300 1500 389.6 1500 500 c 4
100 500 m 4
 100 610.4 189.6 700 300 700 c 4
 410.4 700 500 610.4 500 500 c 4
 500 389.6 410.4 300 300 300 c 4
 189.6 300 100 389.6 100 500 c 4
EndSplineSet
EndChar

StartChar: uniE22F
Encoding: 57903 57903 186
Width: 2000
VWidth: 0
Flags: HW
LayerCount: 2
Fore
SplineSet
100 -200 m 0
 100 -89.5996 189.6 0 300 0 c 0
 410.4 0 500 -89.5996 500 -200 c 0
 500 -310.4 410.4 -400 300 -400 c 0
 189.6 -400 100 -310.4 100 -200 c 0
800 -200 m 0
 800 -89.5996 889.6 0 1000 0 c 0
 1110.4 0 1200 -89.5996 1200 -200 c 0
 1200 -310.4 1110.4 -400 1000 -400 c 0
 889.6 -400 800 -310.4 800 -200 c 0
0 900 m 1
 600 900 l 1
 600 1400 l 1
 700 1400 l 1
 700 900 l 1
 1300 900 l 1
 1300 1400 l 1
 1400 1400 l 1
 1400 900 l 1
 2000 900 l 1
 2000 800 l 1
 1400 800 l 1
 1400 200 l 1
 2000 200 l 1
 2000 100 l 1
 1400 100 l 1
 1400 -400 l 1
 1300 -400 l 1
 1300 100 l 1
 700 100 l 1
 700 -400 l 1
 600 -400 l 1
 600 100 l 1
 0 100 l 1
 0 200 l 1
 600 200 l 1
 600 800 l 1
 0 800 l 1
 0 900 l 1
1500 -200 m 0
 1500 -89.5996 1589.6 0 1700 0 c 0
 1810.4 0 1900 -89.5996 1900 -200 c 0
 1900 -310.4 1810.4 -400 1700 -400 c 0
 1589.6 -400 1500 -310.4 1500 -200 c 0
1300 200 m 1
 1300 800 l 1
 700 800 l 1
 700 200 l 1
 1300 200 l 1
1500 500 m 4
 1500 610.4 1589.6 700 1700 700 c 4
 1810.4 700 1900 610.4 1900 500 c 4
 1900 389.6 1810.4 300 1700 300 c 4
 1589.6 300 1500 389.6 1500 500 c 4
100 500 m 4
 100 610.4 189.6 700 300 700 c 4
 410.4 700 500 610.4 500 500 c 4
 500 389.6 410.4 300 300 300 c 4
 189.6 300 100 389.6 100 500 c 4
EndSplineSet
EndChar

StartChar: uniE230
Encoding: 57904 57904 187
Width: 2000
VWidth: 0
Flags: HW
LayerCount: 2
Fore
SplineSet
800 500 m 0
 800 610.4 889.6 700 1000 700 c 0
 1110.4 700 1200 610.4 1200 500 c 0
 1200 389.6 1110.4 300 1000 300 c 0
 889.6 300 800 389.6 800 500 c 0
0 900 m 1
 600 900 l 1
 600 1400 l 1
 700 1400 l 1
 700 900 l 1
 1300 900 l 1
 1300 1400 l 1
 1400 1400 l 1
 1400 900 l 1
 2000 900 l 1
 2000 800 l 1
 1400 800 l 1
 1400 200 l 1
 2000 200 l 1
 2000 100 l 1
 1400 100 l 1
 1400 -400 l 1
 1300 -400 l 1
 1300 100 l 1
 700 100 l 1
 700 -400 l 1
 600 -400 l 1
 600 100 l 1
 0 100 l 1
 0 200 l 1
 600 200 l 1
 600 800 l 1
 0 800 l 1
 0 900 l 1
1300 200 m 1
 1300 800 l 1
 700 800 l 1
 700 200 l 1
 1300 200 l 1
100 500 m 4
 100 610.4 189.6 700 300 700 c 4
 410.4 700 500 610.4 500 500 c 4
 500 389.6 410.4 300 300 300 c 4
 189.6 300 100 389.6 100 500 c 4
EndSplineSet
EndChar

StartChar: uniE231
Encoding: 57905 57905 188
Width: 2000
VWidth: 0
Flags: HW
LayerCount: 2
Fore
SplineSet
0 900 m 1
 600 900 l 1
 600 1400 l 1
 700 1400 l 1
 700 900 l 1
 1300 900 l 1
 1300 1400 l 1
 1400 1400 l 1
 1400 900 l 1
 2000 900 l 1
 2000 800 l 1
 1400 800 l 1
 1400 200 l 1
 2000 200 l 1
 2000 100 l 1
 1400 100 l 1
 1400 -400 l 1
 1300 -400 l 1
 1300 100 l 1
 700 100 l 1
 700 -400 l 1
 600 -400 l 1
 600 100 l 1
 0 100 l 1
 0 200 l 1
 600 200 l 1
 600 800 l 1
 0 800 l 1
 0 900 l 1
1500 -200 m 0
 1500 -89.5996 1589.6 0 1700 0 c 0
 1810.4 0 1900 -89.5996 1900 -200 c 0
 1900 -310.4 1810.4 -400 1700 -400 c 0
 1589.6 -400 1500 -310.4 1500 -200 c 0
1300 200 m 1
 1300 800 l 1
 700 800 l 1
 700 200 l 1
 1300 200 l 1
800 500 m 4
 800 610.4 889.6 700 1000 700 c 4
 1110.4 700 1200 610.4 1200 500 c 4
 1200 389.6 1110.4 300 1000 300 c 4
 889.6 300 800 389.6 800 500 c 4
100 500 m 4
 100 610.4 189.6 700 300 700 c 4
 410.4 700 500 610.4 500 500 c 4
 500 389.6 410.4 300 300 300 c 4
 189.6 300 100 389.6 100 500 c 4
EndSplineSet
EndChar

StartChar: uniE232
Encoding: 57906 57906 189
Width: 2000
VWidth: 0
Flags: HW
LayerCount: 2
Fore
SplineSet
0 900 m 1
 600 900 l 1
 600 1400 l 1
 700 1400 l 1
 700 900 l 1
 1300 900 l 1
 1300 1400 l 1
 1400 1400 l 1
 1400 900 l 1
 2000 900 l 1
 2000 800 l 1
 1400 800 l 1
 1400 200 l 1
 2000 200 l 1
 2000 100 l 1
 1400 100 l 1
 1400 -400 l 1
 1300 -400 l 1
 1300 100 l 1
 700 100 l 1
 700 -400 l 1
 600 -400 l 1
 600 100 l 1
 0 100 l 1
 0 200 l 1
 600 200 l 1
 600 800 l 1
 0 800 l 1
 0 900 l 1
800 -200 m 0
 800 -89.5996 889.6 0 1000 0 c 0
 1110.4 0 1200 -89.5996 1200 -200 c 0
 1200 -310.4 1110.4 -400 1000 -400 c 0
 889.6 -400 800 -310.4 800 -200 c 0
1300 200 m 1
 1300 800 l 1
 700 800 l 1
 700 200 l 1
 1300 200 l 1
800 500 m 4
 800 610.4 889.6 700 1000 700 c 4
 1110.4 700 1200 610.4 1200 500 c 4
 1200 389.6 1110.4 300 1000 300 c 4
 889.6 300 800 389.6 800 500 c 4
100 500 m 4
 100 610.4 189.6 700 300 700 c 4
 410.4 700 500 610.4 500 500 c 4
 500 389.6 410.4 300 300 300 c 4
 189.6 300 100 389.6 100 500 c 4
EndSplineSet
EndChar

StartChar: uniE233
Encoding: 57907 57907 190
Width: 2000
VWidth: 0
Flags: HW
LayerCount: 2
Fore
SplineSet
800 -200 m 0
 800 -89.5996 889.6 0 1000 0 c 0
 1110.4 0 1200 -89.5996 1200 -200 c 0
 1200 -310.4 1110.4 -400 1000 -400 c 0
 889.6 -400 800 -310.4 800 -200 c 0
0 900 m 1
 600 900 l 1
 600 1400 l 1
 700 1400 l 1
 700 900 l 1
 1300 900 l 1
 1300 1400 l 1
 1400 1400 l 1
 1400 900 l 1
 2000 900 l 1
 2000 800 l 1
 1400 800 l 1
 1400 200 l 1
 2000 200 l 1
 2000 100 l 1
 1400 100 l 1
 1400 -400 l 1
 1300 -400 l 1
 1300 100 l 1
 700 100 l 1
 700 -400 l 1
 600 -400 l 1
 600 100 l 1
 0 100 l 1
 0 200 l 1
 600 200 l 1
 600 800 l 1
 0 800 l 1
 0 900 l 1
1500 -200 m 0
 1500 -89.5996 1589.6 0 1700 0 c 0
 1810.4 0 1900 -89.5996 1900 -200 c 0
 1900 -310.4 1810.4 -400 1700 -400 c 0
 1589.6 -400 1500 -310.4 1500 -200 c 0
1300 200 m 1
 1300 800 l 1
 700 800 l 1
 700 200 l 1
 1300 200 l 1
800 500 m 4
 800 610.4 889.6 700 1000 700 c 4
 1110.4 700 1200 610.4 1200 500 c 4
 1200 389.6 1110.4 300 1000 300 c 4
 889.6 300 800 389.6 800 500 c 4
100 500 m 4
 100 610.4 189.6 700 300 700 c 4
 410.4 700 500 610.4 500 500 c 4
 500 389.6 410.4 300 300 300 c 4
 189.6 300 100 389.6 100 500 c 4
EndSplineSet
EndChar

StartChar: uniE234
Encoding: 57908 57908 191
Width: 2000
VWidth: 0
Flags: HW
LayerCount: 2
Fore
SplineSet
100 -200 m 0
 100 -89.5996 189.6 0 300 0 c 0
 410.4 0 500 -89.5996 500 -200 c 0
 500 -310.4 410.4 -400 300 -400 c 0
 189.6 -400 100 -310.4 100 -200 c 0
0 900 m 1
 600 900 l 1
 600 1400 l 1
 700 1400 l 1
 700 900 l 1
 1300 900 l 1
 1300 1400 l 1
 1400 1400 l 1
 1400 900 l 1
 2000 900 l 1
 2000 800 l 1
 1400 800 l 1
 1400 200 l 1
 2000 200 l 1
 2000 100 l 1
 1400 100 l 1
 1400 -400 l 1
 1300 -400 l 1
 1300 100 l 1
 700 100 l 1
 700 -400 l 1
 600 -400 l 1
 600 100 l 1
 0 100 l 1
 0 200 l 1
 600 200 l 1
 600 800 l 1
 0 800 l 1
 0 900 l 1
1300 200 m 1
 1300 800 l 1
 700 800 l 1
 700 200 l 1
 1300 200 l 1
800 500 m 4
 800 610.4 889.6 700 1000 700 c 4
 1110.4 700 1200 610.4 1200 500 c 4
 1200 389.6 1110.4 300 1000 300 c 4
 889.6 300 800 389.6 800 500 c 4
100 500 m 4
 100 610.4 189.6 700 300 700 c 4
 410.4 700 500 610.4 500 500 c 4
 500 389.6 410.4 300 300 300 c 4
 189.6 300 100 389.6 100 500 c 4
EndSplineSet
EndChar

StartChar: uniE235
Encoding: 57909 57909 192
Width: 2000
VWidth: 0
Flags: HW
LayerCount: 2
Fore
SplineSet
100 -200 m 0
 100 -89.5996 189.6 0 300 0 c 0
 410.4 0 500 -89.5996 500 -200 c 0
 500 -310.4 410.4 -400 300 -400 c 0
 189.6 -400 100 -310.4 100 -200 c 0
0 900 m 1
 600 900 l 1
 600 1400 l 1
 700 1400 l 1
 700 900 l 1
 1300 900 l 1
 1300 1400 l 1
 1400 1400 l 1
 1400 900 l 1
 2000 900 l 1
 2000 800 l 1
 1400 800 l 1
 1400 200 l 1
 2000 200 l 1
 2000 100 l 1
 1400 100 l 1
 1400 -400 l 1
 1300 -400 l 1
 1300 100 l 1
 700 100 l 1
 700 -400 l 1
 600 -400 l 1
 600 100 l 1
 0 100 l 1
 0 200 l 1
 600 200 l 1
 600 800 l 1
 0 800 l 1
 0 900 l 1
1500 -200 m 0
 1500 -89.5996 1589.6 0 1700 0 c 0
 1810.4 0 1900 -89.5996 1900 -200 c 0
 1900 -310.4 1810.4 -400 1700 -400 c 0
 1589.6 -400 1500 -310.4 1500 -200 c 0
1300 200 m 1
 1300 800 l 1
 700 800 l 1
 700 200 l 1
 1300 200 l 1
800 500 m 0
 800 610.4 889.6 700 1000 700 c 0
 1110.4 700 1200 610.4 1200 500 c 0
 1200 389.6 1110.4 300 1000 300 c 0
 889.6 300 800 389.6 800 500 c 0
100 500 m 4
 100 610.4 189.6 700 300 700 c 4
 410.4 700 500 610.4 500 500 c 4
 500 389.6 410.4 300 300 300 c 4
 189.6 300 100 389.6 100 500 c 4
EndSplineSet
EndChar

StartChar: uniE236
Encoding: 57910 57910 193
Width: 2000
VWidth: 0
Flags: HW
LayerCount: 2
Fore
SplineSet
100 -200 m 0
 100 -89.5996 189.6 0 300 0 c 0
 410.4 0 500 -89.5996 500 -200 c 0
 500 -310.4 410.4 -400 300 -400 c 0
 189.6 -400 100 -310.4 100 -200 c 0
0 900 m 1
 600 900 l 1
 600 1400 l 1
 700 1400 l 1
 700 900 l 1
 1300 900 l 1
 1300 1400 l 1
 1400 1400 l 1
 1400 900 l 1
 2000 900 l 1
 2000 800 l 1
 1400 800 l 1
 1400 200 l 1
 2000 200 l 1
 2000 100 l 1
 1400 100 l 1
 1400 -400 l 1
 1300 -400 l 1
 1300 100 l 1
 700 100 l 1
 700 -400 l 1
 600 -400 l 1
 600 100 l 1
 0 100 l 1
 0 200 l 1
 600 200 l 1
 600 800 l 1
 0 800 l 1
 0 900 l 1
800 -200 m 0
 800 -89.5996 889.6 0 1000 0 c 0
 1110.4 0 1200 -89.5996 1200 -200 c 0
 1200 -310.4 1110.4 -400 1000 -400 c 0
 889.6 -400 800 -310.4 800 -200 c 0
1300 200 m 1
 1300 800 l 1
 700 800 l 1
 700 200 l 1
 1300 200 l 1
800 500 m 4
 800 610.4 889.6 700 1000 700 c 4
 1110.4 700 1200 610.4 1200 500 c 4
 1200 389.6 1110.4 300 1000 300 c 4
 889.6 300 800 389.6 800 500 c 4
100 500 m 4
 100 610.4 189.6 700 300 700 c 4
 410.4 700 500 610.4 500 500 c 4
 500 389.6 410.4 300 300 300 c 4
 189.6 300 100 389.6 100 500 c 4
EndSplineSet
EndChar

StartChar: uniE237
Encoding: 57911 57911 194
Width: 2000
VWidth: 0
Flags: HW
LayerCount: 2
Fore
SplineSet
100 -200 m 0
 100 -89.5996 189.6 0 300 0 c 0
 410.4 0 500 -89.5996 500 -200 c 0
 500 -310.4 410.4 -400 300 -400 c 0
 189.6 -400 100 -310.4 100 -200 c 0
800 -200 m 0
 800 -89.5996 889.6 0 1000 0 c 0
 1110.4 0 1200 -89.5996 1200 -200 c 0
 1200 -310.4 1110.4 -400 1000 -400 c 0
 889.6 -400 800 -310.4 800 -200 c 0
0 900 m 1
 600 900 l 1
 600 1400 l 1
 700 1400 l 1
 700 900 l 1
 1300 900 l 1
 1300 1400 l 1
 1400 1400 l 1
 1400 900 l 1
 2000 900 l 1
 2000 800 l 1
 1400 800 l 1
 1400 200 l 1
 2000 200 l 1
 2000 100 l 1
 1400 100 l 1
 1400 -400 l 1
 1300 -400 l 1
 1300 100 l 1
 700 100 l 1
 700 -400 l 1
 600 -400 l 1
 600 100 l 1
 0 100 l 1
 0 200 l 1
 600 200 l 1
 600 800 l 1
 0 800 l 1
 0 900 l 1
1500 -200 m 0
 1500 -89.5996 1589.6 0 1700 0 c 0
 1810.4 0 1900 -89.5996 1900 -200 c 0
 1900 -310.4 1810.4 -400 1700 -400 c 0
 1589.6 -400 1500 -310.4 1500 -200 c 0
1300 200 m 1
 1300 800 l 1
 700 800 l 1
 700 200 l 1
 1300 200 l 1
800 500 m 4
 800 610.4 889.6 700 1000 700 c 4
 1110.4 700 1200 610.4 1200 500 c 4
 1200 389.6 1110.4 300 1000 300 c 4
 889.6 300 800 389.6 800 500 c 4
100 500 m 4
 100 610.4 189.6 700 300 700 c 4
 410.4 700 500 610.4 500 500 c 4
 500 389.6 410.4 300 300 300 c 4
 189.6 300 100 389.6 100 500 c 4
EndSplineSet
EndChar

StartChar: uniE238
Encoding: 57912 57912 195
Width: 2000
VWidth: 0
Flags: HW
LayerCount: 2
Fore
SplineSet
1500 500 m 0
 1500 610.4 1589.6 700 1700 700 c 0
 1810.4 700 1900 610.4 1900 500 c 0
 1900 389.6 1810.4 300 1700 300 c 0
 1589.6 300 1500 389.6 1500 500 c 0
0 900 m 1
 600 900 l 1
 600 1400 l 1
 700 1400 l 1
 700 900 l 1
 1300 900 l 1
 1300 1400 l 1
 1400 1400 l 1
 1400 900 l 1
 2000 900 l 1
 2000 800 l 1
 1400 800 l 1
 1400 200 l 1
 2000 200 l 1
 2000 100 l 1
 1400 100 l 1
 1400 -400 l 1
 1300 -400 l 1
 1300 100 l 1
 700 100 l 1
 700 -400 l 1
 600 -400 l 1
 600 100 l 1
 0 100 l 1
 0 200 l 1
 600 200 l 1
 600 800 l 1
 0 800 l 1
 0 900 l 1
1300 200 m 1
 1300 800 l 1
 700 800 l 1
 700 200 l 1
 1300 200 l 1
800 500 m 4
 800 610.4 889.6 700 1000 700 c 4
 1110.4 700 1200 610.4 1200 500 c 4
 1200 389.6 1110.4 300 1000 300 c 4
 889.6 300 800 389.6 800 500 c 4
100 500 m 4
 100 610.4 189.6 700 300 700 c 4
 410.4 700 500 610.4 500 500 c 4
 500 389.6 410.4 300 300 300 c 4
 189.6 300 100 389.6 100 500 c 4
EndSplineSet
EndChar

StartChar: uniE239
Encoding: 57913 57913 196
Width: 2000
VWidth: 0
Flags: HW
LayerCount: 2
Fore
SplineSet
0 900 m 1
 600 900 l 1
 600 1400 l 1
 700 1400 l 1
 700 900 l 1
 1300 900 l 1
 1300 1400 l 1
 1400 1400 l 1
 1400 900 l 1
 2000 900 l 1
 2000 800 l 1
 1400 800 l 1
 1400 200 l 1
 2000 200 l 1
 2000 100 l 1
 1400 100 l 1
 1400 -400 l 1
 1300 -400 l 1
 1300 100 l 1
 700 100 l 1
 700 -400 l 1
 600 -400 l 1
 600 100 l 1
 0 100 l 1
 0 200 l 1
 600 200 l 1
 600 800 l 1
 0 800 l 1
 0 900 l 1
1500 -200 m 0
 1500 -89.5996 1589.6 0 1700 0 c 0
 1810.4 0 1900 -89.5996 1900 -200 c 0
 1900 -310.4 1810.4 -400 1700 -400 c 0
 1589.6 -400 1500 -310.4 1500 -200 c 0
1300 200 m 1
 1300 800 l 1
 700 800 l 1
 700 200 l 1
 1300 200 l 1
1500 500 m 4
 1500 610.4 1589.6 700 1700 700 c 4
 1810.4 700 1900 610.4 1900 500 c 4
 1900 389.6 1810.4 300 1700 300 c 4
 1589.6 300 1500 389.6 1500 500 c 4
800 500 m 4
 800 610.4 889.6 700 1000 700 c 4
 1110.4 700 1200 610.4 1200 500 c 4
 1200 389.6 1110.4 300 1000 300 c 4
 889.6 300 800 389.6 800 500 c 4
100 500 m 4
 100 610.4 189.6 700 300 700 c 4
 410.4 700 500 610.4 500 500 c 4
 500 389.6 410.4 300 300 300 c 4
 189.6 300 100 389.6 100 500 c 4
EndSplineSet
EndChar

StartChar: uniE23A
Encoding: 57914 57914 197
Width: 2000
VWidth: 0
Flags: HW
LayerCount: 2
Fore
SplineSet
0 900 m 1
 600 900 l 1
 600 1400 l 1
 700 1400 l 1
 700 900 l 1
 1300 900 l 1
 1300 1400 l 1
 1400 1400 l 1
 1400 900 l 1
 2000 900 l 1
 2000 800 l 1
 1400 800 l 1
 1400 200 l 1
 2000 200 l 1
 2000 100 l 1
 1400 100 l 1
 1400 -400 l 1
 1300 -400 l 1
 1300 100 l 1
 700 100 l 1
 700 -400 l 1
 600 -400 l 1
 600 100 l 1
 0 100 l 1
 0 200 l 1
 600 200 l 1
 600 800 l 1
 0 800 l 1
 0 900 l 1
800 -200 m 0
 800 -89.5996 889.6 0 1000 0 c 0
 1110.4 0 1200 -89.5996 1200 -200 c 0
 1200 -310.4 1110.4 -400 1000 -400 c 0
 889.6 -400 800 -310.4 800 -200 c 0
1300 200 m 1
 1300 800 l 1
 700 800 l 1
 700 200 l 1
 1300 200 l 1
1500 500 m 4
 1500 610.4 1589.6 700 1700 700 c 4
 1810.4 700 1900 610.4 1900 500 c 4
 1900 389.6 1810.4 300 1700 300 c 4
 1589.6 300 1500 389.6 1500 500 c 4
800 500 m 4
 800 610.4 889.6 700 1000 700 c 4
 1110.4 700 1200 610.4 1200 500 c 4
 1200 389.6 1110.4 300 1000 300 c 4
 889.6 300 800 389.6 800 500 c 4
100 500 m 4
 100 610.4 189.6 700 300 700 c 4
 410.4 700 500 610.4 500 500 c 4
 500 389.6 410.4 300 300 300 c 4
 189.6 300 100 389.6 100 500 c 4
EndSplineSet
EndChar

StartChar: uniE23B
Encoding: 57915 57915 198
Width: 2000
VWidth: 0
Flags: HW
LayerCount: 2
Fore
SplineSet
800 -200 m 0
 800 -89.5996 889.6 0 1000 0 c 0
 1110.4 0 1200 -89.5996 1200 -200 c 0
 1200 -310.4 1110.4 -400 1000 -400 c 0
 889.6 -400 800 -310.4 800 -200 c 0
0 900 m 1
 600 900 l 1
 600 1400 l 1
 700 1400 l 1
 700 900 l 1
 1300 900 l 1
 1300 1400 l 1
 1400 1400 l 1
 1400 900 l 1
 2000 900 l 1
 2000 800 l 1
 1400 800 l 1
 1400 200 l 1
 2000 200 l 1
 2000 100 l 1
 1400 100 l 1
 1400 -400 l 1
 1300 -400 l 1
 1300 100 l 1
 700 100 l 1
 700 -400 l 1
 600 -400 l 1
 600 100 l 1
 0 100 l 1
 0 200 l 1
 600 200 l 1
 600 800 l 1
 0 800 l 1
 0 900 l 1
1500 -200 m 0
 1500 -89.5996 1589.6 0 1700 0 c 0
 1810.4 0 1900 -89.5996 1900 -200 c 0
 1900 -310.4 1810.4 -400 1700 -400 c 0
 1589.6 -400 1500 -310.4 1500 -200 c 0
1300 200 m 1
 1300 800 l 1
 700 800 l 1
 700 200 l 1
 1300 200 l 1
1500 500 m 4
 1500 610.4 1589.6 700 1700 700 c 4
 1810.4 700 1900 610.4 1900 500 c 4
 1900 389.6 1810.4 300 1700 300 c 4
 1589.6 300 1500 389.6 1500 500 c 4
800 500 m 4
 800 610.4 889.6 700 1000 700 c 4
 1110.4 700 1200 610.4 1200 500 c 4
 1200 389.6 1110.4 300 1000 300 c 4
 889.6 300 800 389.6 800 500 c 4
100 500 m 4
 100 610.4 189.6 700 300 700 c 4
 410.4 700 500 610.4 500 500 c 4
 500 389.6 410.4 300 300 300 c 4
 189.6 300 100 389.6 100 500 c 4
EndSplineSet
EndChar

StartChar: uniE23C
Encoding: 57916 57916 199
Width: 2000
VWidth: 0
Flags: HW
LayerCount: 2
Fore
SplineSet
100 -200 m 0
 100 -89.5996 189.6 0 300 0 c 0
 410.4 0 500 -89.5996 500 -200 c 0
 500 -310.4 410.4 -400 300 -400 c 0
 189.6 -400 100 -310.4 100 -200 c 0
0 900 m 1
 600 900 l 1
 600 1400 l 1
 700 1400 l 1
 700 900 l 1
 1300 900 l 1
 1300 1400 l 1
 1400 1400 l 1
 1400 900 l 1
 2000 900 l 1
 2000 800 l 1
 1400 800 l 1
 1400 200 l 1
 2000 200 l 1
 2000 100 l 1
 1400 100 l 1
 1400 -400 l 1
 1300 -400 l 1
 1300 100 l 1
 700 100 l 1
 700 -400 l 1
 600 -400 l 1
 600 100 l 1
 0 100 l 1
 0 200 l 1
 600 200 l 1
 600 800 l 1
 0 800 l 1
 0 900 l 1
1300 200 m 1
 1300 800 l 1
 700 800 l 1
 700 200 l 1
 1300 200 l 1
1500 500 m 4
 1500 610.4 1589.6 700 1700 700 c 4
 1810.4 700 1900 610.4 1900 500 c 4
 1900 389.6 1810.4 300 1700 300 c 4
 1589.6 300 1500 389.6 1500 500 c 4
800 500 m 4
 800 610.4 889.6 700 1000 700 c 4
 1110.4 700 1200 610.4 1200 500 c 4
 1200 389.6 1110.4 300 1000 300 c 4
 889.6 300 800 389.6 800 500 c 4
100 500 m 4
 100 610.4 189.6 700 300 700 c 4
 410.4 700 500 610.4 500 500 c 4
 500 389.6 410.4 300 300 300 c 4
 189.6 300 100 389.6 100 500 c 4
EndSplineSet
EndChar

StartChar: uniE23D
Encoding: 57917 57917 200
Width: 2000
VWidth: 0
Flags: HW
LayerCount: 2
Fore
SplineSet
100 -200 m 0
 100 -89.5996 189.6 0 300 0 c 0
 410.4 0 500 -89.5996 500 -200 c 0
 500 -310.4 410.4 -400 300 -400 c 0
 189.6 -400 100 -310.4 100 -200 c 0
0 900 m 1
 600 900 l 1
 600 1400 l 1
 700 1400 l 1
 700 900 l 1
 1300 900 l 1
 1300 1400 l 1
 1400 1400 l 1
 1400 900 l 1
 2000 900 l 1
 2000 800 l 1
 1400 800 l 1
 1400 200 l 1
 2000 200 l 1
 2000 100 l 1
 1400 100 l 1
 1400 -400 l 1
 1300 -400 l 1
 1300 100 l 1
 700 100 l 1
 700 -400 l 1
 600 -400 l 1
 600 100 l 1
 0 100 l 1
 0 200 l 1
 600 200 l 1
 600 800 l 1
 0 800 l 1
 0 900 l 1
1500 -200 m 0
 1500 -89.5996 1589.6 0 1700 0 c 0
 1810.4 0 1900 -89.5996 1900 -200 c 0
 1900 -310.4 1810.4 -400 1700 -400 c 0
 1589.6 -400 1500 -310.4 1500 -200 c 0
1300 200 m 1
 1300 800 l 1
 700 800 l 1
 700 200 l 1
 1300 200 l 1
1500 500 m 4
 1500 610.4 1589.6 700 1700 700 c 4
 1810.4 700 1900 610.4 1900 500 c 4
 1900 389.6 1810.4 300 1700 300 c 4
 1589.6 300 1500 389.6 1500 500 c 4
800 500 m 4
 800 610.4 889.6 700 1000 700 c 4
 1110.4 700 1200 610.4 1200 500 c 4
 1200 389.6 1110.4 300 1000 300 c 4
 889.6 300 800 389.6 800 500 c 4
100 500 m 4
 100 610.4 189.6 700 300 700 c 4
 410.4 700 500 610.4 500 500 c 4
 500 389.6 410.4 300 300 300 c 4
 189.6 300 100 389.6 100 500 c 4
EndSplineSet
EndChar

StartChar: uniE23E
Encoding: 57918 57918 201
Width: 2000
VWidth: 0
Flags: HW
LayerCount: 2
Fore
SplineSet
100 -200 m 0
 100 -89.5996 189.6 0 300 0 c 0
 410.4 0 500 -89.5996 500 -200 c 0
 500 -310.4 410.4 -400 300 -400 c 0
 189.6 -400 100 -310.4 100 -200 c 0
0 900 m 1
 600 900 l 1
 600 1400 l 1
 700 1400 l 1
 700 900 l 1
 1300 900 l 1
 1300 1400 l 1
 1400 1400 l 1
 1400 900 l 1
 2000 900 l 1
 2000 800 l 1
 1400 800 l 1
 1400 200 l 1
 2000 200 l 1
 2000 100 l 1
 1400 100 l 1
 1400 -400 l 1
 1300 -400 l 1
 1300 100 l 1
 700 100 l 1
 700 -400 l 1
 600 -400 l 1
 600 100 l 1
 0 100 l 1
 0 200 l 1
 600 200 l 1
 600 800 l 1
 0 800 l 1
 0 900 l 1
800 -200 m 0
 800 -89.5996 889.6 0 1000 0 c 0
 1110.4 0 1200 -89.5996 1200 -200 c 0
 1200 -310.4 1110.4 -400 1000 -400 c 0
 889.6 -400 800 -310.4 800 -200 c 0
1300 200 m 1
 1300 800 l 1
 700 800 l 1
 700 200 l 1
 1300 200 l 1
1500 500 m 4
 1500 610.4 1589.6 700 1700 700 c 4
 1810.4 700 1900 610.4 1900 500 c 4
 1900 389.6 1810.4 300 1700 300 c 4
 1589.6 300 1500 389.6 1500 500 c 4
800 500 m 4
 800 610.4 889.6 700 1000 700 c 4
 1110.4 700 1200 610.4 1200 500 c 4
 1200 389.6 1110.4 300 1000 300 c 4
 889.6 300 800 389.6 800 500 c 4
100 500 m 4
 100 610.4 189.6 700 300 700 c 4
 410.4 700 500 610.4 500 500 c 4
 500 389.6 410.4 300 300 300 c 4
 189.6 300 100 389.6 100 500 c 4
EndSplineSet
EndChar

StartChar: uniE23F
Encoding: 57919 57919 202
Width: 2000
VWidth: 0
Flags: HW
LayerCount: 2
Fore
SplineSet
100 -200 m 0
 100 -89.5996 189.6 0 300 0 c 0
 410.4 0 500 -89.5996 500 -200 c 0
 500 -310.4 410.4 -400 300 -400 c 0
 189.6 -400 100 -310.4 100 -200 c 0
800 -200 m 0
 800 -89.5996 889.6 0 1000 0 c 0
 1110.4 0 1200 -89.5996 1200 -200 c 0
 1200 -310.4 1110.4 -400 1000 -400 c 0
 889.6 -400 800 -310.4 800 -200 c 0
0 900 m 1
 600 900 l 1
 600 1400 l 1
 700 1400 l 1
 700 900 l 1
 1300 900 l 1
 1300 1400 l 1
 1400 1400 l 1
 1400 900 l 1
 2000 900 l 1
 2000 800 l 1
 1400 800 l 1
 1400 200 l 1
 2000 200 l 1
 2000 100 l 1
 1400 100 l 1
 1400 -400 l 1
 1300 -400 l 1
 1300 100 l 1
 700 100 l 1
 700 -400 l 1
 600 -400 l 1
 600 100 l 1
 0 100 l 1
 0 200 l 1
 600 200 l 1
 600 800 l 1
 0 800 l 1
 0 900 l 1
1500 -200 m 0
 1500 -89.5996 1589.6 0 1700 0 c 0
 1810.4 0 1900 -89.5996 1900 -200 c 0
 1900 -310.4 1810.4 -400 1700 -400 c 0
 1589.6 -400 1500 -310.4 1500 -200 c 0
1300 200 m 1
 1300 800 l 1
 700 800 l 1
 700 200 l 1
 1300 200 l 1
1500 500 m 0
 1500 610.4 1589.6 700 1700 700 c 0
 1810.4 700 1900 610.4 1900 500 c 0
 1900 389.6 1810.4 300 1700 300 c 0
 1589.6 300 1500 389.6 1500 500 c 0
800 500 m 0
 800 610.4 889.6 700 1000 700 c 0
 1110.4 700 1200 610.4 1200 500 c 0
 1200 389.6 1110.4 300 1000 300 c 0
 889.6 300 800 389.6 800 500 c 0
100 500 m 0
 100 610.4 189.6 700 300 700 c 0
 410.4 700 500 610.4 500 500 c 0
 500 389.6 410.4 300 300 300 c 0
 189.6 300 100 389.6 100 500 c 0
EndSplineSet
EndChar

StartChar: uniE240
Encoding: 57920 57920 203
Width: 2000
VWidth: 0
Flags: HW
LayerCount: 2
Fore
SplineSet
1500 1200 m 0
 1500 1310.4 1589.6 1400 1700 1400 c 0
 1810.4 1400 1900 1310.4 1900 1200 c 0
 1900 1089.6 1810.4 1000 1700 1000 c 0
 1589.6 1000 1500 1089.6 1500 1200 c 0
0 900 m 1
 600 900 l 1
 600 1400 l 1
 700 1400 l 1
 700 900 l 1
 1300 900 l 1
 1300 1400 l 1
 1400 1400 l 1
 1400 900 l 1
 2000 900 l 1
 2000 800 l 1
 1400 800 l 1
 1400 200 l 1
 2000 200 l 1
 2000 100 l 1
 1400 100 l 1
 1400 -400 l 1
 1300 -400 l 1
 1300 100 l 1
 700 100 l 1
 700 -400 l 1
 600 -400 l 1
 600 100 l 1
 0 100 l 1
 0 200 l 1
 600 200 l 1
 600 800 l 1
 0 800 l 1
 0 900 l 1
1300 200 m 1
 1300 800 l 1
 700 800 l 1
 700 200 l 1
 1300 200 l 1
EndSplineSet
EndChar

StartChar: uniE241
Encoding: 57921 57921 204
Width: 2000
VWidth: 0
Flags: HW
LayerCount: 2
Fore
SplineSet
0 900 m 1
 600 900 l 1
 600 1400 l 1
 700 1400 l 1
 700 900 l 1
 1300 900 l 1
 1300 1400 l 1
 1400 1400 l 1
 1400 900 l 1
 2000 900 l 1
 2000 800 l 1
 1400 800 l 1
 1400 200 l 1
 2000 200 l 1
 2000 100 l 1
 1400 100 l 1
 1400 -400 l 1
 1300 -400 l 1
 1300 100 l 1
 700 100 l 1
 700 -400 l 1
 600 -400 l 1
 600 100 l 1
 0 100 l 1
 0 200 l 1
 600 200 l 1
 600 800 l 1
 0 800 l 1
 0 900 l 1
1500 -200 m 0
 1500 -89.5996 1589.6 0 1700 0 c 0
 1810.4 0 1900 -89.5996 1900 -200 c 0
 1900 -310.4 1810.4 -400 1700 -400 c 0
 1589.6 -400 1500 -310.4 1500 -200 c 0
1300 200 m 1
 1300 800 l 1
 700 800 l 1
 700 200 l 1
 1300 200 l 1
1500 1200 m 4
 1500 1310.4 1589.6 1400 1700 1400 c 4
 1810.4 1400 1900 1310.4 1900 1200 c 4
 1900 1089.6 1810.4 1000 1700 1000 c 4
 1589.6 1000 1500 1089.6 1500 1200 c 4
EndSplineSet
EndChar

StartChar: uniE242
Encoding: 57922 57922 205
Width: 2000
VWidth: 0
Flags: HW
LayerCount: 2
Fore
SplineSet
0 900 m 1
 600 900 l 1
 600 1400 l 1
 700 1400 l 1
 700 900 l 1
 1300 900 l 1
 1300 1400 l 1
 1400 1400 l 1
 1400 900 l 1
 2000 900 l 1
 2000 800 l 1
 1400 800 l 1
 1400 200 l 1
 2000 200 l 1
 2000 100 l 1
 1400 100 l 1
 1400 -400 l 1
 1300 -400 l 1
 1300 100 l 1
 700 100 l 1
 700 -400 l 1
 600 -400 l 1
 600 100 l 1
 0 100 l 1
 0 200 l 1
 600 200 l 1
 600 800 l 1
 0 800 l 1
 0 900 l 1
800 -200 m 0
 800 -89.5996 889.6 0 1000 0 c 0
 1110.4 0 1200 -89.5996 1200 -200 c 0
 1200 -310.4 1110.4 -400 1000 -400 c 0
 889.6 -400 800 -310.4 800 -200 c 0
1300 200 m 1
 1300 800 l 1
 700 800 l 1
 700 200 l 1
 1300 200 l 1
1500 1200 m 4
 1500 1310.4 1589.6 1400 1700 1400 c 4
 1810.4 1400 1900 1310.4 1900 1200 c 4
 1900 1089.6 1810.4 1000 1700 1000 c 4
 1589.6 1000 1500 1089.6 1500 1200 c 4
EndSplineSet
EndChar

StartChar: uniE243
Encoding: 57923 57923 206
Width: 2000
VWidth: 0
Flags: HW
LayerCount: 2
Fore
SplineSet
800 -200 m 0
 800 -89.5996 889.6 0 1000 0 c 0
 1110.4 0 1200 -89.5996 1200 -200 c 0
 1200 -310.4 1110.4 -400 1000 -400 c 0
 889.6 -400 800 -310.4 800 -200 c 0
0 900 m 1
 600 900 l 1
 600 1400 l 1
 700 1400 l 1
 700 900 l 1
 1300 900 l 1
 1300 1400 l 1
 1400 1400 l 1
 1400 900 l 1
 2000 900 l 1
 2000 800 l 1
 1400 800 l 1
 1400 200 l 1
 2000 200 l 1
 2000 100 l 1
 1400 100 l 1
 1400 -400 l 1
 1300 -400 l 1
 1300 100 l 1
 700 100 l 1
 700 -400 l 1
 600 -400 l 1
 600 100 l 1
 0 100 l 1
 0 200 l 1
 600 200 l 1
 600 800 l 1
 0 800 l 1
 0 900 l 1
1500 -200 m 0
 1500 -89.5996 1589.6 0 1700 0 c 0
 1810.4 0 1900 -89.5996 1900 -200 c 0
 1900 -310.4 1810.4 -400 1700 -400 c 0
 1589.6 -400 1500 -310.4 1500 -200 c 0
1300 200 m 1
 1300 800 l 1
 700 800 l 1
 700 200 l 1
 1300 200 l 1
1500 1200 m 4
 1500 1310.4 1589.6 1400 1700 1400 c 4
 1810.4 1400 1900 1310.4 1900 1200 c 4
 1900 1089.6 1810.4 1000 1700 1000 c 4
 1589.6 1000 1500 1089.6 1500 1200 c 4
EndSplineSet
EndChar

StartChar: uniE244
Encoding: 57924 57924 207
Width: 2000
VWidth: 0
Flags: HW
LayerCount: 2
Fore
SplineSet
100 -200 m 0
 100 -89.5996 189.6 0 300 0 c 0
 410.4 0 500 -89.5996 500 -200 c 0
 500 -310.4 410.4 -400 300 -400 c 0
 189.6 -400 100 -310.4 100 -200 c 0
0 900 m 1
 600 900 l 1
 600 1400 l 1
 700 1400 l 1
 700 900 l 1
 1300 900 l 1
 1300 1400 l 1
 1400 1400 l 1
 1400 900 l 1
 2000 900 l 1
 2000 800 l 1
 1400 800 l 1
 1400 200 l 1
 2000 200 l 1
 2000 100 l 1
 1400 100 l 1
 1400 -400 l 1
 1300 -400 l 1
 1300 100 l 1
 700 100 l 1
 700 -400 l 1
 600 -400 l 1
 600 100 l 1
 0 100 l 1
 0 200 l 1
 600 200 l 1
 600 800 l 1
 0 800 l 1
 0 900 l 1
1300 200 m 1
 1300 800 l 1
 700 800 l 1
 700 200 l 1
 1300 200 l 1
1500 1200 m 4
 1500 1310.4 1589.6 1400 1700 1400 c 4
 1810.4 1400 1900 1310.4 1900 1200 c 4
 1900 1089.6 1810.4 1000 1700 1000 c 4
 1589.6 1000 1500 1089.6 1500 1200 c 4
EndSplineSet
EndChar

StartChar: uniE245
Encoding: 57925 57925 208
Width: 2000
VWidth: 0
Flags: HW
LayerCount: 2
Fore
SplineSet
100 -200 m 0
 100 -89.5996 189.6 0 300 0 c 0
 410.4 0 500 -89.5996 500 -200 c 0
 500 -310.4 410.4 -400 300 -400 c 0
 189.6 -400 100 -310.4 100 -200 c 0
0 900 m 1
 600 900 l 1
 600 1400 l 1
 700 1400 l 1
 700 900 l 1
 1300 900 l 1
 1300 1400 l 1
 1400 1400 l 1
 1400 900 l 1
 2000 900 l 1
 2000 800 l 1
 1400 800 l 1
 1400 200 l 1
 2000 200 l 1
 2000 100 l 1
 1400 100 l 1
 1400 -400 l 1
 1300 -400 l 1
 1300 100 l 1
 700 100 l 1
 700 -400 l 1
 600 -400 l 1
 600 100 l 1
 0 100 l 1
 0 200 l 1
 600 200 l 1
 600 800 l 1
 0 800 l 1
 0 900 l 1
1500 -200 m 0
 1500 -89.5996 1589.6 0 1700 0 c 0
 1810.4 0 1900 -89.5996 1900 -200 c 0
 1900 -310.4 1810.4 -400 1700 -400 c 0
 1589.6 -400 1500 -310.4 1500 -200 c 0
1300 200 m 1
 1300 800 l 1
 700 800 l 1
 700 200 l 1
 1300 200 l 1
1500 1200 m 4
 1500 1310.4 1589.6 1400 1700 1400 c 4
 1810.4 1400 1900 1310.4 1900 1200 c 4
 1900 1089.6 1810.4 1000 1700 1000 c 4
 1589.6 1000 1500 1089.6 1500 1200 c 4
EndSplineSet
EndChar

StartChar: uniE246
Encoding: 57926 57926 209
Width: 2000
VWidth: 0
Flags: HW
LayerCount: 2
Fore
SplineSet
100 -200 m 0
 100 -89.5996 189.6 0 300 0 c 0
 410.4 0 500 -89.5996 500 -200 c 0
 500 -310.4 410.4 -400 300 -400 c 0
 189.6 -400 100 -310.4 100 -200 c 0
0 900 m 1
 600 900 l 1
 600 1400 l 1
 700 1400 l 1
 700 900 l 1
 1300 900 l 1
 1300 1400 l 1
 1400 1400 l 1
 1400 900 l 1
 2000 900 l 1
 2000 800 l 1
 1400 800 l 1
 1400 200 l 1
 2000 200 l 1
 2000 100 l 1
 1400 100 l 1
 1400 -400 l 1
 1300 -400 l 1
 1300 100 l 1
 700 100 l 1
 700 -400 l 1
 600 -400 l 1
 600 100 l 1
 0 100 l 1
 0 200 l 1
 600 200 l 1
 600 800 l 1
 0 800 l 1
 0 900 l 1
800 -200 m 0
 800 -89.5996 889.6 0 1000 0 c 0
 1110.4 0 1200 -89.5996 1200 -200 c 0
 1200 -310.4 1110.4 -400 1000 -400 c 0
 889.6 -400 800 -310.4 800 -200 c 0
1300 200 m 1
 1300 800 l 1
 700 800 l 1
 700 200 l 1
 1300 200 l 1
1500 1200 m 4
 1500 1310.4 1589.6 1400 1700 1400 c 4
 1810.4 1400 1900 1310.4 1900 1200 c 4
 1900 1089.6 1810.4 1000 1700 1000 c 4
 1589.6 1000 1500 1089.6 1500 1200 c 4
EndSplineSet
EndChar

